solid OpenSCAD_Model
  facet normal 0.995974 0.0896393 0
    outer loop
      vertex 21 0 14
      vertex 20.6625 3.74969 0
      vertex 20.6625 3.74969 14
    endloop
  endfacet
  facet normal 0.995974 0.0896393 0
    outer loop
      vertex 20.6625 3.74969 0
      vertex 21 0 14
      vertex 21 0 0
    endloop
  endfacet
  facet normal -1 0 0
    outer loop
      vertex -20.9155 -1.88242 0
      vertex -20.9155 1.88242 14
      vertex -20.9155 1.88242 0
    endloop
  endfacet
  facet normal -1 -0 0
    outer loop
      vertex -20.9155 1.88242 14
      vertex -20.9155 -1.88242 0
      vertex -20.9155 -1.88242 14
    endloop
  endfacet
  facet normal -0.134233 0.99095 0
    outer loop
      vertex -0.94216 20.9789 0
      vertex -4.67294 20.4735 14
      vertex -0.94216 20.9789 14
    endloop
  endfacet
  facet normal -0.134233 0.99095 0
    outer loop
      vertex -4.67294 20.4735 14
      vertex -0.94216 20.9789 0
      vertex -4.67294 20.4735 0
    endloop
  endfacet
  facet normal 0.0448648 -0.998993 0
    outer loop
      vertex -0.94216 -20.9789 0
      vertex 2.8189 -20.8099 14
      vertex -0.94216 -20.9789 14
    endloop
  endfacet
  facet normal 0.0448648 -0.998993 0
    outer loop
      vertex 2.8189 -20.8099 14
      vertex -0.94216 -20.9789 0
      vertex 2.8189 -20.8099 0
    endloop
  endfacet
  facet normal 0.550897 0.834573 -0
    outer loop
      vertex 13.0933 16.4185 0
      vertex 9.95124 18.4925 14
      vertex 13.0933 16.4185 14
    endloop
  endfacet
  facet normal 0.550897 0.834573 0
    outer loop
      vertex 9.95124 18.4925 14
      vertex 13.0933 16.4185 0
      vertex 9.95124 18.4925 0
    endloop
  endfacet
  facet normal -0.753071 0.657939 0
    outer loop
      vertex -16.9894 12.3435 0
      vertex -14.5123 15.1787 14
      vertex -14.5123 15.1787 0
    endloop
  endfacet
  facet normal -0.753071 0.657939 0
    outer loop
      vertex -14.5123 15.1787 14
      vertex -16.9894 12.3435 0
      vertex -16.9894 12.3435 14
    endloop
  endfacet
  facet normal -0.473869 0.880595 0
    outer loop
      vertex -8.25353 19.3101 0
      vertex -11.5688 17.526 14
      vertex -8.25353 19.3101 14
    endloop
  endfacet
  facet normal -0.473869 0.880595 0
    outer loop
      vertex -11.5688 17.526 14
      vertex -8.25353 19.3101 0
      vertex -11.5688 17.526 0
    endloop
  endfacet
  facet normal 0.809017 -0.587785 0
    outer loop
      vertex 15.8145 -13.8167 14
      vertex 18.0274 -10.7709 0
      vertex 18.0274 -10.7709 14
    endloop
  endfacet
  facet normal 0.809017 -0.587785 0
    outer loop
      vertex 18.0274 -10.7709 0
      vertex 15.8145 -13.8167 14
      vertex 15.8145 -13.8167 0
    endloop
  endfacet
  facet normal 0.900969 0.433884 0
    outer loop
      vertex 19.6609 7.37887 14
      vertex 18.0274 10.7709 0
      vertex 18.0274 10.7709 14
    endloop
  endfacet
  facet normal 0.900969 0.433884 0
    outer loop
      vertex 18.0274 10.7709 0
      vertex 19.6609 7.37887 14
      vertex 19.6609 7.37887 0
    endloop
  endfacet
  facet normal 0.963963 0.266037 0
    outer loop
      vertex 20.6625 3.74969 14
      vertex 19.6609 7.37887 0
      vertex 19.6609 7.37887 14
    endloop
  endfacet
  facet normal 0.963963 0.266037 0
    outer loop
      vertex 19.6609 7.37887 0
      vertex 20.6625 3.74969 14
      vertex 20.6625 3.74969 0
    endloop
  endfacet
  facet normal 0.809017 0.587785 0
    outer loop
      vertex 18.0274 10.7709 14
      vertex 15.8145 13.8167 0
      vertex 15.8145 13.8167 14
    endloop
  endfacet
  facet normal 0.809017 0.587785 0
    outer loop
      vertex 15.8145 13.8167 0
      vertex 18.0274 10.7709 14
      vertex 18.0274 10.7709 0
    endloop
  endfacet
  facet normal 0.222521 0.974928 -0
    outer loop
      vertex 6.48936 19.9722 0
      vertex 2.8189 20.8099 14
      vertex 6.48936 19.9722 14
    endloop
  endfacet
  facet normal 0.222521 0.974928 0
    outer loop
      vertex 2.8189 20.8099 14
      vertex 6.48936 19.9722 0
      vertex 2.8189 20.8099 0
    endloop
  endfacet
  facet normal 0.0448648 0.998993 -0
    outer loop
      vertex 2.8189 20.8099 0
      vertex -0.94216 20.9789 14
      vertex 2.8189 20.8099 14
    endloop
  endfacet
  facet normal 0.0448648 0.998993 0
    outer loop
      vertex -0.94216 20.9789 14
      vertex 2.8189 20.8099 0
      vertex -0.94216 20.9789 0
    endloop
  endfacet
  facet normal 0.393025 0.919528 -0
    outer loop
      vertex 9.95124 18.4925 0
      vertex 6.48936 19.9722 14
      vertex 9.95124 18.4925 14
    endloop
  endfacet
  facet normal 0.393025 0.919528 0
    outer loop
      vertex 6.48936 19.9722 14
      vertex 9.95124 18.4925 0
      vertex 6.48936 19.9722 0
    endloop
  endfacet
  facet normal -0.936235 0.351375 0
    outer loop
      vertex -20.2432 5.58677 0
      vertex -18.9203 9.11156 14
      vertex -18.9203 9.11156 0
    endloop
  endfacet
  facet normal -0.936235 0.351375 0
    outer loop
      vertex -18.9203 9.11156 14
      vertex -20.2432 5.58677 0
      vertex -20.2432 5.58677 14
    endloop
  endfacet
  facet normal -0.858449 0.512899 0
    outer loop
      vertex -18.9203 9.11156 0
      vertex -16.9894 12.3435 14
      vertex -16.9894 12.3435 0
    endloop
  endfacet
  facet normal -0.858449 0.512899 0
    outer loop
      vertex -16.9894 12.3435 14
      vertex -18.9203 9.11156 0
      vertex -18.9203 9.11156 14
    endloop
  endfacet
  facet normal -0.98393 0.178557 0
    outer loop
      vertex -20.9155 1.88242 0
      vertex -20.2432 5.58677 14
      vertex -20.2432 5.58677 0
    endloop
  endfacet
  facet normal -0.98393 0.178557 0
    outer loop
      vertex -20.2432 5.58677 14
      vertex -20.9155 1.88242 0
      vertex -20.9155 1.88242 14
    endloop
  endfacet
  facet normal 0 0 1
    outer loop
      vertex -6.47353 -7.00034 14
      vertex -1.92647 -7.00034 14
      vertex -6.47353 -1.39966 14
    endloop
  endfacet
  facet normal 0 0 1
    outer loop
      vertex -1.92647 -7.00034 14
      vertex -6.47353 -7.00034 14
      vertex -6.01875 -8.4 14
    endloop
  endfacet
  facet normal -0 0 1
    outer loop
      vertex -7.66415 -2.2647 14
      vertex -6.47353 -7.00034 14
      vertex -6.47353 -1.39966 14
    endloop
  endfacet
  facet normal 0 0 1
    outer loop
      vertex -7.66415 -2.2647 14
      vertex -7.66415 -6.1353 14
      vertex -6.47353 -7.00034 14
    endloop
  endfacet
  facet normal -0 0 1
    outer loop
      vertex -9.13585 -2.2647 14
      vertex -7.66415 -6.1353 14
      vertex -7.66415 -2.2647 14
    endloop
  endfacet
  facet normal 0 0 1
    outer loop
      vertex -9.13585 -2.2647 14
      vertex -9.13585 -6.1353 14
      vertex -7.66415 -6.1353 14
    endloop
  endfacet
  facet normal 0 0 1
    outer loop
      vertex -10.3265 -1.39966 14
      vertex -9.13585 -6.1353 14
      vertex -9.13585 -2.2647 14
    endloop
  endfacet
  facet normal 0 0 1
    outer loop
      vertex -10.3265 -1.39966 14
      vertex -10.3265 -7.00034 14
      vertex -9.13585 -6.1353 14
    endloop
  endfacet
  facet normal 0 0 1
    outer loop
      vertex -10.7812 0 14
      vertex -10.3265 -7.00034 14
      vertex -10.3265 -1.39966 14
    endloop
  endfacet
  facet normal 0 0 1
    outer loop
      vertex -10.3265 -7.00034 14
      vertex -10.7812 0 14
      vertex -10.7812 -8.4 14
    endloop
  endfacet
  facet normal 0 0 1
    outer loop
      vertex -6.47353 1.39966 14
      vertex -1.92647 1.39966 14
      vertex -6.47353 7.00034 14
    endloop
  endfacet
  facet normal 0 0 1
    outer loop
      vertex -1.92647 1.39966 14
      vertex -6.47353 1.39966 14
      vertex -6.01875 0 14
    endloop
  endfacet
  facet normal -0 0 1
    outer loop
      vertex -7.66415 6.1353 14
      vertex -6.47353 1.39966 14
      vertex -6.47353 7.00034 14
    endloop
  endfacet
  facet normal 0 0 1
    outer loop
      vertex -7.66415 6.1353 14
      vertex -7.66415 2.2647 14
      vertex -6.47353 1.39966 14
    endloop
  endfacet
  facet normal -0 0 1
    outer loop
      vertex -9.13585 6.1353 14
      vertex -7.66415 2.2647 14
      vertex -7.66415 6.1353 14
    endloop
  endfacet
  facet normal 0 0 1
    outer loop
      vertex -9.13585 6.1353 14
      vertex -9.13585 2.2647 14
      vertex -7.66415 2.2647 14
    endloop
  endfacet
  facet normal 0 0 1
    outer loop
      vertex -10.3265 7.00034 14
      vertex -9.13585 2.2647 14
      vertex -9.13585 6.1353 14
    endloop
  endfacet
  facet normal 0 0 1
    outer loop
      vertex -10.3265 7.00034 14
      vertex -10.3265 1.39966 14
      vertex -9.13585 2.2647 14
    endloop
  endfacet
  facet normal 0 0 1
    outer loop
      vertex -18.9203 9.11156 14
      vertex -10.3265 7.00034 14
      vertex -10.7812 8.4 14
    endloop
  endfacet
  facet normal 0 0 1
    outer loop
      vertex -10.3265 7.00034 14
      vertex -20.2432 5.58677 14
      vertex -10.3265 1.39966 14
    endloop
  endfacet
  facet normal 0 0 1
    outer loop
      vertex -1.92647 -7.00034 14
      vertex -6.01875 -8.4 14
      vertex -2.38125 -8.4 14
    endloop
  endfacet
  facet normal 0 0 1
    outer loop
      vertex -6.47353 -9.79966 14
      vertex -2.38125 -8.4 14
      vertex -6.01875 -8.4 14
    endloop
  endfacet
  facet normal 0 0 1
    outer loop
      vertex -2.38125 -8.4 14
      vertex -6.47353 -9.79966 14
      vertex -4.67294 -20.4735 14
    endloop
  endfacet
  facet normal -0 0 1
    outer loop
      vertex -7.66415 -10.6647 14
      vertex -4.67294 -20.4735 14
      vertex -6.47353 -9.79966 14
    endloop
  endfacet
  facet normal 0 0 1
    outer loop
      vertex -7.66415 -10.6647 14
      vertex -8.25353 -19.3101 14
      vertex -4.67294 -20.4735 14
    endloop
  endfacet
  facet normal 0 0 1
    outer loop
      vertex -11.5688 -17.526 14
      vertex -7.66415 -10.6647 14
      vertex -9.13585 -10.6647 14
    endloop
  endfacet
  facet normal 0 0 1
    outer loop
      vertex -11.5688 -17.526 14
      vertex -9.13585 -10.6647 14
      vertex -10.3265 -9.79966 14
    endloop
  endfacet
  facet normal 0 0 1
    outer loop
      vertex -11.5688 -17.526 14
      vertex -10.3265 -9.79966 14
      vertex -10.7812 -8.4 14
    endloop
  endfacet
  facet normal 0 0 1
    outer loop
      vertex -7.66415 -10.6647 14
      vertex -11.5688 -17.526 14
      vertex -8.25353 -19.3101 14
    endloop
  endfacet
  facet normal 0 0 1
    outer loop
      vertex -10.7812 0 14
      vertex -11.5688 -17.526 14
      vertex -10.7812 -8.4 14
    endloop
  endfacet
  facet normal -0 0 1
    outer loop
      vertex -18.9203 9.11156 14
      vertex -10.7812 8.4 14
      vertex -16.9894 12.3435 14
    endloop
  endfacet
  facet normal 0 0 1
    outer loop
      vertex -10.7812 0 14
      vertex -14.5123 -15.1787 14
      vertex -11.5688 -17.526 14
    endloop
  endfacet
  facet normal 0 0 1
    outer loop
      vertex -10.3265 7.00034 14
      vertex -18.9203 9.11156 14
      vertex -20.2432 5.58677 14
    endloop
  endfacet
  facet normal 0 0 1
    outer loop
      vertex -10.7812 0 14
      vertex -16.9894 -12.3435 14
      vertex -14.5123 -15.1787 14
    endloop
  endfacet
  facet normal -0 0 1
    outer loop
      vertex -20.9155 1.88242 14
      vertex -10.3265 1.39966 14
      vertex -20.2432 5.58677 14
    endloop
  endfacet
  facet normal 0 0 1
    outer loop
      vertex -10.7812 0 14
      vertex -18.9203 -9.11156 14
      vertex -16.9894 -12.3435 14
    endloop
  endfacet
  facet normal 0 0 1
    outer loop
      vertex -10.3265 1.39966 14
      vertex -20.9155 1.88242 14
      vertex -10.7812 0 14
    endloop
  endfacet
  facet normal 0 0 1
    outer loop
      vertex -10.7812 0 14
      vertex -20.2432 -5.58677 14
      vertex -18.9203 -9.11156 14
    endloop
  endfacet
  facet normal 0 0 1
    outer loop
      vertex -20.9155 -1.88242 14
      vertex -10.7812 0 14
      vertex -20.9155 1.88242 14
    endloop
  endfacet
  facet normal 0 0 1
    outer loop
      vertex -10.7812 0 14
      vertex -20.9155 -1.88242 14
      vertex -20.2432 -5.58677 14
    endloop
  endfacet
  facet normal 0 0 1
    outer loop
      vertex 1.92647 -7.00034 14
      vertex 6.47353 -7.00034 14
      vertex 1.92647 -1.39966 14
    endloop
  endfacet
  facet normal 0 0 1
    outer loop
      vertex 6.47353 -7.00034 14
      vertex 1.92647 -7.00034 14
      vertex 2.38125 -8.4 14
    endloop
  endfacet
  facet normal -0 0 1
    outer loop
      vertex 0.735846 -2.2647 14
      vertex 1.92647 -7.00034 14
      vertex 1.92647 -1.39966 14
    endloop
  endfacet
  facet normal 0 0 1
    outer loop
      vertex 0.735846 -2.2647 14
      vertex 0.735846 -6.1353 14
      vertex 1.92647 -7.00034 14
    endloop
  endfacet
  facet normal -0 0 1
    outer loop
      vertex -0.735846 -2.2647 14
      vertex 0.735846 -6.1353 14
      vertex 0.735846 -2.2647 14
    endloop
  endfacet
  facet normal 0 0 1
    outer loop
      vertex -0.735846 -2.2647 14
      vertex -0.735846 -6.1353 14
      vertex 0.735846 -6.1353 14
    endloop
  endfacet
  facet normal 0 0 1
    outer loop
      vertex -1.92647 -1.39966 14
      vertex -0.735846 -6.1353 14
      vertex -0.735846 -2.2647 14
    endloop
  endfacet
  facet normal 0 0 1
    outer loop
      vertex -1.92647 -1.39966 14
      vertex -1.92647 -7.00034 14
      vertex -0.735846 -6.1353 14
    endloop
  endfacet
  facet normal -0 0 1
    outer loop
      vertex -6.01875 0 14
      vertex -1.92647 -1.39966 14
      vertex -2.38125 0 14
    endloop
  endfacet
  facet normal 0 0 1
    outer loop
      vertex -6.47353 -1.39966 14
      vertex -1.92647 -1.39966 14
      vertex -6.01875 0 14
    endloop
  endfacet
  facet normal 0 0 1
    outer loop
      vertex 1.92647 1.39966 14
      vertex 6.47353 1.39966 14
      vertex 1.92647 7.00034 14
    endloop
  endfacet
  facet normal 0 0 1
    outer loop
      vertex 6.47353 1.39966 14
      vertex 1.92647 1.39966 14
      vertex 2.38125 0 14
    endloop
  endfacet
  facet normal -0 0 1
    outer loop
      vertex 0.735846 6.1353 14
      vertex 1.92647 1.39966 14
      vertex 1.92647 7.00034 14
    endloop
  endfacet
  facet normal 0 0 1
    outer loop
      vertex 0.735846 6.1353 14
      vertex 0.735846 2.2647 14
      vertex 1.92647 1.39966 14
    endloop
  endfacet
  facet normal -0 0 1
    outer loop
      vertex -0.735846 6.1353 14
      vertex 0.735846 2.2647 14
      vertex 0.735846 6.1353 14
    endloop
  endfacet
  facet normal 0 0 1
    outer loop
      vertex -0.735846 6.1353 14
      vertex -0.735846 2.2647 14
      vertex 0.735846 2.2647 14
    endloop
  endfacet
  facet normal 0 0 1
    outer loop
      vertex -1.92647 7.00034 14
      vertex -0.735846 2.2647 14
      vertex -0.735846 6.1353 14
    endloop
  endfacet
  facet normal 0 0 1
    outer loop
      vertex -1.92647 7.00034 14
      vertex -1.92647 1.39966 14
      vertex -0.735846 2.2647 14
    endloop
  endfacet
  facet normal -0 0 1
    outer loop
      vertex -6.01875 8.4 14
      vertex -1.92647 7.00034 14
      vertex -2.38125 8.4 14
    endloop
  endfacet
  facet normal 0 0 1
    outer loop
      vertex -6.47353 7.00034 14
      vertex -1.92647 7.00034 14
      vertex -6.01875 8.4 14
    endloop
  endfacet
  facet normal 0 0 1
    outer loop
      vertex 6.47353 -7.00034 14
      vertex 2.38125 -8.4 14
      vertex 6.01875 -8.4 14
    endloop
  endfacet
  facet normal 0 0 1
    outer loop
      vertex 1.92647 -9.79966 14
      vertex 6.01875 -8.4 14
      vertex 2.38125 -8.4 14
    endloop
  endfacet
  facet normal 0 0 1
    outer loop
      vertex 6.01875 -8.4 14
      vertex 1.92647 -9.79966 14
      vertex 2.8189 -20.8099 14
    endloop
  endfacet
  facet normal -0 0 1
    outer loop
      vertex 0.735846 -10.6647 14
      vertex 2.8189 -20.8099 14
      vertex 1.92647 -9.79966 14
    endloop
  endfacet
  facet normal 0 0 1
    outer loop
      vertex -0.94216 -20.9789 14
      vertex 0.735846 -10.6647 14
      vertex -0.735846 -10.6647 14
    endloop
  endfacet
  facet normal 0 0 1
    outer loop
      vertex 0.735846 -10.6647 14
      vertex -0.94216 -20.9789 14
      vertex 2.8189 -20.8099 14
    endloop
  endfacet
  facet normal 0 0 1
    outer loop
      vertex -4.67294 -20.4735 14
      vertex -0.735846 -10.6647 14
      vertex -1.92647 -9.79966 14
    endloop
  endfacet
  facet normal 0 0 1
    outer loop
      vertex -4.67294 -20.4735 14
      vertex -1.92647 -9.79966 14
      vertex -2.38125 -8.4 14
    endloop
  endfacet
  facet normal 0 0 1
    outer loop
      vertex -0.735846 -10.6647 14
      vertex -4.67294 -20.4735 14
      vertex -0.94216 -20.9789 14
    endloop
  endfacet
  facet normal 0 0 1
    outer loop
      vertex -1.92647 -1.39966 14
      vertex -6.47353 -1.39966 14
      vertex -1.92647 -7.00034 14
    endloop
  endfacet
  facet normal 0 0 1
    outer loop
      vertex -1.92647 1.39966 14
      vertex -6.01875 0 14
      vertex -2.38125 0 14
    endloop
  endfacet
  facet normal 0 0 1
    outer loop
      vertex -4.67294 20.4735 14
      vertex -6.47353 9.79966 14
      vertex -6.01875 8.4 14
    endloop
  endfacet
  facet normal 0 0 1
    outer loop
      vertex -4.67294 20.4735 14
      vertex -7.66415 10.6647 14
      vertex -6.47353 9.79966 14
    endloop
  endfacet
  facet normal -0 0 1
    outer loop
      vertex -8.25353 19.3101 14
      vertex -7.66415 10.6647 14
      vertex -4.67294 20.4735 14
    endloop
  endfacet
  facet normal -0 0 1
    outer loop
      vertex -11.5688 17.526 14
      vertex -7.66415 10.6647 14
      vertex -8.25353 19.3101 14
    endloop
  endfacet
  facet normal 0 0 1
    outer loop
      vertex -7.66415 10.6647 14
      vertex -11.5688 17.526 14
      vertex -9.13585 10.6647 14
    endloop
  endfacet
  facet normal -0 0 1
    outer loop
      vertex -14.5123 15.1787 14
      vertex -9.13585 10.6647 14
      vertex -11.5688 17.526 14
    endloop
  endfacet
  facet normal -0 0 1
    outer loop
      vertex -16.9894 12.3435 14
      vertex -10.3265 9.79966 14
      vertex -14.5123 15.1787 14
    endloop
  endfacet
  facet normal 0 0 1
    outer loop
      vertex -10.3265 9.79966 14
      vertex -16.9894 12.3435 14
      vertex -10.7812 8.4 14
    endloop
  endfacet
  facet normal 0 0 1
    outer loop
      vertex -9.13585 10.6647 14
      vertex -14.5123 15.1787 14
      vertex -10.3265 9.79966 14
    endloop
  endfacet
  facet normal -0 0 1
    outer loop
      vertex 10.3265 -7.00034 14
      vertex 19.6609 -7.37887 14
      vertex 10.3265 -1.39966 14
    endloop
  endfacet
  facet normal 0 0 1
    outer loop
      vertex 19.6609 -7.37887 14
      vertex 10.3265 -7.00034 14
      vertex 10.7812 -8.4 14
    endloop
  endfacet
  facet normal -0 0 1
    outer loop
      vertex 9.13585 -2.2647 14
      vertex 10.3265 -7.00034 14
      vertex 10.3265 -1.39966 14
    endloop
  endfacet
  facet normal 0 0 1
    outer loop
      vertex 9.13585 -2.2647 14
      vertex 9.13585 -6.1353 14
      vertex 10.3265 -7.00034 14
    endloop
  endfacet
  facet normal -0 0 1
    outer loop
      vertex 7.66415 -2.2647 14
      vertex 9.13585 -6.1353 14
      vertex 9.13585 -2.2647 14
    endloop
  endfacet
  facet normal 0 0 1
    outer loop
      vertex 7.66415 -2.2647 14
      vertex 7.66415 -6.1353 14
      vertex 9.13585 -6.1353 14
    endloop
  endfacet
  facet normal 0 0 1
    outer loop
      vertex 6.47353 -1.39966 14
      vertex 7.66415 -6.1353 14
      vertex 7.66415 -2.2647 14
    endloop
  endfacet
  facet normal 0 0 1
    outer loop
      vertex 6.47353 -1.39966 14
      vertex 6.47353 -7.00034 14
      vertex 7.66415 -6.1353 14
    endloop
  endfacet
  facet normal -0 0 1
    outer loop
      vertex 2.38125 0 14
      vertex 6.47353 -1.39966 14
      vertex 6.01875 0 14
    endloop
  endfacet
  facet normal 0 0 1
    outer loop
      vertex 1.92647 -1.39966 14
      vertex 6.47353 -1.39966 14
      vertex 2.38125 0 14
    endloop
  endfacet
  facet normal 0 0 1
    outer loop
      vertex 10.3265 1.39966 14
      vertex 20.6625 3.74969 14
      vertex 10.3265 7.00034 14
    endloop
  endfacet
  facet normal 0 0 1
    outer loop
      vertex 20.6625 3.74969 14
      vertex 10.3265 1.39966 14
      vertex 10.7812 0 14
    endloop
  endfacet
  facet normal -0 0 1
    outer loop
      vertex 9.13585 6.1353 14
      vertex 10.3265 1.39966 14
      vertex 10.3265 7.00034 14
    endloop
  endfacet
  facet normal 0 0 1
    outer loop
      vertex 9.13585 6.1353 14
      vertex 9.13585 2.2647 14
      vertex 10.3265 1.39966 14
    endloop
  endfacet
  facet normal -0 0 1
    outer loop
      vertex 7.66415 6.1353 14
      vertex 9.13585 2.2647 14
      vertex 9.13585 6.1353 14
    endloop
  endfacet
  facet normal 0 0 1
    outer loop
      vertex 7.66415 6.1353 14
      vertex 7.66415 2.2647 14
      vertex 9.13585 2.2647 14
    endloop
  endfacet
  facet normal 0 0 1
    outer loop
      vertex 6.47353 7.00034 14
      vertex 7.66415 2.2647 14
      vertex 7.66415 6.1353 14
    endloop
  endfacet
  facet normal 0 0 1
    outer loop
      vertex 6.47353 7.00034 14
      vertex 6.47353 1.39966 14
      vertex 7.66415 2.2647 14
    endloop
  endfacet
  facet normal -0 0 1
    outer loop
      vertex 2.38125 8.4 14
      vertex 6.47353 7.00034 14
      vertex 6.01875 8.4 14
    endloop
  endfacet
  facet normal 0 0 1
    outer loop
      vertex 1.92647 7.00034 14
      vertex 6.47353 7.00034 14
      vertex 2.38125 8.4 14
    endloop
  endfacet
  facet normal 0 0 1
    outer loop
      vertex 10.7812 0 14
      vertex 21 0 14
      vertex 20.6625 3.74969 14
    endloop
  endfacet
  facet normal -0 0 1
    outer loop
      vertex 10.3265 7.00034 14
      vertex 20.6625 3.74969 14
      vertex 19.6609 7.37887 14
    endloop
  endfacet
  facet normal 0 0 1
    outer loop
      vertex 21 0 14
      vertex 10.7812 0 14
      vertex 20.6625 -3.74969 14
    endloop
  endfacet
  facet normal -0 0 1
    outer loop
      vertex 10.7812 8.4 14
      vertex 19.6609 7.37887 14
      vertex 18.0274 10.7709 14
    endloop
  endfacet
  facet normal -0 0 1
    outer loop
      vertex 10.3265 -1.39966 14
      vertex 20.6625 -3.74969 14
      vertex 10.7812 0 14
    endloop
  endfacet
  facet normal 0 0 1
    outer loop
      vertex 10.7812 8.4 14
      vertex 18.0274 10.7709 14
      vertex 15.8145 13.8167 14
    endloop
  endfacet
  facet normal 0 0 1
    outer loop
      vertex 20.6625 -3.74969 14
      vertex 10.3265 -1.39966 14
      vertex 19.6609 -7.37887 14
    endloop
  endfacet
  facet normal 0 0 1
    outer loop
      vertex 10.3265 9.79966 14
      vertex 15.8145 13.8167 14
      vertex 13.0933 16.4185 14
    endloop
  endfacet
  facet normal 0 0 1
    outer loop
      vertex 19.6609 -7.37887 14
      vertex 10.7812 -8.4 14
      vertex 18.0274 -10.7709 14
    endloop
  endfacet
  facet normal 0 0 1
    outer loop
      vertex 10.3265 7.00034 14
      vertex 19.6609 7.37887 14
      vertex 10.7812 8.4 14
    endloop
  endfacet
  facet normal 0 0 1
    outer loop
      vertex 15.8145 13.8167 14
      vertex 10.3265 9.79966 14
      vertex 10.7812 8.4 14
    endloop
  endfacet
  facet normal 0 0 1
    outer loop
      vertex 9.13585 10.6647 14
      vertex 13.0933 16.4185 14
      vertex 9.95124 18.4925 14
    endloop
  endfacet
  facet normal 0 0 1
    outer loop
      vertex 13.0933 16.4185 14
      vertex 9.13585 10.6647 14
      vertex 10.3265 9.79966 14
    endloop
  endfacet
  facet normal 0 0 1
    outer loop
      vertex 9.95124 18.4925 14
      vertex 7.66415 10.6647 14
      vertex 9.13585 10.6647 14
    endloop
  endfacet
  facet normal 0 0 1
    outer loop
      vertex 6.48936 19.9722 14
      vertex 7.66415 10.6647 14
      vertex 9.95124 18.4925 14
    endloop
  endfacet
  facet normal 0 0 1
    outer loop
      vertex 1.92647 9.79966 14
      vertex 7.66415 10.6647 14
      vertex 6.48936 19.9722 14
    endloop
  endfacet
  facet normal 0 0 1
    outer loop
      vertex 7.66415 10.6647 14
      vertex 1.92647 9.79966 14
      vertex 6.47353 9.79966 14
    endloop
  endfacet
  facet normal 0 0 1
    outer loop
      vertex 6.47353 7.00034 14
      vertex 1.92647 7.00034 14
      vertex 6.47353 1.39966 14
    endloop
  endfacet
  facet normal 0 0 1
    outer loop
      vertex 6.47353 9.79966 14
      vertex 1.92647 9.79966 14
      vertex 6.01875 8.4 14
    endloop
  endfacet
  facet normal 0 0 1
    outer loop
      vertex 1.92647 9.79966 14
      vertex 6.48936 19.9722 14
      vertex 2.8189 20.8099 14
    endloop
  endfacet
  facet normal 0 0 1
    outer loop
      vertex 18.0274 -10.7709 14
      vertex 10.7812 -8.4 14
      vertex 15.8145 -13.8167 14
    endloop
  endfacet
  facet normal -0 0 1
    outer loop
      vertex 10.3265 -9.79966 14
      vertex 15.8145 -13.8167 14
      vertex 10.7812 -8.4 14
    endloop
  endfacet
  facet normal 0 0 1
    outer loop
      vertex 15.8145 -13.8167 14
      vertex 10.3265 -9.79966 14
      vertex 13.0933 -16.4185 14
    endloop
  endfacet
  facet normal -0 0 1
    outer loop
      vertex 9.13585 -10.6647 14
      vertex 13.0933 -16.4185 14
      vertex 10.3265 -9.79966 14
    endloop
  endfacet
  facet normal 0 0 1
    outer loop
      vertex 13.0933 -16.4185 14
      vertex 9.13585 -10.6647 14
      vertex 9.95124 -18.4925 14
    endloop
  endfacet
  facet normal -0 0 1
    outer loop
      vertex 7.66415 -10.6647 14
      vertex 9.95124 -18.4925 14
      vertex 9.13585 -10.6647 14
    endloop
  endfacet
  facet normal 0 0 1
    outer loop
      vertex 7.66415 -10.6647 14
      vertex 6.48936 -19.9722 14
      vertex 9.95124 -18.4925 14
    endloop
  endfacet
  facet normal 0 0 1
    outer loop
      vertex 6.47353 -9.79966 14
      vertex 6.48936 -19.9722 14
      vertex 7.66415 -10.6647 14
    endloop
  endfacet
  facet normal 0 0 1
    outer loop
      vertex 2.8189 -20.8099 14
      vertex 6.47353 -9.79966 14
      vertex 6.01875 -8.4 14
    endloop
  endfacet
  facet normal 0 0 1
    outer loop
      vertex 6.47353 1.39966 14
      vertex 2.38125 0 14
      vertex 6.01875 0 14
    endloop
  endfacet
  facet normal 0 0 1
    outer loop
      vertex 6.47353 -1.39966 14
      vertex 1.92647 -1.39966 14
      vertex 6.47353 -7.00034 14
    endloop
  endfacet
  facet normal 0 0 1
    outer loop
      vertex 6.47353 -9.79966 14
      vertex 2.8189 -20.8099 14
      vertex 6.48936 -19.9722 14
    endloop
  endfacet
  facet normal 0 0 1
    outer loop
      vertex 6.01875 8.4 14
      vertex 1.92647 9.79966 14
      vertex 2.38125 8.4 14
    endloop
  endfacet
  facet normal 0 0 1
    outer loop
      vertex 2.8189 20.8099 14
      vertex 0.735846 10.6647 14
      vertex 1.92647 9.79966 14
    endloop
  endfacet
  facet normal 0 0 1
    outer loop
      vertex -0.94216 20.9789 14
      vertex 0.735846 10.6647 14
      vertex 2.8189 20.8099 14
    endloop
  endfacet
  facet normal 0 0 1
    outer loop
      vertex 0.735846 10.6647 14
      vertex -0.94216 20.9789 14
      vertex -0.735846 10.6647 14
    endloop
  endfacet
  facet normal -0 0 1
    outer loop
      vertex -4.67294 20.4735 14
      vertex -0.735846 10.6647 14
      vertex -0.94216 20.9789 14
    endloop
  endfacet
  facet normal 0 0 1
    outer loop
      vertex -0.735846 10.6647 14
      vertex -4.67294 20.4735 14
      vertex -1.92647 9.79966 14
    endloop
  endfacet
  facet normal 0 0 1
    outer loop
      vertex -1.92647 9.79966 14
      vertex -6.01875 8.4 14
      vertex -2.38125 8.4 14
    endloop
  endfacet
  facet normal 0 0 1
    outer loop
      vertex -1.92647 7.00034 14
      vertex -6.47353 7.00034 14
      vertex -1.92647 1.39966 14
    endloop
  endfacet
  facet normal 0 0 1
    outer loop
      vertex -6.01875 8.4 14
      vertex -1.92647 9.79966 14
      vertex -4.67294 20.4735 14
    endloop
  endfacet
  facet normal -0.62349 0.781832 0
    outer loop
      vertex -11.5688 17.526 0
      vertex -14.5123 15.1787 14
      vertex -11.5688 17.526 14
    endloop
  endfacet
  facet normal -0.62349 0.781832 0
    outer loop
      vertex -14.5123 15.1787 14
      vertex -11.5688 17.526 0
      vertex -14.5123 15.1787 0
    endloop
  endfacet
  facet normal -0.309017 0.951057 0
    outer loop
      vertex -4.67294 20.4735 0
      vertex -8.25353 19.3101 14
      vertex -4.67294 20.4735 14
    endloop
  endfacet
  facet normal -0.309017 0.951057 0
    outer loop
      vertex -8.25353 19.3101 14
      vertex -4.67294 20.4735 0
      vertex -8.25353 19.3101 0
    endloop
  endfacet
  facet normal 0.995974 -0.0896393 0
    outer loop
      vertex 20.6625 -3.74969 14
      vertex 21 0 0
      vertex 21 0 14
    endloop
  endfacet
  facet normal 0.995974 -0.0896393 0
    outer loop
      vertex 21 0 0
      vertex 20.6625 -3.74969 14
      vertex 20.6625 -3.74969 0
    endloop
  endfacet
  facet normal 0.222521 -0.974928 0
    outer loop
      vertex 2.8189 -20.8099 0
      vertex 6.48936 -19.9722 14
      vertex 2.8189 -20.8099 14
    endloop
  endfacet
  facet normal 0.222521 -0.974928 0
    outer loop
      vertex 6.48936 -19.9722 14
      vertex 2.8189 -20.8099 0
      vertex 6.48936 -19.9722 0
    endloop
  endfacet
  facet normal -0.473869 -0.880595 0
    outer loop
      vertex -11.5688 -17.526 0
      vertex -8.25353 -19.3101 14
      vertex -11.5688 -17.526 14
    endloop
  endfacet
  facet normal -0.473869 -0.880595 -0
    outer loop
      vertex -8.25353 -19.3101 14
      vertex -11.5688 -17.526 0
      vertex -8.25353 -19.3101 0
    endloop
  endfacet
  facet normal -0.134233 -0.99095 0
    outer loop
      vertex -4.67294 -20.4735 0
      vertex -0.94216 -20.9789 14
      vertex -4.67294 -20.4735 14
    endloop
  endfacet
  facet normal -0.134233 -0.99095 -0
    outer loop
      vertex -0.94216 -20.9789 14
      vertex -4.67294 -20.4735 0
      vertex -0.94216 -20.9789 0
    endloop
  endfacet
  facet normal -0.753071 -0.657939 0
    outer loop
      vertex -14.5123 -15.1787 0
      vertex -16.9894 -12.3435 14
      vertex -16.9894 -12.3435 0
    endloop
  endfacet
  facet normal -0.753071 -0.657939 0
    outer loop
      vertex -16.9894 -12.3435 14
      vertex -14.5123 -15.1787 0
      vertex -14.5123 -15.1787 14
    endloop
  endfacet
  facet normal -0.62349 -0.781832 0
    outer loop
      vertex -14.5123 -15.1787 0
      vertex -11.5688 -17.526 14
      vertex -14.5123 -15.1787 14
    endloop
  endfacet
  facet normal -0.62349 -0.781832 -0
    outer loop
      vertex -11.5688 -17.526 14
      vertex -14.5123 -15.1787 0
      vertex -11.5688 -17.526 0
    endloop
  endfacet
  facet normal 0 0 -1
    outer loop
      vertex 11.83 0 0
      vertex 21 0 0
      vertex 20.6625 -3.74969 0
    endloop
  endfacet
  facet normal 0 0 -1
    outer loop
      vertex 11.251 -3.65567 0
      vertex 20.6625 -3.74969 0
      vertex 19.6609 -7.37887 0
    endloop
  endfacet
  facet normal 0 0 -1
    outer loop
      vertex 21 0 0
      vertex 11.83 0 0
      vertex 20.6625 3.74969 0
    endloop
  endfacet
  facet normal 0 0 -1
    outer loop
      vertex 11.251 -3.65567 0
      vertex 19.6609 -7.37887 0
      vertex 18.0274 -10.7709 0
    endloop
  endfacet
  facet normal 0 0 -1
    outer loop
      vertex 11.251 3.65567 0
      vertex 20.6625 3.74969 0
      vertex 11.83 0 0
    endloop
  endfacet
  facet normal 0 0 -1
    outer loop
      vertex 9.57067 -6.9535 0
      vertex 18.0274 -10.7709 0
      vertex 15.8145 -13.8167 0
    endloop
  endfacet
  facet normal -0 0 -1
    outer loop
      vertex 20.6625 3.74969 0
      vertex 11.251 3.65567 0
      vertex 19.6609 7.37887 0
    endloop
  endfacet
  facet normal 0 0 -1
    outer loop
      vertex 6.9535 -9.57067 0
      vertex 15.8145 -13.8167 0
      vertex 13.0933 -16.4185 0
    endloop
  endfacet
  facet normal -0 0 -1
    outer loop
      vertex 19.6609 7.37887 0
      vertex 11.251 3.65567 0
      vertex 18.0274 10.7709 0
    endloop
  endfacet
  facet normal 0 0 -1
    outer loop
      vertex 9.57067 6.9535 0
      vertex 18.0274 10.7709 0
      vertex 11.251 3.65567 0
    endloop
  endfacet
  facet normal 0 0 -1
    outer loop
      vertex 20.6625 -3.74969 0
      vertex 11.251 -3.65567 0
      vertex 11.83 0 0
    endloop
  endfacet
  facet normal 0 0 -1
    outer loop
      vertex 6.9535 -9.57067 0
      vertex 13.0933 -16.4185 0
      vertex 9.95124 -18.4925 0
    endloop
  endfacet
  facet normal 0 0 -1
    outer loop
      vertex 18.0274 -10.7709 0
      vertex 9.57067 -6.9535 0
      vertex 11.251 -3.65567 0
    endloop
  endfacet
  facet normal 0 0 -1
    outer loop
      vertex 15.8145 -13.8167 0
      vertex 6.9535 -9.57067 0
      vertex 9.57067 -6.9535 0
    endloop
  endfacet
  facet normal 0 0 -1
    outer loop
      vertex 3.65567 -11.251 0
      vertex 9.95124 -18.4925 0
      vertex 6.48936 -19.9722 0
    endloop
  endfacet
  facet normal 0 0 -1
    outer loop
      vertex 9.95124 -18.4925 0
      vertex 3.65567 -11.251 0
      vertex 6.9535 -9.57067 0
    endloop
  endfacet
  facet normal 0 0 -1
    outer loop
      vertex 2.8189 -20.8099 0
      vertex 3.65567 -11.251 0
      vertex 6.48936 -19.9722 0
    endloop
  endfacet
  facet normal 0 0 -1
    outer loop
      vertex 2.8189 -20.8099 0
      vertex 0 -11.83 0
      vertex 3.65567 -11.251 0
    endloop
  endfacet
  facet normal 0 0 -1
    outer loop
      vertex -0.94216 -20.9789 0
      vertex 0 -11.83 0
      vertex 2.8189 -20.8099 0
    endloop
  endfacet
  facet normal 0 0 -1
    outer loop
      vertex -4.67294 -20.4735 0
      vertex 0 -11.83 0
      vertex -0.94216 -20.9789 0
    endloop
  endfacet
  facet normal -0 0 -1
    outer loop
      vertex 0 -11.83 0
      vertex -4.67294 -20.4735 0
      vertex -3.65567 -11.251 0
    endloop
  endfacet
  facet normal 0 0 -1
    outer loop
      vertex -8.25353 -19.3101 0
      vertex -3.65567 -11.251 0
      vertex -4.67294 -20.4735 0
    endloop
  endfacet
  facet normal -0 0 -1
    outer loop
      vertex -3.65567 -11.251 0
      vertex -8.25353 -19.3101 0
      vertex -6.9535 -9.57067 0
    endloop
  endfacet
  facet normal 0 0 -1
    outer loop
      vertex -11.5688 -17.526 0
      vertex -6.9535 -9.57067 0
      vertex -8.25353 -19.3101 0
    endloop
  endfacet
  facet normal 0 0 -1
    outer loop
      vertex -14.5123 -15.1787 0
      vertex -6.9535 -9.57067 0
      vertex -11.5688 -17.526 0
    endloop
  endfacet
  facet normal -0 0 -1
    outer loop
      vertex -6.9535 -9.57067 0
      vertex -14.5123 -15.1787 0
      vertex -9.57067 -6.9535 0
    endloop
  endfacet
  facet normal 0 0 -1
    outer loop
      vertex -16.9894 -12.3435 0
      vertex -9.57067 -6.9535 0
      vertex -14.5123 -15.1787 0
    endloop
  endfacet
  facet normal 0 0 -1
    outer loop
      vertex -18.9203 -9.11156 0
      vertex -9.57067 -6.9535 0
      vertex -16.9894 -12.3435 0
    endloop
  endfacet
  facet normal -0 0 -1
    outer loop
      vertex 18.0274 10.7709 0
      vertex 9.57067 6.9535 0
      vertex 15.8145 13.8167 0
    endloop
  endfacet
  facet normal 0 0 -1
    outer loop
      vertex 6.9535 9.57067 0
      vertex 15.8145 13.8167 0
      vertex 9.57067 6.9535 0
    endloop
  endfacet
  facet normal -0 0 -1
    outer loop
      vertex 15.8145 13.8167 0
      vertex 6.9535 9.57067 0
      vertex 13.0933 16.4185 0
    endloop
  endfacet
  facet normal -0 0 -1
    outer loop
      vertex 13.0933 16.4185 0
      vertex 6.9535 9.57067 0
      vertex 9.95124 18.4925 0
    endloop
  endfacet
  facet normal 0 0 -1
    outer loop
      vertex 3.65567 11.251 0
      vertex 9.95124 18.4925 0
      vertex 6.9535 9.57067 0
    endloop
  endfacet
  facet normal -0 0 -1
    outer loop
      vertex 9.95124 18.4925 0
      vertex 3.65567 11.251 0
      vertex 6.48936 19.9722 0
    endloop
  endfacet
  facet normal 0 0 -1
    outer loop
      vertex 3.65567 11.251 0
      vertex 2.8189 20.8099 0
      vertex 6.48936 19.9722 0
    endloop
  endfacet
  facet normal 0 0 -1
    outer loop
      vertex 0 11.83 0
      vertex 2.8189 20.8099 0
      vertex 3.65567 11.251 0
    endloop
  endfacet
  facet normal 0 0 -1
    outer loop
      vertex 0 11.83 0
      vertex -0.94216 20.9789 0
      vertex 2.8189 20.8099 0
    endloop
  endfacet
  facet normal 0 0 -1
    outer loop
      vertex -4.67294 20.4735 0
      vertex 0 11.83 0
      vertex -3.65567 11.251 0
    endloop
  endfacet
  facet normal 0 0 -1
    outer loop
      vertex 0 11.83 0
      vertex -4.67294 20.4735 0
      vertex -0.94216 20.9789 0
    endloop
  endfacet
  facet normal 0 0 -1
    outer loop
      vertex -8.25353 19.3101 0
      vertex -3.65567 11.251 0
      vertex -6.9535 9.57067 0
    endloop
  endfacet
  facet normal 0 0 -1
    outer loop
      vertex -3.65567 11.251 0
      vertex -8.25353 19.3101 0
      vertex -4.67294 20.4735 0
    endloop
  endfacet
  facet normal 0 0 -1
    outer loop
      vertex -14.5123 15.1787 0
      vertex -6.9535 9.57067 0
      vertex -9.57067 6.9535 0
    endloop
  endfacet
  facet normal 0 0 -1
    outer loop
      vertex -18.9203 9.11156 0
      vertex -9.57067 6.9535 0
      vertex -11.251 3.65567 0
    endloop
  endfacet
  facet normal 0 0 -1
    outer loop
      vertex -6.9535 9.57067 0
      vertex -11.5688 17.526 0
      vertex -8.25353 19.3101 0
    endloop
  endfacet
  facet normal 0 0 -1
    outer loop
      vertex -20.9155 1.88242 0
      vertex -11.251 3.65567 0
      vertex -11.83 0 0
    endloop
  endfacet
  facet normal -0 0 -1
    outer loop
      vertex -9.57067 -6.9535 0
      vertex -18.9203 -9.11156 0
      vertex -11.251 -3.65567 0
    endloop
  endfacet
  facet normal 0 0 -1
    outer loop
      vertex -6.9535 9.57067 0
      vertex -14.5123 15.1787 0
      vertex -11.5688 17.526 0
    endloop
  endfacet
  facet normal 0 0 -1
    outer loop
      vertex -20.2432 -5.58677 0
      vertex -11.251 -3.65567 0
      vertex -18.9203 -9.11156 0
    endloop
  endfacet
  facet normal 0 0 -1
    outer loop
      vertex -9.57067 6.9535 0
      vertex -16.9894 12.3435 0
      vertex -14.5123 15.1787 0
    endloop
  endfacet
  facet normal 0 0 -1
    outer loop
      vertex -20.9155 -1.88242 0
      vertex -11.251 -3.65567 0
      vertex -20.2432 -5.58677 0
    endloop
  endfacet
  facet normal 0 0 -1
    outer loop
      vertex -9.57067 6.9535 0
      vertex -18.9203 9.11156 0
      vertex -16.9894 12.3435 0
    endloop
  endfacet
  facet normal 0 0 -1
    outer loop
      vertex -11.251 -3.65567 0
      vertex -20.9155 -1.88242 0
      vertex -11.83 0 0
    endloop
  endfacet
  facet normal 0 0 -1
    outer loop
      vertex -11.251 3.65567 0
      vertex -20.2432 5.58677 0
      vertex -18.9203 9.11156 0
    endloop
  endfacet
  facet normal 0 0 -1
    outer loop
      vertex -20.9155 1.88242 0
      vertex -11.83 0 0
      vertex -20.9155 -1.88242 0
    endloop
  endfacet
  facet normal -0 0 -1
    outer loop
      vertex -11.251 3.65567 0
      vertex -20.9155 1.88242 0
      vertex -20.2432 5.58677 0
    endloop
  endfacet
  facet normal 0.393025 -0.919528 0
    outer loop
      vertex 6.48936 -19.9722 0
      vertex 9.95124 -18.4925 14
      vertex 6.48936 -19.9722 14
    endloop
  endfacet
  facet normal 0.393025 -0.919528 0
    outer loop
      vertex 9.95124 -18.4925 14
      vertex 6.48936 -19.9722 0
      vertex 9.95124 -18.4925 0
    endloop
  endfacet
  facet normal 0.550897 -0.834573 0
    outer loop
      vertex 9.95124 -18.4925 0
      vertex 13.0933 -16.4185 14
      vertex 9.95124 -18.4925 14
    endloop
  endfacet
  facet normal 0.550897 -0.834573 0
    outer loop
      vertex 13.0933 -16.4185 14
      vertex 9.95124 -18.4925 0
      vertex 13.0933 -16.4185 0
    endloop
  endfacet
  facet normal 0.963963 -0.266037 0
    outer loop
      vertex 19.6609 -7.37887 14
      vertex 20.6625 -3.74969 0
      vertex 20.6625 -3.74969 14
    endloop
  endfacet
  facet normal 0.963963 -0.266037 0
    outer loop
      vertex 20.6625 -3.74969 0
      vertex 19.6609 -7.37887 14
      vertex 19.6609 -7.37887 0
    endloop
  endfacet
  facet normal 0.900969 -0.433884 0
    outer loop
      vertex 18.0274 -10.7709 14
      vertex 19.6609 -7.37887 0
      vertex 19.6609 -7.37887 14
    endloop
  endfacet
  facet normal 0.900969 -0.433884 0
    outer loop
      vertex 19.6609 -7.37887 0
      vertex 18.0274 -10.7709 14
      vertex 18.0274 -10.7709 0
    endloop
  endfacet
  facet normal -0.309017 -0.951057 0
    outer loop
      vertex -8.25353 -19.3101 0
      vertex -4.67294 -20.4735 14
      vertex -8.25353 -19.3101 14
    endloop
  endfacet
  facet normal -0.309017 -0.951057 -0
    outer loop
      vertex -4.67294 -20.4735 14
      vertex -8.25353 -19.3101 0
      vertex -4.67294 -20.4735 0
    endloop
  endfacet
  facet normal -0.858449 -0.512899 0
    outer loop
      vertex -16.9894 -12.3435 0
      vertex -18.9203 -9.11156 14
      vertex -18.9203 -9.11156 0
    endloop
  endfacet
  facet normal -0.858449 -0.512899 0
    outer loop
      vertex -18.9203 -9.11156 14
      vertex -16.9894 -12.3435 0
      vertex -16.9894 -12.3435 14
    endloop
  endfacet
  facet normal -0.98393 -0.178557 0
    outer loop
      vertex -20.2432 -5.58677 0
      vertex -20.9155 -1.88242 14
      vertex -20.9155 -1.88242 0
    endloop
  endfacet
  facet normal -0.98393 -0.178557 0
    outer loop
      vertex -20.9155 -1.88242 14
      vertex -20.2432 -5.58677 0
      vertex -20.2432 -5.58677 14
    endloop
  endfacet
  facet normal 0.691062 0.722795 -0
    outer loop
      vertex 15.8145 13.8167 0
      vertex 13.0933 16.4185 14
      vertex 15.8145 13.8167 14
    endloop
  endfacet
  facet normal 0.691062 0.722795 0
    outer loop
      vertex 13.0933 16.4185 14
      vertex 15.8145 13.8167 0
      vertex 13.0933 16.4185 0
    endloop
  endfacet
  facet normal 0.691062 -0.722795 0
    outer loop
      vertex 13.0933 -16.4185 0
      vertex 15.8145 -13.8167 14
      vertex 13.0933 -16.4185 14
    endloop
  endfacet
  facet normal 0.691062 -0.722795 0
    outer loop
      vertex 15.8145 -13.8167 14
      vertex 13.0933 -16.4185 0
      vertex 15.8145 -13.8167 0
    endloop
  endfacet
  facet normal -0.936235 -0.351375 0
    outer loop
      vertex -18.9203 -9.11156 0
      vertex -20.2432 -5.58677 14
      vertex -20.2432 -5.58677 0
    endloop
  endfacet
  facet normal -0.936235 -0.351375 0
    outer loop
      vertex -20.2432 -5.58677 14
      vertex -18.9203 -9.11156 0
      vertex -18.9203 -9.11156 14
    endloop
  endfacet
  facet normal 0.987688 0.156435 0
    outer loop
      vertex 11.83 0 0
      vertex 11.251 3.65567 -14
      vertex 11.251 3.65567 0
    endloop
  endfacet
  facet normal 0.987688 0.156435 0
    outer loop
      vertex 11.251 3.65567 -14
      vertex 11.83 0 0
      vertex 11.83 0 -14
    endloop
  endfacet
  facet normal -0.987688 0.156435 0
    outer loop
      vertex -11.83 0 -14
      vertex -11.251 3.65567 0
      vertex -11.251 3.65567 -14
    endloop
  endfacet
  facet normal -0.987688 0.156435 0
    outer loop
      vertex -11.251 3.65567 0
      vertex -11.83 0 -14
      vertex -11.83 0 0
    endloop
  endfacet
  facet normal 0.156435 0.987688 -0
    outer loop
      vertex 3.65567 11.251 -14
      vertex 0 11.83 0
      vertex 3.65567 11.251 0
    endloop
  endfacet
  facet normal 0.156435 0.987688 0
    outer loop
      vertex 0 11.83 0
      vertex 3.65567 11.251 -14
      vertex 0 11.83 -14
    endloop
  endfacet
  facet normal -0.156435 -0.987688 0
    outer loop
      vertex -3.65567 -11.251 -14
      vertex 0 -11.83 0
      vertex -3.65567 -11.251 0
    endloop
  endfacet
  facet normal -0.156435 -0.987688 -0
    outer loop
      vertex 0 -11.83 0
      vertex -3.65567 -11.251 -14
      vertex 0 -11.83 -14
    endloop
  endfacet
  facet normal 0 0 -1
    outer loop
      vertex 11.251 -3.65567 -14
      vertex 11.251 3.65567 -14
      vertex 11.83 0 -14
    endloop
  endfacet
  facet normal 0 0 -1
    outer loop
      vertex 9.57067 -6.9535 -14
      vertex 11.251 3.65567 -14
      vertex 11.251 -3.65567 -14
    endloop
  endfacet
  facet normal 0 0 -1
    outer loop
      vertex 9.57067 -6.9535 -14
      vertex 9.57067 6.9535 -14
      vertex 11.251 3.65567 -14
    endloop
  endfacet
  facet normal 0 0 -1
    outer loop
      vertex 6.9535 -9.57067 -14
      vertex 9.57067 6.9535 -14
      vertex 9.57067 -6.9535 -14
    endloop
  endfacet
  facet normal 0 0 -1
    outer loop
      vertex 6.9535 -9.57067 -14
      vertex 6.9535 9.57067 -14
      vertex 9.57067 6.9535 -14
    endloop
  endfacet
  facet normal 0 0 -1
    outer loop
      vertex 3.65567 -11.251 -14
      vertex 6.9535 9.57067 -14
      vertex 6.9535 -9.57067 -14
    endloop
  endfacet
  facet normal 0 0 -1
    outer loop
      vertex 3.65567 -11.251 -14
      vertex 3.65567 11.251 -14
      vertex 6.9535 9.57067 -14
    endloop
  endfacet
  facet normal 0 0 -1
    outer loop
      vertex 0 -11.83 -14
      vertex 3.65567 11.251 -14
      vertex 3.65567 -11.251 -14
    endloop
  endfacet
  facet normal 0 0 -1
    outer loop
      vertex 0 -11.83 -14
      vertex 0 11.83 -14
      vertex 3.65567 11.251 -14
    endloop
  endfacet
  facet normal 0 0 -1
    outer loop
      vertex -3.65567 -11.251 -14
      vertex 0 11.83 -14
      vertex 0 -11.83 -14
    endloop
  endfacet
  facet normal 0 0 -1
    outer loop
      vertex -3.65567 -11.251 -14
      vertex -3.65567 11.251 -14
      vertex 0 11.83 -14
    endloop
  endfacet
  facet normal 0 0 -1
    outer loop
      vertex -6.9535 -9.57067 -14
      vertex -3.65567 11.251 -14
      vertex -3.65567 -11.251 -14
    endloop
  endfacet
  facet normal 0 0 -1
    outer loop
      vertex -6.9535 -9.57067 -14
      vertex -6.9535 9.57067 -14
      vertex -3.65567 11.251 -14
    endloop
  endfacet
  facet normal 0 0 -1
    outer loop
      vertex -9.57067 -6.9535 -14
      vertex -6.9535 9.57067 -14
      vertex -6.9535 -9.57067 -14
    endloop
  endfacet
  facet normal 0 0 -1
    outer loop
      vertex -9.57067 -6.9535 -14
      vertex -9.57067 6.9535 -14
      vertex -6.9535 9.57067 -14
    endloop
  endfacet
  facet normal 0 0 -1
    outer loop
      vertex -11.251 -3.65567 -14
      vertex -9.57067 6.9535 -14
      vertex -9.57067 -6.9535 -14
    endloop
  endfacet
  facet normal 0 0 -1
    outer loop
      vertex -11.251 -3.65567 -14
      vertex -11.251 3.65567 -14
      vertex -9.57067 6.9535 -14
    endloop
  endfacet
  facet normal 0 -0 -1
    outer loop
      vertex -11.251 3.65567 -14
      vertex -11.251 -3.65567 -14
      vertex -11.83 0 -14
    endloop
  endfacet
  facet normal 0.707107 0.707107 0
    outer loop
      vertex 9.57067 6.9535 0
      vertex 6.9535 9.57067 -14
      vertex 6.9535 9.57067 0
    endloop
  endfacet
  facet normal 0.707107 0.707107 0
    outer loop
      vertex 6.9535 9.57067 -14
      vertex 9.57067 6.9535 0
      vertex 9.57067 6.9535 -14
    endloop
  endfacet
  facet normal 0.891006 0.453991 0
    outer loop
      vertex 11.251 3.65567 0
      vertex 9.57067 6.9535 -14
      vertex 9.57067 6.9535 0
    endloop
  endfacet
  facet normal 0.891006 0.453991 0
    outer loop
      vertex 9.57067 6.9535 -14
      vertex 11.251 3.65567 0
      vertex 11.251 3.65567 -14
    endloop
  endfacet
  facet normal 0.453991 0.891006 -0
    outer loop
      vertex 6.9535 9.57067 -14
      vertex 3.65567 11.251 0
      vertex 6.9535 9.57067 0
    endloop
  endfacet
  facet normal 0.453991 0.891006 0
    outer loop
      vertex 3.65567 11.251 0
      vertex 6.9535 9.57067 -14
      vertex 3.65567 11.251 -14
    endloop
  endfacet
  facet normal -0.453991 0.891006 0
    outer loop
      vertex -3.65567 11.251 -14
      vertex -6.9535 9.57067 0
      vertex -3.65567 11.251 0
    endloop
  endfacet
  facet normal -0.453991 0.891006 0
    outer loop
      vertex -6.9535 9.57067 0
      vertex -3.65567 11.251 -14
      vertex -6.9535 9.57067 -14
    endloop
  endfacet
  facet normal -0.156435 0.987688 0
    outer loop
      vertex 0 11.83 -14
      vertex -3.65567 11.251 0
      vertex 0 11.83 0
    endloop
  endfacet
  facet normal -0.156435 0.987688 0
    outer loop
      vertex -3.65567 11.251 0
      vertex 0 11.83 -14
      vertex -3.65567 11.251 -14
    endloop
  endfacet
  facet normal 0.891006 -0.453991 0
    outer loop
      vertex 9.57067 -6.9535 0
      vertex 11.251 -3.65567 -14
      vertex 11.251 -3.65567 0
    endloop
  endfacet
  facet normal 0.891006 -0.453991 0
    outer loop
      vertex 11.251 -3.65567 -14
      vertex 9.57067 -6.9535 0
      vertex 9.57067 -6.9535 -14
    endloop
  endfacet
  facet normal -0.987688 -0.156435 0
    outer loop
      vertex -11.251 -3.65567 -14
      vertex -11.83 0 0
      vertex -11.83 0 -14
    endloop
  endfacet
  facet normal -0.987688 -0.156435 0
    outer loop
      vertex -11.83 0 0
      vertex -11.251 -3.65567 -14
      vertex -11.251 -3.65567 0
    endloop
  endfacet
  facet normal -0.707107 0.707107 0
    outer loop
      vertex -9.57067 6.9535 -14
      vertex -6.9535 9.57067 0
      vertex -6.9535 9.57067 -14
    endloop
  endfacet
  facet normal -0.707107 0.707107 0
    outer loop
      vertex -6.9535 9.57067 0
      vertex -9.57067 6.9535 -14
      vertex -9.57067 6.9535 0
    endloop
  endfacet
  facet normal -0.891006 0.453991 0
    outer loop
      vertex -11.251 3.65567 -14
      vertex -9.57067 6.9535 0
      vertex -9.57067 6.9535 -14
    endloop
  endfacet
  facet normal -0.891006 0.453991 0
    outer loop
      vertex -9.57067 6.9535 0
      vertex -11.251 3.65567 -14
      vertex -11.251 3.65567 0
    endloop
  endfacet
  facet normal 0.987688 -0.156435 0
    outer loop
      vertex 11.251 -3.65567 0
      vertex 11.83 0 -14
      vertex 11.83 0 0
    endloop
  endfacet
  facet normal 0.987688 -0.156435 0
    outer loop
      vertex 11.83 0 -14
      vertex 11.251 -3.65567 0
      vertex 11.251 -3.65567 -14
    endloop
  endfacet
  facet normal 0.156435 -0.987688 0
    outer loop
      vertex 0 -11.83 -14
      vertex 3.65567 -11.251 0
      vertex 0 -11.83 0
    endloop
  endfacet
  facet normal 0.156435 -0.987688 0
    outer loop
      vertex 3.65567 -11.251 0
      vertex 0 -11.83 -14
      vertex 3.65567 -11.251 -14
    endloop
  endfacet
  facet normal -0.707107 -0.707107 0
    outer loop
      vertex -6.9535 -9.57067 -14
      vertex -9.57067 -6.9535 0
      vertex -9.57067 -6.9535 -14
    endloop
  endfacet
  facet normal -0.707107 -0.707107 0
    outer loop
      vertex -9.57067 -6.9535 0
      vertex -6.9535 -9.57067 -14
      vertex -6.9535 -9.57067 0
    endloop
  endfacet
  facet normal -0.891006 -0.453991 0
    outer loop
      vertex -9.57067 -6.9535 -14
      vertex -11.251 -3.65567 0
      vertex -11.251 -3.65567 -14
    endloop
  endfacet
  facet normal -0.891006 -0.453991 0
    outer loop
      vertex -11.251 -3.65567 0
      vertex -9.57067 -6.9535 -14
      vertex -9.57067 -6.9535 0
    endloop
  endfacet
  facet normal 0.453991 -0.891006 0
    outer loop
      vertex 3.65567 -11.251 -14
      vertex 6.9535 -9.57067 0
      vertex 3.65567 -11.251 0
    endloop
  endfacet
  facet normal 0.453991 -0.891006 0
    outer loop
      vertex 6.9535 -9.57067 0
      vertex 3.65567 -11.251 -14
      vertex 6.9535 -9.57067 -14
    endloop
  endfacet
  facet normal 0.707107 -0.707107 0
    outer loop
      vertex 6.9535 -9.57067 0
      vertex 9.57067 -6.9535 -14
      vertex 9.57067 -6.9535 0
    endloop
  endfacet
  facet normal 0.707107 -0.707107 0
    outer loop
      vertex 9.57067 -6.9535 -14
      vertex 6.9535 -9.57067 0
      vertex 6.9535 -9.57067 -14
    endloop
  endfacet
  facet normal -0.453991 -0.891006 0
    outer loop
      vertex -6.9535 -9.57067 -14
      vertex -3.65567 -11.251 0
      vertex -6.9535 -9.57067 0
    endloop
  endfacet
  facet normal -0.453991 -0.891006 -0
    outer loop
      vertex -3.65567 -11.251 0
      vertex -6.9535 -9.57067 -14
      vertex -3.65567 -11.251 -14
    endloop
  endfacet
  facet normal -0.951057 -0.309017 0
    outer loop
      vertex -6.01875 -8.4 2.8
      vertex -6.47353 -7.00034 14
      vertex -6.47353 -7.00034 2.8
    endloop
  endfacet
  facet normal -0.951057 -0.309017 0
    outer loop
      vertex -6.47353 -7.00034 14
      vertex -6.01875 -8.4 2.8
      vertex -6.01875 -8.4 14
    endloop
  endfacet
  facet normal 0.951057 -0.309016 0
    outer loop
      vertex -10.7812 -8.4 14
      vertex -10.3265 -7.00034 2.8
      vertex -10.3265 -7.00034 14
    endloop
  endfacet
  facet normal 0.951057 -0.309016 0
    outer loop
      vertex -10.3265 -7.00034 2.8
      vertex -10.7812 -8.4 14
      vertex -10.7812 -8.4 2.8
    endloop
  endfacet
  facet normal 0 0 1
    outer loop
      vertex -6.47353 -7.00034 2.8
      vertex -6.47353 -9.79966 2.8
      vertex -6.01875 -8.4 2.8
    endloop
  endfacet
  facet normal 0 0 1
    outer loop
      vertex -7.66415 -6.1353 2.8
      vertex -6.47353 -9.79966 2.8
      vertex -6.47353 -7.00034 2.8
    endloop
  endfacet
  facet normal 0 0 1
    outer loop
      vertex -7.66415 -6.1353 2.8
      vertex -7.66415 -10.6647 2.8
      vertex -6.47353 -9.79966 2.8
    endloop
  endfacet
  facet normal -0 0 1
    outer loop
      vertex -9.13585 -6.1353 2.8
      vertex -7.66415 -10.6647 2.8
      vertex -7.66415 -6.1353 2.8
    endloop
  endfacet
  facet normal 0 0 1
    outer loop
      vertex -9.13585 -6.1353 2.8
      vertex -9.13585 -10.6647 2.8
      vertex -7.66415 -10.6647 2.8
    endloop
  endfacet
  facet normal -0 0 1
    outer loop
      vertex -10.3265 -7.00034 2.8
      vertex -9.13585 -10.6647 2.8
      vertex -9.13585 -6.1353 2.8
    endloop
  endfacet
  facet normal 0 0 1
    outer loop
      vertex -10.3265 -7.00034 2.8
      vertex -10.3265 -9.79966 2.8
      vertex -9.13585 -10.6647 2.8
    endloop
  endfacet
  facet normal 0 -0 1
    outer loop
      vertex -10.3265 -9.79966 2.8
      vertex -10.3265 -7.00034 2.8
      vertex -10.7812 -8.4 2.8
    endloop
  endfacet
  facet normal 0 -1 0
    outer loop
      vertex -9.13585 -6.1353 2.8
      vertex -7.66415 -6.1353 14
      vertex -9.13585 -6.1353 14
    endloop
  endfacet
  facet normal 0 -1 -0
    outer loop
      vertex -7.66415 -6.1353 14
      vertex -9.13585 -6.1353 2.8
      vertex -7.66415 -6.1353 2.8
    endloop
  endfacet
  facet normal -0.587785 -0.809017 0
    outer loop
      vertex -7.66415 -6.1353 2.8
      vertex -6.47353 -7.00034 14
      vertex -7.66415 -6.1353 14
    endloop
  endfacet
  facet normal -0.587785 -0.809017 -0
    outer loop
      vertex -6.47353 -7.00034 14
      vertex -7.66415 -6.1353 2.8
      vertex -6.47353 -7.00034 2.8
    endloop
  endfacet
  facet normal 0.587785 -0.809017 0
    outer loop
      vertex -10.3265 -7.00034 2.8
      vertex -9.13585 -6.1353 14
      vertex -10.3265 -7.00034 14
    endloop
  endfacet
  facet normal 0.587785 -0.809017 0
    outer loop
      vertex -9.13585 -6.1353 14
      vertex -10.3265 -7.00034 2.8
      vertex -9.13585 -6.1353 2.8
    endloop
  endfacet
  facet normal 0 1 -0
    outer loop
      vertex -7.66415 -10.6647 2.8
      vertex -9.13585 -10.6647 14
      vertex -7.66415 -10.6647 14
    endloop
  endfacet
  facet normal 0 1 0
    outer loop
      vertex -9.13585 -10.6647 14
      vertex -7.66415 -10.6647 2.8
      vertex -9.13585 -10.6647 2.8
    endloop
  endfacet
  facet normal 0.951057 0.309017 0
    outer loop
      vertex -10.3265 -9.79966 14
      vertex -10.7812 -8.4 2.8
      vertex -10.7812 -8.4 14
    endloop
  endfacet
  facet normal 0.951057 0.309017 0
    outer loop
      vertex -10.7812 -8.4 2.8
      vertex -10.3265 -9.79966 14
      vertex -10.3265 -9.79966 2.8
    endloop
  endfacet
  facet normal -0.587785 0.809017 0
    outer loop
      vertex -6.47353 -9.79966 2.8
      vertex -7.66415 -10.6647 14
      vertex -6.47353 -9.79966 14
    endloop
  endfacet
  facet normal -0.587785 0.809017 0
    outer loop
      vertex -7.66415 -10.6647 14
      vertex -6.47353 -9.79966 2.8
      vertex -7.66415 -10.6647 2.8
    endloop
  endfacet
  facet normal 0.587785 0.809017 -0
    outer loop
      vertex -9.13585 -10.6647 2.8
      vertex -10.3265 -9.79966 14
      vertex -9.13585 -10.6647 14
    endloop
  endfacet
  facet normal 0.587785 0.809017 0
    outer loop
      vertex -10.3265 -9.79966 14
      vertex -9.13585 -10.6647 2.8
      vertex -10.3265 -9.79966 2.8
    endloop
  endfacet
  facet normal -0.951057 0.309017 0
    outer loop
      vertex -6.47353 -9.79966 2.8
      vertex -6.01875 -8.4 14
      vertex -6.01875 -8.4 2.8
    endloop
  endfacet
  facet normal -0.951057 0.309017 0
    outer loop
      vertex -6.01875 -8.4 14
      vertex -6.47353 -9.79966 2.8
      vertex -6.47353 -9.79966 14
    endloop
  endfacet
  facet normal -0.951057 -0.309017 0
    outer loop
      vertex -6.01875 0 2.8
      vertex -6.47353 1.39966 14
      vertex -6.47353 1.39966 2.8
    endloop
  endfacet
  facet normal -0.951057 -0.309017 0
    outer loop
      vertex -6.47353 1.39966 14
      vertex -6.01875 0 2.8
      vertex -6.01875 0 14
    endloop
  endfacet
  facet normal 0.951057 -0.309017 0
    outer loop
      vertex -10.7812 0 14
      vertex -10.3265 1.39966 2.8
      vertex -10.3265 1.39966 14
    endloop
  endfacet
  facet normal 0.951057 -0.309017 0
    outer loop
      vertex -10.3265 1.39966 2.8
      vertex -10.7812 0 14
      vertex -10.7812 0 2.8
    endloop
  endfacet
  facet normal 0 0 1
    outer loop
      vertex -6.47353 1.39966 2.8
      vertex -6.47353 -1.39966 2.8
      vertex -6.01875 0 2.8
    endloop
  endfacet
  facet normal 0 0 1
    outer loop
      vertex -7.66415 2.2647 2.8
      vertex -6.47353 -1.39966 2.8
      vertex -6.47353 1.39966 2.8
    endloop
  endfacet
  facet normal 0 0 1
    outer loop
      vertex -7.66415 2.2647 2.8
      vertex -7.66415 -2.2647 2.8
      vertex -6.47353 -1.39966 2.8
    endloop
  endfacet
  facet normal -0 0 1
    outer loop
      vertex -9.13585 2.2647 2.8
      vertex -7.66415 -2.2647 2.8
      vertex -7.66415 2.2647 2.8
    endloop
  endfacet
  facet normal 0 0 1
    outer loop
      vertex -9.13585 2.2647 2.8
      vertex -9.13585 -2.2647 2.8
      vertex -7.66415 -2.2647 2.8
    endloop
  endfacet
  facet normal -0 0 1
    outer loop
      vertex -10.3265 1.39966 2.8
      vertex -9.13585 -2.2647 2.8
      vertex -9.13585 2.2647 2.8
    endloop
  endfacet
  facet normal 0 0 1
    outer loop
      vertex -10.3265 1.39966 2.8
      vertex -10.3265 -1.39966 2.8
      vertex -9.13585 -2.2647 2.8
    endloop
  endfacet
  facet normal 0 -0 1
    outer loop
      vertex -10.3265 -1.39966 2.8
      vertex -10.3265 1.39966 2.8
      vertex -10.7812 0 2.8
    endloop
  endfacet
  facet normal 0 -1 0
    outer loop
      vertex -9.13585 2.2647 2.8
      vertex -7.66415 2.2647 14
      vertex -9.13585 2.2647 14
    endloop
  endfacet
  facet normal 0 -1 -0
    outer loop
      vertex -7.66415 2.2647 14
      vertex -9.13585 2.2647 2.8
      vertex -7.66415 2.2647 2.8
    endloop
  endfacet
  facet normal -0.587785 -0.809017 0
    outer loop
      vertex -7.66415 2.2647 2.8
      vertex -6.47353 1.39966 14
      vertex -7.66415 2.2647 14
    endloop
  endfacet
  facet normal -0.587785 -0.809017 -0
    outer loop
      vertex -6.47353 1.39966 14
      vertex -7.66415 2.2647 2.8
      vertex -6.47353 1.39966 2.8
    endloop
  endfacet
  facet normal 0.587785 -0.809017 0
    outer loop
      vertex -10.3265 1.39966 2.8
      vertex -9.13585 2.2647 14
      vertex -10.3265 1.39966 14
    endloop
  endfacet
  facet normal 0.587785 -0.809017 0
    outer loop
      vertex -9.13585 2.2647 14
      vertex -10.3265 1.39966 2.8
      vertex -9.13585 2.2647 2.8
    endloop
  endfacet
  facet normal 0 1 -0
    outer loop
      vertex -7.66415 -2.2647 2.8
      vertex -9.13585 -2.2647 14
      vertex -7.66415 -2.2647 14
    endloop
  endfacet
  facet normal 0 1 0
    outer loop
      vertex -9.13585 -2.2647 14
      vertex -7.66415 -2.2647 2.8
      vertex -9.13585 -2.2647 2.8
    endloop
  endfacet
  facet normal -0.587785 0.809017 0
    outer loop
      vertex -6.47353 -1.39966 2.8
      vertex -7.66415 -2.2647 14
      vertex -6.47353 -1.39966 14
    endloop
  endfacet
  facet normal -0.587785 0.809017 0
    outer loop
      vertex -7.66415 -2.2647 14
      vertex -6.47353 -1.39966 2.8
      vertex -7.66415 -2.2647 2.8
    endloop
  endfacet
  facet normal 0.587785 0.809017 -0
    outer loop
      vertex -9.13585 -2.2647 2.8
      vertex -10.3265 -1.39966 14
      vertex -9.13585 -2.2647 14
    endloop
  endfacet
  facet normal 0.587785 0.809017 0
    outer loop
      vertex -10.3265 -1.39966 14
      vertex -9.13585 -2.2647 2.8
      vertex -10.3265 -1.39966 2.8
    endloop
  endfacet
  facet normal 0.951057 0.309017 0
    outer loop
      vertex -10.3265 -1.39966 14
      vertex -10.7812 0 2.8
      vertex -10.7812 0 14
    endloop
  endfacet
  facet normal 0.951057 0.309017 0
    outer loop
      vertex -10.7812 0 2.8
      vertex -10.3265 -1.39966 14
      vertex -10.3265 -1.39966 2.8
    endloop
  endfacet
  facet normal -0.951057 0.309017 0
    outer loop
      vertex -6.47353 -1.39966 2.8
      vertex -6.01875 0 14
      vertex -6.01875 0 2.8
    endloop
  endfacet
  facet normal -0.951057 0.309017 0
    outer loop
      vertex -6.01875 0 14
      vertex -6.47353 -1.39966 2.8
      vertex -6.47353 -1.39966 14
    endloop
  endfacet
  facet normal -0.951057 -0.309017 0
    outer loop
      vertex -6.01875 8.4 2.8
      vertex -6.47353 9.79966 14
      vertex -6.47353 9.79966 2.8
    endloop
  endfacet
  facet normal -0.951057 -0.309017 0
    outer loop
      vertex -6.47353 9.79966 14
      vertex -6.01875 8.4 2.8
      vertex -6.01875 8.4 14
    endloop
  endfacet
  facet normal 0.587785 -0.809017 0
    outer loop
      vertex -10.3265 9.79966 2.8
      vertex -9.13585 10.6647 14
      vertex -10.3265 9.79966 14
    endloop
  endfacet
  facet normal 0.587785 -0.809017 0
    outer loop
      vertex -9.13585 10.6647 14
      vertex -10.3265 9.79966 2.8
      vertex -9.13585 10.6647 2.8
    endloop
  endfacet
  facet normal -0.587785 -0.809017 0
    outer loop
      vertex -7.66415 10.6647 2.8
      vertex -6.47353 9.79966 14
      vertex -7.66415 10.6647 14
    endloop
  endfacet
  facet normal -0.587785 -0.809017 -0
    outer loop
      vertex -6.47353 9.79966 14
      vertex -7.66415 10.6647 2.8
      vertex -6.47353 9.79966 2.8
    endloop
  endfacet
  facet normal 0.951057 -0.309017 0
    outer loop
      vertex -10.7812 8.4 14
      vertex -10.3265 9.79966 2.8
      vertex -10.3265 9.79966 14
    endloop
  endfacet
  facet normal 0.951057 -0.309017 0
    outer loop
      vertex -10.3265 9.79966 2.8
      vertex -10.7812 8.4 14
      vertex -10.7812 8.4 2.8
    endloop
  endfacet
  facet normal 0 0 1
    outer loop
      vertex -6.47353 9.79966 2.8
      vertex -6.47353 7.00034 2.8
      vertex -6.01875 8.4 2.8
    endloop
  endfacet
  facet normal 0 0 1
    outer loop
      vertex -7.66415 10.6647 2.8
      vertex -6.47353 7.00034 2.8
      vertex -6.47353 9.79966 2.8
    endloop
  endfacet
  facet normal 0 0 1
    outer loop
      vertex -7.66415 10.6647 2.8
      vertex -7.66415 6.1353 2.8
      vertex -6.47353 7.00034 2.8
    endloop
  endfacet
  facet normal -0 0 1
    outer loop
      vertex -9.13585 10.6647 2.8
      vertex -7.66415 6.1353 2.8
      vertex -7.66415 10.6647 2.8
    endloop
  endfacet
  facet normal 0 0 1
    outer loop
      vertex -9.13585 10.6647 2.8
      vertex -9.13585 6.1353 2.8
      vertex -7.66415 6.1353 2.8
    endloop
  endfacet
  facet normal -0 0 1
    outer loop
      vertex -10.3265 9.79966 2.8
      vertex -9.13585 6.1353 2.8
      vertex -9.13585 10.6647 2.8
    endloop
  endfacet
  facet normal 0 0 1
    outer loop
      vertex -10.3265 9.79966 2.8
      vertex -10.3265 7.00034 2.8
      vertex -9.13585 6.1353 2.8
    endloop
  endfacet
  facet normal 0 -0 1
    outer loop
      vertex -10.3265 7.00034 2.8
      vertex -10.3265 9.79966 2.8
      vertex -10.7812 8.4 2.8
    endloop
  endfacet
  facet normal -0.951057 0.309017 0
    outer loop
      vertex -6.47353 7.00034 2.8
      vertex -6.01875 8.4 14
      vertex -6.01875 8.4 2.8
    endloop
  endfacet
  facet normal -0.951057 0.309017 0
    outer loop
      vertex -6.01875 8.4 14
      vertex -6.47353 7.00034 2.8
      vertex -6.47353 7.00034 14
    endloop
  endfacet
  facet normal 0 -1 0
    outer loop
      vertex -9.13585 10.6647 2.8
      vertex -7.66415 10.6647 14
      vertex -9.13585 10.6647 14
    endloop
  endfacet
  facet normal 0 -1 -0
    outer loop
      vertex -7.66415 10.6647 14
      vertex -9.13585 10.6647 2.8
      vertex -7.66415 10.6647 2.8
    endloop
  endfacet
  facet normal 0.951057 0.309016 0
    outer loop
      vertex -10.3265 7.00034 14
      vertex -10.7812 8.4 2.8
      vertex -10.7812 8.4 14
    endloop
  endfacet
  facet normal 0.951057 0.309016 0
    outer loop
      vertex -10.7812 8.4 2.8
      vertex -10.3265 7.00034 14
      vertex -10.3265 7.00034 2.8
    endloop
  endfacet
  facet normal 0.587785 0.809017 -0
    outer loop
      vertex -9.13585 6.1353 2.8
      vertex -10.3265 7.00034 14
      vertex -9.13585 6.1353 14
    endloop
  endfacet
  facet normal 0.587785 0.809017 0
    outer loop
      vertex -10.3265 7.00034 14
      vertex -9.13585 6.1353 2.8
      vertex -10.3265 7.00034 2.8
    endloop
  endfacet
  facet normal -0.587785 0.809017 0
    outer loop
      vertex -6.47353 7.00034 2.8
      vertex -7.66415 6.1353 14
      vertex -6.47353 7.00034 14
    endloop
  endfacet
  facet normal -0.587785 0.809017 0
    outer loop
      vertex -7.66415 6.1353 14
      vertex -6.47353 7.00034 2.8
      vertex -7.66415 6.1353 2.8
    endloop
  endfacet
  facet normal 0 1 -0
    outer loop
      vertex -7.66415 6.1353 2.8
      vertex -9.13585 6.1353 14
      vertex -7.66415 6.1353 14
    endloop
  endfacet
  facet normal 0 1 0
    outer loop
      vertex -9.13585 6.1353 14
      vertex -7.66415 6.1353 2.8
      vertex -9.13585 6.1353 2.8
    endloop
  endfacet
  facet normal -0.951057 -0.309017 0
    outer loop
      vertex 2.38125 -8.4 2.8
      vertex 1.92647 -7.00034 14
      vertex 1.92647 -7.00034 2.8
    endloop
  endfacet
  facet normal -0.951057 -0.309017 0
    outer loop
      vertex 1.92647 -7.00034 14
      vertex 2.38125 -8.4 2.8
      vertex 2.38125 -8.4 14
    endloop
  endfacet
  facet normal 0.951057 -0.309017 0
    outer loop
      vertex -2.38125 -8.4 14
      vertex -1.92647 -7.00034 2.8
      vertex -1.92647 -7.00034 14
    endloop
  endfacet
  facet normal 0.951057 -0.309017 0
    outer loop
      vertex -1.92647 -7.00034 2.8
      vertex -2.38125 -8.4 14
      vertex -2.38125 -8.4 2.8
    endloop
  endfacet
  facet normal 0 -1 0
    outer loop
      vertex -0.735846 -6.1353 2.8
      vertex 0.735846 -6.1353 14
      vertex -0.735846 -6.1353 14
    endloop
  endfacet
  facet normal 0 -1 -0
    outer loop
      vertex 0.735846 -6.1353 14
      vertex -0.735846 -6.1353 2.8
      vertex 0.735846 -6.1353 2.8
    endloop
  endfacet
  facet normal -0.587785 -0.809018 0
    outer loop
      vertex 0.735846 -6.1353 2.8
      vertex 1.92647 -7.00034 14
      vertex 0.735846 -6.1353 14
    endloop
  endfacet
  facet normal -0.587785 -0.809018 -0
    outer loop
      vertex 1.92647 -7.00034 14
      vertex 0.735846 -6.1353 2.8
      vertex 1.92647 -7.00034 2.8
    endloop
  endfacet
  facet normal 0.587785 -0.809018 0
    outer loop
      vertex -1.92647 -7.00034 2.8
      vertex -0.735846 -6.1353 14
      vertex -1.92647 -7.00034 14
    endloop
  endfacet
  facet normal 0.587785 -0.809018 0
    outer loop
      vertex -0.735846 -6.1353 14
      vertex -1.92647 -7.00034 2.8
      vertex -0.735846 -6.1353 2.8
    endloop
  endfacet
  facet normal 0 0 1
    outer loop
      vertex 1.92647 -7.00034 2.8
      vertex 1.92647 -9.79966 2.8
      vertex 2.38125 -8.4 2.8
    endloop
  endfacet
  facet normal 0 0 1
    outer loop
      vertex 0.735846 -6.1353 2.8
      vertex 1.92647 -9.79966 2.8
      vertex 1.92647 -7.00034 2.8
    endloop
  endfacet
  facet normal 0 0 1
    outer loop
      vertex 0.735846 -6.1353 2.8
      vertex 0.735846 -10.6647 2.8
      vertex 1.92647 -9.79966 2.8
    endloop
  endfacet
  facet normal -0 0 1
    outer loop
      vertex -0.735846 -6.1353 2.8
      vertex 0.735846 -10.6647 2.8
      vertex 0.735846 -6.1353 2.8
    endloop
  endfacet
  facet normal 0 0 1
    outer loop
      vertex -0.735846 -6.1353 2.8
      vertex -0.735846 -10.6647 2.8
      vertex 0.735846 -10.6647 2.8
    endloop
  endfacet
  facet normal -0 0 1
    outer loop
      vertex -1.92647 -7.00034 2.8
      vertex -0.735846 -10.6647 2.8
      vertex -0.735846 -6.1353 2.8
    endloop
  endfacet
  facet normal 0 0 1
    outer loop
      vertex -1.92647 -7.00034 2.8
      vertex -1.92647 -9.79966 2.8
      vertex -0.735846 -10.6647 2.8
    endloop
  endfacet
  facet normal 0 -0 1
    outer loop
      vertex -1.92647 -9.79966 2.8
      vertex -1.92647 -7.00034 2.8
      vertex -2.38125 -8.4 2.8
    endloop
  endfacet
  facet normal 0.951057 0.309017 0
    outer loop
      vertex -1.92647 -9.79966 14
      vertex -2.38125 -8.4 2.8
      vertex -2.38125 -8.4 14
    endloop
  endfacet
  facet normal 0.951057 0.309017 0
    outer loop
      vertex -2.38125 -8.4 2.8
      vertex -1.92647 -9.79966 14
      vertex -1.92647 -9.79966 2.8
    endloop
  endfacet
  facet normal -0.587785 0.809017 0
    outer loop
      vertex 1.92647 -9.79966 2.8
      vertex 0.735846 -10.6647 14
      vertex 1.92647 -9.79966 14
    endloop
  endfacet
  facet normal -0.587785 0.809017 0
    outer loop
      vertex 0.735846 -10.6647 14
      vertex 1.92647 -9.79966 2.8
      vertex 0.735846 -10.6647 2.8
    endloop
  endfacet
  facet normal -0.951057 0.309017 0
    outer loop
      vertex 1.92647 -9.79966 2.8
      vertex 2.38125 -8.4 14
      vertex 2.38125 -8.4 2.8
    endloop
  endfacet
  facet normal -0.951057 0.309017 0
    outer loop
      vertex 2.38125 -8.4 14
      vertex 1.92647 -9.79966 2.8
      vertex 1.92647 -9.79966 14
    endloop
  endfacet
  facet normal 0 1 -0
    outer loop
      vertex 0.735846 -10.6647 2.8
      vertex -0.735846 -10.6647 14
      vertex 0.735846 -10.6647 14
    endloop
  endfacet
  facet normal 0 1 0
    outer loop
      vertex -0.735846 -10.6647 14
      vertex 0.735846 -10.6647 2.8
      vertex -0.735846 -10.6647 2.8
    endloop
  endfacet
  facet normal 0.587785 0.809017 -0
    outer loop
      vertex -0.735846 -10.6647 2.8
      vertex -1.92647 -9.79966 14
      vertex -0.735846 -10.6647 14
    endloop
  endfacet
  facet normal 0.587785 0.809017 0
    outer loop
      vertex -1.92647 -9.79966 14
      vertex -0.735846 -10.6647 2.8
      vertex -1.92647 -9.79966 2.8
    endloop
  endfacet
  facet normal -0.951057 -0.309017 0
    outer loop
      vertex 2.38125 0 2.8
      vertex 1.92647 1.39966 14
      vertex 1.92647 1.39966 2.8
    endloop
  endfacet
  facet normal -0.951057 -0.309017 0
    outer loop
      vertex 1.92647 1.39966 14
      vertex 2.38125 0 2.8
      vertex 2.38125 0 14
    endloop
  endfacet
  facet normal 0.951057 -0.309017 0
    outer loop
      vertex -2.38125 0 14
      vertex -1.92647 1.39966 2.8
      vertex -1.92647 1.39966 14
    endloop
  endfacet
  facet normal 0.951057 -0.309017 0
    outer loop
      vertex -1.92647 1.39966 2.8
      vertex -2.38125 0 14
      vertex -2.38125 0 2.8
    endloop
  endfacet
  facet normal 0 -1 0
    outer loop
      vertex -0.735846 2.2647 2.8
      vertex 0.735846 2.2647 14
      vertex -0.735846 2.2647 14
    endloop
  endfacet
  facet normal 0 -1 -0
    outer loop
      vertex 0.735846 2.2647 14
      vertex -0.735846 2.2647 2.8
      vertex 0.735846 2.2647 2.8
    endloop
  endfacet
  facet normal -0.587785 -0.809017 0
    outer loop
      vertex 0.735846 2.2647 2.8
      vertex 1.92647 1.39966 14
      vertex 0.735846 2.2647 14
    endloop
  endfacet
  facet normal -0.587785 -0.809017 -0
    outer loop
      vertex 1.92647 1.39966 14
      vertex 0.735846 2.2647 2.8
      vertex 1.92647 1.39966 2.8
    endloop
  endfacet
  facet normal 0.587785 -0.809017 0
    outer loop
      vertex -1.92647 1.39966 2.8
      vertex -0.735846 2.2647 14
      vertex -1.92647 1.39966 14
    endloop
  endfacet
  facet normal 0.587785 -0.809017 0
    outer loop
      vertex -0.735846 2.2647 14
      vertex -1.92647 1.39966 2.8
      vertex -0.735846 2.2647 2.8
    endloop
  endfacet
  facet normal 0 0 1
    outer loop
      vertex 1.92647 1.39966 2.8
      vertex 1.92647 -1.39966 2.8
      vertex 2.38125 0 2.8
    endloop
  endfacet
  facet normal 0 0 1
    outer loop
      vertex 0.735846 2.2647 2.8
      vertex 1.92647 -1.39966 2.8
      vertex 1.92647 1.39966 2.8
    endloop
  endfacet
  facet normal 0 0 1
    outer loop
      vertex 0.735846 2.2647 2.8
      vertex 0.735846 -2.2647 2.8
      vertex 1.92647 -1.39966 2.8
    endloop
  endfacet
  facet normal -0 0 1
    outer loop
      vertex -0.735846 2.2647 2.8
      vertex 0.735846 -2.2647 2.8
      vertex 0.735846 2.2647 2.8
    endloop
  endfacet
  facet normal 0 0 1
    outer loop
      vertex -0.735846 2.2647 2.8
      vertex -0.735846 -2.2647 2.8
      vertex 0.735846 -2.2647 2.8
    endloop
  endfacet
  facet normal -0 0 1
    outer loop
      vertex -1.92647 1.39966 2.8
      vertex -0.735846 -2.2647 2.8
      vertex -0.735846 2.2647 2.8
    endloop
  endfacet
  facet normal 0 0 1
    outer loop
      vertex -1.92647 1.39966 2.8
      vertex -1.92647 -1.39966 2.8
      vertex -0.735846 -2.2647 2.8
    endloop
  endfacet
  facet normal 0 -0 1
    outer loop
      vertex -1.92647 -1.39966 2.8
      vertex -1.92647 1.39966 2.8
      vertex -2.38125 0 2.8
    endloop
  endfacet
  facet normal 0.951057 0.309017 0
    outer loop
      vertex -1.92647 -1.39966 14
      vertex -2.38125 0 2.8
      vertex -2.38125 0 14
    endloop
  endfacet
  facet normal 0.951057 0.309017 0
    outer loop
      vertex -2.38125 0 2.8
      vertex -1.92647 -1.39966 14
      vertex -1.92647 -1.39966 2.8
    endloop
  endfacet
  facet normal -0.587785 0.809017 0
    outer loop
      vertex 1.92647 -1.39966 2.8
      vertex 0.735846 -2.2647 14
      vertex 1.92647 -1.39966 14
    endloop
  endfacet
  facet normal -0.587785 0.809017 0
    outer loop
      vertex 0.735846 -2.2647 14
      vertex 1.92647 -1.39966 2.8
      vertex 0.735846 -2.2647 2.8
    endloop
  endfacet
  facet normal 0.587785 0.809017 -0
    outer loop
      vertex -0.735846 -2.2647 2.8
      vertex -1.92647 -1.39966 14
      vertex -0.735846 -2.2647 14
    endloop
  endfacet
  facet normal 0.587785 0.809017 0
    outer loop
      vertex -1.92647 -1.39966 14
      vertex -0.735846 -2.2647 2.8
      vertex -1.92647 -1.39966 2.8
    endloop
  endfacet
  facet normal -0.951057 0.309017 0
    outer loop
      vertex 1.92647 -1.39966 2.8
      vertex 2.38125 0 14
      vertex 2.38125 0 2.8
    endloop
  endfacet
  facet normal -0.951057 0.309017 0
    outer loop
      vertex 2.38125 0 14
      vertex 1.92647 -1.39966 2.8
      vertex 1.92647 -1.39966 14
    endloop
  endfacet
  facet normal 0 1 -0
    outer loop
      vertex 0.735846 -2.2647 2.8
      vertex -0.735846 -2.2647 14
      vertex 0.735846 -2.2647 14
    endloop
  endfacet
  facet normal 0 1 0
    outer loop
      vertex -0.735846 -2.2647 14
      vertex 0.735846 -2.2647 2.8
      vertex -0.735846 -2.2647 2.8
    endloop
  endfacet
  facet normal -0.951057 -0.309017 0
    outer loop
      vertex 2.38125 8.4 2.8
      vertex 1.92647 9.79966 14
      vertex 1.92647 9.79966 2.8
    endloop
  endfacet
  facet normal -0.951057 -0.309017 0
    outer loop
      vertex 1.92647 9.79966 14
      vertex 2.38125 8.4 2.8
      vertex 2.38125 8.4 14
    endloop
  endfacet
  facet normal -0.587785 0.809018 0
    outer loop
      vertex 1.92647 7.00034 2.8
      vertex 0.735846 6.1353 14
      vertex 1.92647 7.00034 14
    endloop
  endfacet
  facet normal -0.587785 0.809018 0
    outer loop
      vertex 0.735846 6.1353 14
      vertex 1.92647 7.00034 2.8
      vertex 0.735846 6.1353 2.8
    endloop
  endfacet
  facet normal 0.587785 -0.809017 0
    outer loop
      vertex -1.92647 9.79966 2.8
      vertex -0.735846 10.6647 14
      vertex -1.92647 9.79966 14
    endloop
  endfacet
  facet normal 0.587785 -0.809017 0
    outer loop
      vertex -0.735846 10.6647 14
      vertex -1.92647 9.79966 2.8
      vertex -0.735846 10.6647 2.8
    endloop
  endfacet
  facet normal -0.587785 -0.809017 0
    outer loop
      vertex 0.735846 10.6647 2.8
      vertex 1.92647 9.79966 14
      vertex 0.735846 10.6647 14
    endloop
  endfacet
  facet normal -0.587785 -0.809017 -0
    outer loop
      vertex 1.92647 9.79966 14
      vertex 0.735846 10.6647 2.8
      vertex 1.92647 9.79966 2.8
    endloop
  endfacet
  facet normal 0.951057 -0.309017 0
    outer loop
      vertex -2.38125 8.4 14
      vertex -1.92647 9.79966 2.8
      vertex -1.92647 9.79966 14
    endloop
  endfacet
  facet normal 0.951057 -0.309017 0
    outer loop
      vertex -1.92647 9.79966 2.8
      vertex -2.38125 8.4 14
      vertex -2.38125 8.4 2.8
    endloop
  endfacet
  facet normal 0 0 1
    outer loop
      vertex 1.92647 9.79966 2.8
      vertex 1.92647 7.00034 2.8
      vertex 2.38125 8.4 2.8
    endloop
  endfacet
  facet normal 0 0 1
    outer loop
      vertex 0.735846 10.6647 2.8
      vertex 1.92647 7.00034 2.8
      vertex 1.92647 9.79966 2.8
    endloop
  endfacet
  facet normal 0 0 1
    outer loop
      vertex 0.735846 10.6647 2.8
      vertex 0.735846 6.1353 2.8
      vertex 1.92647 7.00034 2.8
    endloop
  endfacet
  facet normal -0 0 1
    outer loop
      vertex -0.735846 10.6647 2.8
      vertex 0.735846 6.1353 2.8
      vertex 0.735846 10.6647 2.8
    endloop
  endfacet
  facet normal 0 0 1
    outer loop
      vertex -0.735846 10.6647 2.8
      vertex -0.735846 6.1353 2.8
      vertex 0.735846 6.1353 2.8
    endloop
  endfacet
  facet normal -0 0 1
    outer loop
      vertex -1.92647 9.79966 2.8
      vertex -0.735846 6.1353 2.8
      vertex -0.735846 10.6647 2.8
    endloop
  endfacet
  facet normal 0 0 1
    outer loop
      vertex -1.92647 9.79966 2.8
      vertex -1.92647 7.00034 2.8
      vertex -0.735846 6.1353 2.8
    endloop
  endfacet
  facet normal 0 -0 1
    outer loop
      vertex -1.92647 7.00034 2.8
      vertex -1.92647 9.79966 2.8
      vertex -2.38125 8.4 2.8
    endloop
  endfacet
  facet normal -0.951057 0.309017 0
    outer loop
      vertex 1.92647 7.00034 2.8
      vertex 2.38125 8.4 14
      vertex 2.38125 8.4 2.8
    endloop
  endfacet
  facet normal -0.951057 0.309017 0
    outer loop
      vertex 2.38125 8.4 14
      vertex 1.92647 7.00034 2.8
      vertex 1.92647 7.00034 14
    endloop
  endfacet
  facet normal 0 -1 0
    outer loop
      vertex -0.735846 10.6647 2.8
      vertex 0.735846 10.6647 14
      vertex -0.735846 10.6647 14
    endloop
  endfacet
  facet normal 0 -1 -0
    outer loop
      vertex 0.735846 10.6647 14
      vertex -0.735846 10.6647 2.8
      vertex 0.735846 10.6647 2.8
    endloop
  endfacet
  facet normal 0.951057 0.309017 0
    outer loop
      vertex -1.92647 7.00034 14
      vertex -2.38125 8.4 2.8
      vertex -2.38125 8.4 14
    endloop
  endfacet
  facet normal 0.951057 0.309017 0
    outer loop
      vertex -2.38125 8.4 2.8
      vertex -1.92647 7.00034 14
      vertex -1.92647 7.00034 2.8
    endloop
  endfacet
  facet normal 0 1 -0
    outer loop
      vertex 0.735846 6.1353 2.8
      vertex -0.735846 6.1353 14
      vertex 0.735846 6.1353 14
    endloop
  endfacet
  facet normal 0 1 0
    outer loop
      vertex -0.735846 6.1353 14
      vertex 0.735846 6.1353 2.8
      vertex -0.735846 6.1353 2.8
    endloop
  endfacet
  facet normal 0.587785 0.809018 -0
    outer loop
      vertex -0.735846 6.1353 2.8
      vertex -1.92647 7.00034 14
      vertex -0.735846 6.1353 14
    endloop
  endfacet
  facet normal 0.587785 0.809018 0
    outer loop
      vertex -1.92647 7.00034 14
      vertex -0.735846 6.1353 2.8
      vertex -1.92647 7.00034 2.8
    endloop
  endfacet
  facet normal -0.951057 -0.309016 0
    outer loop
      vertex 10.7812 -8.4 2.8
      vertex 10.3265 -7.00034 14
      vertex 10.3265 -7.00034 2.8
    endloop
  endfacet
  facet normal -0.951057 -0.309016 0
    outer loop
      vertex 10.3265 -7.00034 14
      vertex 10.7812 -8.4 2.8
      vertex 10.7812 -8.4 14
    endloop
  endfacet
  facet normal 0.951057 -0.309017 0
    outer loop
      vertex 6.01875 -8.4 14
      vertex 6.47353 -7.00034 2.8
      vertex 6.47353 -7.00034 14
    endloop
  endfacet
  facet normal 0.951057 -0.309017 0
    outer loop
      vertex 6.47353 -7.00034 2.8
      vertex 6.01875 -8.4 14
      vertex 6.01875 -8.4 2.8
    endloop
  endfacet
  facet normal 0 0 1
    outer loop
      vertex 10.3265 -7.00034 2.8
      vertex 10.3265 -9.79966 2.8
      vertex 10.7812 -8.4 2.8
    endloop
  endfacet
  facet normal 0 0 1
    outer loop
      vertex 9.13585 -6.1353 2.8
      vertex 10.3265 -9.79966 2.8
      vertex 10.3265 -7.00034 2.8
    endloop
  endfacet
  facet normal 0 0 1
    outer loop
      vertex 9.13585 -6.1353 2.8
      vertex 9.13585 -10.6647 2.8
      vertex 10.3265 -9.79966 2.8
    endloop
  endfacet
  facet normal -0 0 1
    outer loop
      vertex 7.66415 -6.1353 2.8
      vertex 9.13585 -10.6647 2.8
      vertex 9.13585 -6.1353 2.8
    endloop
  endfacet
  facet normal 0 0 1
    outer loop
      vertex 7.66415 -6.1353 2.8
      vertex 7.66415 -10.6647 2.8
      vertex 9.13585 -10.6647 2.8
    endloop
  endfacet
  facet normal -0 0 1
    outer loop
      vertex 6.47353 -7.00034 2.8
      vertex 7.66415 -10.6647 2.8
      vertex 7.66415 -6.1353 2.8
    endloop
  endfacet
  facet normal 0 0 1
    outer loop
      vertex 6.47353 -7.00034 2.8
      vertex 6.47353 -9.79966 2.8
      vertex 7.66415 -10.6647 2.8
    endloop
  endfacet
  facet normal 0 -0 1
    outer loop
      vertex 6.47353 -9.79966 2.8
      vertex 6.47353 -7.00034 2.8
      vertex 6.01875 -8.4 2.8
    endloop
  endfacet
  facet normal 0 -1 0
    outer loop
      vertex 7.66415 -6.1353 2.8
      vertex 9.13585 -6.1353 14
      vertex 7.66415 -6.1353 14
    endloop
  endfacet
  facet normal 0 -1 -0
    outer loop
      vertex 9.13585 -6.1353 14
      vertex 7.66415 -6.1353 2.8
      vertex 9.13585 -6.1353 2.8
    endloop
  endfacet
  facet normal -0.587785 -0.809017 0
    outer loop
      vertex 9.13585 -6.1353 2.8
      vertex 10.3265 -7.00034 14
      vertex 9.13585 -6.1353 14
    endloop
  endfacet
  facet normal -0.587785 -0.809017 -0
    outer loop
      vertex 10.3265 -7.00034 14
      vertex 9.13585 -6.1353 2.8
      vertex 10.3265 -7.00034 2.8
    endloop
  endfacet
  facet normal 0.587785 -0.809017 0
    outer loop
      vertex 6.47353 -7.00034 2.8
      vertex 7.66415 -6.1353 14
      vertex 6.47353 -7.00034 14
    endloop
  endfacet
  facet normal 0.587785 -0.809017 0
    outer loop
      vertex 7.66415 -6.1353 14
      vertex 6.47353 -7.00034 2.8
      vertex 7.66415 -6.1353 2.8
    endloop
  endfacet
  facet normal 0 1 -0
    outer loop
      vertex 9.13585 -10.6647 2.8
      vertex 7.66415 -10.6647 14
      vertex 9.13585 -10.6647 14
    endloop
  endfacet
  facet normal 0 1 0
    outer loop
      vertex 7.66415 -10.6647 14
      vertex 9.13585 -10.6647 2.8
      vertex 7.66415 -10.6647 2.8
    endloop
  endfacet
  facet normal -0.951057 0.309017 0
    outer loop
      vertex 10.3265 -9.79966 2.8
      vertex 10.7812 -8.4 14
      vertex 10.7812 -8.4 2.8
    endloop
  endfacet
  facet normal -0.951057 0.309017 0
    outer loop
      vertex 10.7812 -8.4 14
      vertex 10.3265 -9.79966 2.8
      vertex 10.3265 -9.79966 14
    endloop
  endfacet
  facet normal -0.587785 0.809017 0
    outer loop
      vertex 10.3265 -9.79966 2.8
      vertex 9.13585 -10.6647 14
      vertex 10.3265 -9.79966 14
    endloop
  endfacet
  facet normal -0.587785 0.809017 0
    outer loop
      vertex 9.13585 -10.6647 14
      vertex 10.3265 -9.79966 2.8
      vertex 9.13585 -10.6647 2.8
    endloop
  endfacet
  facet normal 0.587785 0.809017 -0
    outer loop
      vertex 7.66415 -10.6647 2.8
      vertex 6.47353 -9.79966 14
      vertex 7.66415 -10.6647 14
    endloop
  endfacet
  facet normal 0.587785 0.809017 0
    outer loop
      vertex 6.47353 -9.79966 14
      vertex 7.66415 -10.6647 2.8
      vertex 6.47353 -9.79966 2.8
    endloop
  endfacet
  facet normal 0.951057 0.309017 0
    outer loop
      vertex 6.47353 -9.79966 14
      vertex 6.01875 -8.4 2.8
      vertex 6.01875 -8.4 14
    endloop
  endfacet
  facet normal 0.951057 0.309017 0
    outer loop
      vertex 6.01875 -8.4 2.8
      vertex 6.47353 -9.79966 14
      vertex 6.47353 -9.79966 2.8
    endloop
  endfacet
  facet normal -0.951057 -0.309017 0
    outer loop
      vertex 10.7812 0 2.8
      vertex 10.3265 1.39966 14
      vertex 10.3265 1.39966 2.8
    endloop
  endfacet
  facet normal -0.951057 -0.309017 0
    outer loop
      vertex 10.3265 1.39966 14
      vertex 10.7812 0 2.8
      vertex 10.7812 0 14
    endloop
  endfacet
  facet normal 0.951057 -0.309017 0
    outer loop
      vertex 6.01875 0 14
      vertex 6.47353 1.39966 2.8
      vertex 6.47353 1.39966 14
    endloop
  endfacet
  facet normal 0.951057 -0.309017 0
    outer loop
      vertex 6.47353 1.39966 2.8
      vertex 6.01875 0 14
      vertex 6.01875 0 2.8
    endloop
  endfacet
  facet normal 0 0 1
    outer loop
      vertex 10.3265 1.39966 2.8
      vertex 10.3265 -1.39966 2.8
      vertex 10.7812 0 2.8
    endloop
  endfacet
  facet normal 0 0 1
    outer loop
      vertex 9.13585 2.2647 2.8
      vertex 10.3265 -1.39966 2.8
      vertex 10.3265 1.39966 2.8
    endloop
  endfacet
  facet normal 0 0 1
    outer loop
      vertex 9.13585 2.2647 2.8
      vertex 9.13585 -2.2647 2.8
      vertex 10.3265 -1.39966 2.8
    endloop
  endfacet
  facet normal -0 0 1
    outer loop
      vertex 7.66415 2.2647 2.8
      vertex 9.13585 -2.2647 2.8
      vertex 9.13585 2.2647 2.8
    endloop
  endfacet
  facet normal 0 0 1
    outer loop
      vertex 7.66415 2.2647 2.8
      vertex 7.66415 -2.2647 2.8
      vertex 9.13585 -2.2647 2.8
    endloop
  endfacet
  facet normal -0 0 1
    outer loop
      vertex 6.47353 1.39966 2.8
      vertex 7.66415 -2.2647 2.8
      vertex 7.66415 2.2647 2.8
    endloop
  endfacet
  facet normal 0 0 1
    outer loop
      vertex 6.47353 1.39966 2.8
      vertex 6.47353 -1.39966 2.8
      vertex 7.66415 -2.2647 2.8
    endloop
  endfacet
  facet normal 0 -0 1
    outer loop
      vertex 6.47353 -1.39966 2.8
      vertex 6.47353 1.39966 2.8
      vertex 6.01875 0 2.8
    endloop
  endfacet
  facet normal 0 -1 0
    outer loop
      vertex 7.66415 2.2647 2.8
      vertex 9.13585 2.2647 14
      vertex 7.66415 2.2647 14
    endloop
  endfacet
  facet normal 0 -1 -0
    outer loop
      vertex 9.13585 2.2647 14
      vertex 7.66415 2.2647 2.8
      vertex 9.13585 2.2647 2.8
    endloop
  endfacet
  facet normal -0.587785 -0.809017 0
    outer loop
      vertex 9.13585 2.2647 2.8
      vertex 10.3265 1.39966 14
      vertex 9.13585 2.2647 14
    endloop
  endfacet
  facet normal -0.587785 -0.809017 -0
    outer loop
      vertex 10.3265 1.39966 14
      vertex 9.13585 2.2647 2.8
      vertex 10.3265 1.39966 2.8
    endloop
  endfacet
  facet normal 0.587785 -0.809017 0
    outer loop
      vertex 6.47353 1.39966 2.8
      vertex 7.66415 2.2647 14
      vertex 6.47353 1.39966 14
    endloop
  endfacet
  facet normal 0.587785 -0.809017 0
    outer loop
      vertex 7.66415 2.2647 14
      vertex 6.47353 1.39966 2.8
      vertex 7.66415 2.2647 2.8
    endloop
  endfacet
  facet normal 0 1 -0
    outer loop
      vertex 9.13585 -2.2647 2.8
      vertex 7.66415 -2.2647 14
      vertex 9.13585 -2.2647 14
    endloop
  endfacet
  facet normal 0 1 0
    outer loop
      vertex 7.66415 -2.2647 14
      vertex 9.13585 -2.2647 2.8
      vertex 7.66415 -2.2647 2.8
    endloop
  endfacet
  facet normal 0.951057 0.309017 0
    outer loop
      vertex 6.47353 -1.39966 14
      vertex 6.01875 0 2.8
      vertex 6.01875 0 14
    endloop
  endfacet
  facet normal 0.951057 0.309017 0
    outer loop
      vertex 6.01875 0 2.8
      vertex 6.47353 -1.39966 14
      vertex 6.47353 -1.39966 2.8
    endloop
  endfacet
  facet normal -0.587785 0.809017 0
    outer loop
      vertex 10.3265 -1.39966 2.8
      vertex 9.13585 -2.2647 14
      vertex 10.3265 -1.39966 14
    endloop
  endfacet
  facet normal -0.587785 0.809017 0
    outer loop
      vertex 9.13585 -2.2647 14
      vertex 10.3265 -1.39966 2.8
      vertex 9.13585 -2.2647 2.8
    endloop
  endfacet
  facet normal 0.587785 0.809017 -0
    outer loop
      vertex 7.66415 -2.2647 2.8
      vertex 6.47353 -1.39966 14
      vertex 7.66415 -2.2647 14
    endloop
  endfacet
  facet normal 0.587785 0.809017 0
    outer loop
      vertex 6.47353 -1.39966 14
      vertex 7.66415 -2.2647 2.8
      vertex 6.47353 -1.39966 2.8
    endloop
  endfacet
  facet normal -0.951057 0.309017 0
    outer loop
      vertex 10.3265 -1.39966 2.8
      vertex 10.7812 0 14
      vertex 10.7812 0 2.8
    endloop
  endfacet
  facet normal -0.951057 0.309017 0
    outer loop
      vertex 10.7812 0 14
      vertex 10.3265 -1.39966 2.8
      vertex 10.3265 -1.39966 14
    endloop
  endfacet
  facet normal -0.951057 -0.309017 0
    outer loop
      vertex 10.7812 8.4 2.8
      vertex 10.3265 9.79966 14
      vertex 10.3265 9.79966 2.8
    endloop
  endfacet
  facet normal -0.951057 -0.309017 0
    outer loop
      vertex 10.3265 9.79966 14
      vertex 10.7812 8.4 2.8
      vertex 10.7812 8.4 14
    endloop
  endfacet
  facet normal -0.587785 0.809017 0
    outer loop
      vertex 10.3265 7.00034 2.8
      vertex 9.13585 6.1353 14
      vertex 10.3265 7.00034 14
    endloop
  endfacet
  facet normal -0.587785 0.809017 0
    outer loop
      vertex 9.13585 6.1353 14
      vertex 10.3265 7.00034 2.8
      vertex 9.13585 6.1353 2.8
    endloop
  endfacet
  facet normal 0.587785 -0.809017 0
    outer loop
      vertex 6.47353 9.79966 2.8
      vertex 7.66415 10.6647 14
      vertex 6.47353 9.79966 14
    endloop
  endfacet
  facet normal 0.587785 -0.809017 0
    outer loop
      vertex 7.66415 10.6647 14
      vertex 6.47353 9.79966 2.8
      vertex 7.66415 10.6647 2.8
    endloop
  endfacet
  facet normal -0.587785 -0.809017 0
    outer loop
      vertex 9.13585 10.6647 2.8
      vertex 10.3265 9.79966 14
      vertex 9.13585 10.6647 14
    endloop
  endfacet
  facet normal -0.587785 -0.809017 -0
    outer loop
      vertex 10.3265 9.79966 14
      vertex 9.13585 10.6647 2.8
      vertex 10.3265 9.79966 2.8
    endloop
  endfacet
  facet normal 0.951057 -0.309017 0
    outer loop
      vertex 6.01875 8.4 14
      vertex 6.47353 9.79966 2.8
      vertex 6.47353 9.79966 14
    endloop
  endfacet
  facet normal 0.951057 -0.309017 0
    outer loop
      vertex 6.47353 9.79966 2.8
      vertex 6.01875 8.4 14
      vertex 6.01875 8.4 2.8
    endloop
  endfacet
  facet normal 0 0 1
    outer loop
      vertex 10.3265 9.79966 2.8
      vertex 10.3265 7.00034 2.8
      vertex 10.7812 8.4 2.8
    endloop
  endfacet
  facet normal 0 0 1
    outer loop
      vertex 9.13585 10.6647 2.8
      vertex 10.3265 7.00034 2.8
      vertex 10.3265 9.79966 2.8
    endloop
  endfacet
  facet normal 0 0 1
    outer loop
      vertex 9.13585 10.6647 2.8
      vertex 9.13585 6.1353 2.8
      vertex 10.3265 7.00034 2.8
    endloop
  endfacet
  facet normal -0 0 1
    outer loop
      vertex 7.66415 10.6647 2.8
      vertex 9.13585 6.1353 2.8
      vertex 9.13585 10.6647 2.8
    endloop
  endfacet
  facet normal 0 0 1
    outer loop
      vertex 7.66415 10.6647 2.8
      vertex 7.66415 6.1353 2.8
      vertex 9.13585 6.1353 2.8
    endloop
  endfacet
  facet normal -0 0 1
    outer loop
      vertex 6.47353 9.79966 2.8
      vertex 7.66415 6.1353 2.8
      vertex 7.66415 10.6647 2.8
    endloop
  endfacet
  facet normal 0 0 1
    outer loop
      vertex 6.47353 9.79966 2.8
      vertex 6.47353 7.00034 2.8
      vertex 7.66415 6.1353 2.8
    endloop
  endfacet
  facet normal 0 -0 1
    outer loop
      vertex 6.47353 7.00034 2.8
      vertex 6.47353 9.79966 2.8
      vertex 6.01875 8.4 2.8
    endloop
  endfacet
  facet normal -0.951057 0.309016 0
    outer loop
      vertex 10.3265 7.00034 2.8
      vertex 10.7812 8.4 14
      vertex 10.7812 8.4 2.8
    endloop
  endfacet
  facet normal -0.951057 0.309016 0
    outer loop
      vertex 10.7812 8.4 14
      vertex 10.3265 7.00034 2.8
      vertex 10.3265 7.00034 14
    endloop
  endfacet
  facet normal 0 -1 0
    outer loop
      vertex 7.66415 10.6647 2.8
      vertex 9.13585 10.6647 14
      vertex 7.66415 10.6647 14
    endloop
  endfacet
  facet normal 0 -1 -0
    outer loop
      vertex 9.13585 10.6647 14
      vertex 7.66415 10.6647 2.8
      vertex 9.13585 10.6647 2.8
    endloop
  endfacet
  facet normal 0.951057 0.309017 0
    outer loop
      vertex 6.47353 7.00034 14
      vertex 6.01875 8.4 2.8
      vertex 6.01875 8.4 14
    endloop
  endfacet
  facet normal 0.951057 0.309017 0
    outer loop
      vertex 6.01875 8.4 2.8
      vertex 6.47353 7.00034 14
      vertex 6.47353 7.00034 2.8
    endloop
  endfacet
  facet normal 0 1 -0
    outer loop
      vertex 9.13585 6.1353 2.8
      vertex 7.66415 6.1353 14
      vertex 9.13585 6.1353 14
    endloop
  endfacet
  facet normal 0 1 0
    outer loop
      vertex 7.66415 6.1353 14
      vertex 9.13585 6.1353 2.8
      vertex 7.66415 6.1353 2.8
    endloop
  endfacet
  facet normal 0.587785 0.809017 -0
    outer loop
      vertex 7.66415 6.1353 2.8
      vertex 6.47353 7.00034 14
      vertex 7.66415 6.1353 14
    endloop
  endfacet
  facet normal 0.587785 0.809017 0
    outer loop
      vertex 6.47353 7.00034 14
      vertex 7.66415 6.1353 2.8
      vertex 6.47353 7.00034 2.8
    endloop
  endfacet
endsolid OpenSCAD_Model
