solid OpenSCAD_Model
  facet normal 0.945659 0.307263 0.106387
    outer loop
      vertex 6.1 10 9
      vertex 6.86124 10.0808 2
      vertex 5.88992 10.6466 9
    endloop
  endfacet
  facet normal 0.94566 0.307262 0.106387
    outer loop
      vertex 6.86124 10.0808 2
      vertex 6.1 10 9
      vertex 6.8875 10 2
    endloop
  endfacet
  facet normal 0.945659 0.307264 0.106387
    outer loop
      vertex 6.52702 11.1094 2
      vertex 5.88992 10.6466 9
      vertex 6.86124 10.0808 2
    endloop
  endfacet
  facet normal -0.94566 -0.307262 0.106387
    outer loop
      vertex 3.13876 9.91918 2
      vertex 3.9 10 9
      vertex 3.1125 10 2
    endloop
  endfacet
  facet normal -0.945659 -0.307263 0.106387
    outer loop
      vertex 3.9 10 9
      vertex 3.13876 9.91918 2
      vertex 4.11008 9.35344 9
    endloop
  endfacet
  facet normal 0.94566 -0.307262 0.106387
    outer loop
      vertex 6.1 10 9
      vertex 6.86124 9.91918 2
      vertex 6.8875 10 2
    endloop
  endfacet
  facet normal 0.945659 -0.307263 0.106387
    outer loop
      vertex 6.86124 9.91918 2
      vertex 6.1 10 9
      vertex 5.88992 9.35344 9
    endloop
  endfacet
  facet normal 0 0.994325 0.106387
    outer loop
      vertex 5.58327 11.7951 2
      vertex 4.66008 11.0462 9
      vertex 5.33992 11.0462 9
    endloop
  endfacet
  facet normal 0 0.994325 0.106387
    outer loop
      vertex 4.66008 11.0462 9
      vertex 5.58327 11.7951 2
      vertex 4.41673 11.7951 2
    endloop
  endfacet
  facet normal 0.58445 0.804426 0.106387
    outer loop
      vertex 6.52702 11.1094 2
      vertex 5.65202 11.7452 2
      vertex 5.88992 10.6466 9
    endloop
  endfacet
  facet normal 0.584449 0.804426 0.106387
    outer loop
      vertex 5.65202 11.7452 2
      vertex 5.33992 11.0462 9
      vertex 5.88992 10.6466 9
    endloop
  endfacet
  facet normal 0.584449 0.804426 0.106387
    outer loop
      vertex 5.33992 11.0462 9
      vertex 5.65202 11.7452 2
      vertex 5.58327 11.7951 2
    endloop
  endfacet
  facet normal -0.945659 0.307264 0.106387
    outer loop
      vertex 3.47298 11.1094 2
      vertex 3.13876 10.0808 2
      vertex 4.11008 10.6466 9
    endloop
  endfacet
  facet normal -0.58445 -0.804426 0.106387
    outer loop
      vertex 4.11008 9.35344 9
      vertex 3.47298 8.89056 2
      vertex 4.34798 8.25483 2
    endloop
  endfacet
  facet normal -0.945659 -0.307264 0.106387
    outer loop
      vertex 4.11008 9.35344 9
      vertex 3.13876 9.91918 2
      vertex 3.47298 8.89056 2
    endloop
  endfacet
  facet normal 0.58445 -0.804426 0.106387
    outer loop
      vertex 5.88992 9.35344 9
      vertex 5.65202 8.25483 2
      vertex 6.52702 8.89056 2
    endloop
  endfacet
  facet normal -0.94566 0.307262 0.106387
    outer loop
      vertex 3.9 10 9
      vertex 3.13876 10.0808 2
      vertex 3.1125 10 2
    endloop
  endfacet
  facet normal -0.945659 0.307263 0.106387
    outer loop
      vertex 3.13876 10.0808 2
      vertex 3.9 10 9
      vertex 4.11008 10.6466 9
    endloop
  endfacet
  facet normal -0.58445 0.804426 0.106387
    outer loop
      vertex 4.34798 11.7452 2
      vertex 3.47298 11.1094 2
      vertex 4.11008 10.6466 9
    endloop
  endfacet
  facet normal -0.584449 -0.804426 0.106387
    outer loop
      vertex 4.34798 8.25483 2
      vertex 4.66008 8.95384 9
      vertex 4.11008 9.35344 9
    endloop
  endfacet
  facet normal -0.584449 -0.804426 0.106387
    outer loop
      vertex 4.66008 8.95384 9
      vertex 4.34798 8.25483 2
      vertex 4.41673 8.20488 2
    endloop
  endfacet
  facet normal 0.945659 -0.307264 0.106387
    outer loop
      vertex 6.86124 9.91918 2
      vertex 5.88992 9.35344 9
      vertex 6.52702 8.89056 2
    endloop
  endfacet
  facet normal 0 -0.994325 0.106387
    outer loop
      vertex 4.41673 8.20488 2
      vertex 5.33992 8.95384 9
      vertex 4.66008 8.95384 9
    endloop
  endfacet
  facet normal 0 -0.994325 0.106387
    outer loop
      vertex 5.33992 8.95384 9
      vertex 4.41673 8.20488 2
      vertex 5.58327 8.20488 2
    endloop
  endfacet
  facet normal 0.584449 -0.804426 0.106387
    outer loop
      vertex 5.58327 8.20488 2
      vertex 5.88992 9.35344 9
      vertex 5.33992 8.95384 9
    endloop
  endfacet
  facet normal 0.584449 -0.804426 0.106387
    outer loop
      vertex 5.88992 9.35344 9
      vertex 5.58327 8.20488 2
      vertex 5.65202 8.25483 2
    endloop
  endfacet
  facet normal -0.584449 0.804426 0.106387
    outer loop
      vertex 4.41673 11.7951 2
      vertex 4.11008 10.6466 9
      vertex 4.66008 11.0462 9
    endloop
  endfacet
  facet normal -0.584449 0.804426 0.106387
    outer loop
      vertex 4.11008 10.6466 9
      vertex 4.41673 11.7951 2
      vertex 4.34798 11.7452 2
    endloop
  endfacet
  facet normal 0.951057 0.309017 0
    outer loop
      vertex 6.1 10 10
      vertex 5.88992 10.6466 9
      vertex 5.88992 10.6466 10
    endloop
  endfacet
  facet normal 0.951057 0.309017 0
    outer loop
      vertex 5.88992 10.6466 9
      vertex 6.1 10 10
      vertex 6.1 10 9
    endloop
  endfacet
  facet normal -0.951057 0.309017 0
    outer loop
      vertex 3.9 10 9
      vertex 4.11008 10.6466 10
      vertex 4.11008 10.6466 9
    endloop
  endfacet
  facet normal -0.951057 0.309017 0
    outer loop
      vertex 4.11008 10.6466 10
      vertex 3.9 10 9
      vertex 3.9 10 10
    endloop
  endfacet
  facet normal 0 1 -0
    outer loop
      vertex 5.33992 11.0462 9
      vertex 4.66008 11.0462 10
      vertex 5.33992 11.0462 10
    endloop
  endfacet
  facet normal 0 1 0
    outer loop
      vertex 4.66008 11.0462 10
      vertex 5.33992 11.0462 9
      vertex 4.66008 11.0462 9
    endloop
  endfacet
  facet normal 0.587785 0.809017 -0
    outer loop
      vertex 5.88992 10.6466 9
      vertex 5.33992 11.0462 10
      vertex 5.88992 10.6466 10
    endloop
  endfacet
  facet normal 0.587785 0.809017 0
    outer loop
      vertex 5.33992 11.0462 10
      vertex 5.88992 10.6466 9
      vertex 5.33992 11.0462 9
    endloop
  endfacet
  facet normal 0 0 1
    outer loop
      vertex 5.88992 10.6466 10
      vertex 5.88992 9.35344 10
      vertex 6.1 10 10
    endloop
  endfacet
  facet normal 0 0 1
    outer loop
      vertex 5.33992 11.0462 10
      vertex 5.88992 9.35344 10
      vertex 5.88992 10.6466 10
    endloop
  endfacet
  facet normal 0 0 1
    outer loop
      vertex 5.33992 11.0462 10
      vertex 5.33992 8.95384 10
      vertex 5.88992 9.35344 10
    endloop
  endfacet
  facet normal -0 0 1
    outer loop
      vertex 4.66008 11.0462 10
      vertex 5.33992 8.95384 10
      vertex 5.33992 11.0462 10
    endloop
  endfacet
  facet normal 0 0 1
    outer loop
      vertex 4.66008 11.0462 10
      vertex 4.66008 8.95384 10
      vertex 5.33992 8.95384 10
    endloop
  endfacet
  facet normal -0 0 1
    outer loop
      vertex 4.11008 10.6466 10
      vertex 4.66008 8.95384 10
      vertex 4.66008 11.0462 10
    endloop
  endfacet
  facet normal 0 0 1
    outer loop
      vertex 4.11008 10.6466 10
      vertex 4.11008 9.35344 10
      vertex 4.66008 8.95384 10
    endloop
  endfacet
  facet normal 0 -0 1
    outer loop
      vertex 4.11008 9.35344 10
      vertex 4.11008 10.6466 10
      vertex 3.9 10 10
    endloop
  endfacet
  facet normal -0.587785 0.809017 0
    outer loop
      vertex 4.66008 11.0462 9
      vertex 4.11008 10.6466 10
      vertex 4.66008 11.0462 10
    endloop
  endfacet
  facet normal -0.587785 0.809017 0
    outer loop
      vertex 4.11008 10.6466 10
      vertex 4.66008 11.0462 9
      vertex 4.11008 10.6466 9
    endloop
  endfacet
  facet normal -0.951057 -0.309017 0
    outer loop
      vertex 4.11008 9.35344 9
      vertex 3.9 10 10
      vertex 3.9 10 9
    endloop
  endfacet
  facet normal -0.951057 -0.309017 0
    outer loop
      vertex 3.9 10 10
      vertex 4.11008 9.35344 9
      vertex 4.11008 9.35344 10
    endloop
  endfacet
  facet normal 0.587785 -0.809017 0
    outer loop
      vertex 5.33992 8.95384 9
      vertex 5.88992 9.35344 10
      vertex 5.33992 8.95384 10
    endloop
  endfacet
  facet normal 0.587785 -0.809017 0
    outer loop
      vertex 5.88992 9.35344 10
      vertex 5.33992 8.95384 9
      vertex 5.88992 9.35344 9
    endloop
  endfacet
  facet normal 0.951057 -0.309017 0
    outer loop
      vertex 5.88992 9.35344 10
      vertex 6.1 10 9
      vertex 6.1 10 10
    endloop
  endfacet
  facet normal 0.951057 -0.309017 0
    outer loop
      vertex 6.1 10 9
      vertex 5.88992 9.35344 10
      vertex 5.88992 9.35344 9
    endloop
  endfacet
  facet normal 0 -1 0
    outer loop
      vertex 4.66008 8.95384 9
      vertex 5.33992 8.95384 10
      vertex 4.66008 8.95384 10
    endloop
  endfacet
  facet normal 0 -1 -0
    outer loop
      vertex 5.33992 8.95384 10
      vertex 4.66008 8.95384 9
      vertex 5.33992 8.95384 9
    endloop
  endfacet
  facet normal -0.587785 -0.809017 0
    outer loop
      vertex 4.11008 9.35344 9
      vertex 4.66008 8.95384 10
      vertex 4.11008 9.35344 10
    endloop
  endfacet
  facet normal -0.587785 -0.809017 -0
    outer loop
      vertex 4.66008 8.95384 10
      vertex 4.11008 9.35344 9
      vertex 4.66008 8.95384 9
    endloop
  endfacet
  facet normal 0.945659 0.307264 0.106387
    outer loop
      vertex 6.1 69 9
      vertex 6.86124 69.0808 2
      vertex 5.88992 69.6466 9
    endloop
  endfacet
  facet normal 0.945657 0.307268 0.106387
    outer loop
      vertex 6.86124 69.0808 2
      vertex 6.1 69 9
      vertex 6.8875 69 2
    endloop
  endfacet
  facet normal 0.945659 0.307263 0.106387
    outer loop
      vertex 6.52702 70.1094 2
      vertex 5.88992 69.6466 9
      vertex 6.86124 69.0808 2
    endloop
  endfacet
  facet normal -0.945657 -0.307268 0.106387
    outer loop
      vertex 3.13876 68.9192 2
      vertex 3.9 69 9
      vertex 3.1125 69 2
    endloop
  endfacet
  facet normal -0.945659 -0.307264 0.106387
    outer loop
      vertex 3.9 69 9
      vertex 3.13876 68.9192 2
      vertex 4.11008 68.3534 9
    endloop
  endfacet
  facet normal 0.945657 -0.307268 0.106387
    outer loop
      vertex 6.1 69 9
      vertex 6.86124 68.9192 2
      vertex 6.8875 69 2
    endloop
  endfacet
  facet normal 0.945659 -0.307264 0.106387
    outer loop
      vertex 6.86124 68.9192 2
      vertex 6.1 69 9
      vertex 5.88992 68.3534 9
    endloop
  endfacet
  facet normal 0 0.994325 0.106387
    outer loop
      vertex 5.58327 70.7951 2
      vertex 4.66008 70.0462 9
      vertex 5.33992 70.0462 9
    endloop
  endfacet
  facet normal 0 0.994325 0.106387
    outer loop
      vertex 4.66008 70.0462 9
      vertex 5.58327 70.7951 2
      vertex 4.41673 70.7951 2
    endloop
  endfacet
  facet normal 0.584451 0.804425 0.106387
    outer loop
      vertex 6.52702 70.1094 2
      vertex 5.65202 70.7452 2
      vertex 5.88992 69.6466 9
    endloop
  endfacet
  facet normal 0.584448 0.804427 0.106387
    outer loop
      vertex 5.65202 70.7452 2
      vertex 5.33992 70.0462 9
      vertex 5.88992 69.6466 9
    endloop
  endfacet
  facet normal 0.584449 0.804426 0.106387
    outer loop
      vertex 5.33992 70.0462 9
      vertex 5.65202 70.7452 2
      vertex 5.58327 70.7951 2
    endloop
  endfacet
  facet normal -0.945659 0.307263 0.106387
    outer loop
      vertex 3.47298 70.1094 2
      vertex 3.13876 69.0808 2
      vertex 4.11008 69.6466 9
    endloop
  endfacet
  facet normal -0.584451 -0.804425 0.106387
    outer loop
      vertex 4.11008 68.3534 9
      vertex 3.47298 67.8906 2
      vertex 4.34798 67.2548 2
    endloop
  endfacet
  facet normal -0.945659 -0.307263 0.106387
    outer loop
      vertex 4.11008 68.3534 9
      vertex 3.13876 68.9192 2
      vertex 3.47298 67.8906 2
    endloop
  endfacet
  facet normal 0.584451 -0.804425 0.106387
    outer loop
      vertex 5.88992 68.3534 9
      vertex 5.65202 67.2548 2
      vertex 6.52702 67.8906 2
    endloop
  endfacet
  facet normal -0.945657 0.307268 0.106387
    outer loop
      vertex 3.9 69 9
      vertex 3.13876 69.0808 2
      vertex 3.1125 69 2
    endloop
  endfacet
  facet normal -0.945659 0.307264 0.106387
    outer loop
      vertex 3.13876 69.0808 2
      vertex 3.9 69 9
      vertex 4.11008 69.6466 9
    endloop
  endfacet
  facet normal -0.584451 0.804425 0.106387
    outer loop
      vertex 4.34798 70.7452 2
      vertex 3.47298 70.1094 2
      vertex 4.11008 69.6466 9
    endloop
  endfacet
  facet normal -0.584448 -0.804427 0.106387
    outer loop
      vertex 4.34798 67.2548 2
      vertex 4.66008 67.9538 9
      vertex 4.11008 68.3534 9
    endloop
  endfacet
  facet normal -0.584449 -0.804426 0.106387
    outer loop
      vertex 4.66008 67.9538 9
      vertex 4.34798 67.2548 2
      vertex 4.41673 67.2049 2
    endloop
  endfacet
  facet normal 0.945659 -0.307263 0.106387
    outer loop
      vertex 6.86124 68.9192 2
      vertex 5.88992 68.3534 9
      vertex 6.52702 67.8906 2
    endloop
  endfacet
  facet normal 0 -0.994325 0.106387
    outer loop
      vertex 4.41673 67.2049 2
      vertex 5.33992 67.9538 9
      vertex 4.66008 67.9538 9
    endloop
  endfacet
  facet normal 0 -0.994325 0.106387
    outer loop
      vertex 5.33992 67.9538 9
      vertex 4.41673 67.2049 2
      vertex 5.58327 67.2049 2
    endloop
  endfacet
  facet normal 0.584448 -0.804427 0.106387
    outer loop
      vertex 5.58327 67.2049 2
      vertex 5.88992 68.3534 9
      vertex 5.33992 67.9538 9
    endloop
  endfacet
  facet normal 0.584449 -0.804426 0.106387
    outer loop
      vertex 5.88992 68.3534 9
      vertex 5.58327 67.2049 2
      vertex 5.65202 67.2548 2
    endloop
  endfacet
  facet normal -0.584448 0.804427 0.106387
    outer loop
      vertex 4.41673 70.7951 2
      vertex 4.11008 69.6466 9
      vertex 4.66008 70.0462 9
    endloop
  endfacet
  facet normal -0.584449 0.804426 0.106387
    outer loop
      vertex 4.11008 69.6466 9
      vertex 4.41673 70.7951 2
      vertex 4.34798 70.7452 2
    endloop
  endfacet
  facet normal 0.951056 0.309018 0
    outer loop
      vertex 6.1 69 10
      vertex 5.88992 69.6466 9
      vertex 5.88992 69.6466 10
    endloop
  endfacet
  facet normal 0.951056 0.309018 0
    outer loop
      vertex 5.88992 69.6466 9
      vertex 6.1 69 10
      vertex 6.1 69 9
    endloop
  endfacet
  facet normal -0.951056 0.309018 0
    outer loop
      vertex 3.9 69 9
      vertex 4.11008 69.6466 10
      vertex 4.11008 69.6466 9
    endloop
  endfacet
  facet normal -0.951056 0.309018 0
    outer loop
      vertex 4.11008 69.6466 10
      vertex 3.9 69 9
      vertex 3.9 69 10
    endloop
  endfacet
  facet normal 0 1 -0
    outer loop
      vertex 5.33992 70.0462 9
      vertex 4.66008 70.0462 10
      vertex 5.33992 70.0462 10
    endloop
  endfacet
  facet normal 0 1 0
    outer loop
      vertex 4.66008 70.0462 10
      vertex 5.33992 70.0462 9
      vertex 4.66008 70.0462 9
    endloop
  endfacet
  facet normal 0.587784 0.809018 -0
    outer loop
      vertex 5.88992 69.6466 9
      vertex 5.33992 70.0462 10
      vertex 5.88992 69.6466 10
    endloop
  endfacet
  facet normal 0.587784 0.809018 0
    outer loop
      vertex 5.33992 70.0462 10
      vertex 5.88992 69.6466 9
      vertex 5.33992 70.0462 9
    endloop
  endfacet
  facet normal 0 0 1
    outer loop
      vertex 5.88992 69.6466 10
      vertex 5.88992 68.3534 10
      vertex 6.1 69 10
    endloop
  endfacet
  facet normal 0 0 1
    outer loop
      vertex 5.33992 70.0462 10
      vertex 5.88992 68.3534 10
      vertex 5.88992 69.6466 10
    endloop
  endfacet
  facet normal 0 0 1
    outer loop
      vertex 5.33992 70.0462 10
      vertex 5.33992 67.9538 10
      vertex 5.88992 68.3534 10
    endloop
  endfacet
  facet normal -0 0 1
    outer loop
      vertex 4.66008 70.0462 10
      vertex 5.33992 67.9538 10
      vertex 5.33992 70.0462 10
    endloop
  endfacet
  facet normal 0 0 1
    outer loop
      vertex 4.66008 70.0462 10
      vertex 4.66008 67.9538 10
      vertex 5.33992 67.9538 10
    endloop
  endfacet
  facet normal -0 0 1
    outer loop
      vertex 4.11008 69.6466 10
      vertex 4.66008 67.9538 10
      vertex 4.66008 70.0462 10
    endloop
  endfacet
  facet normal 0 0 1
    outer loop
      vertex 4.11008 69.6466 10
      vertex 4.11008 68.3534 10
      vertex 4.66008 67.9538 10
    endloop
  endfacet
  facet normal 0 -0 1
    outer loop
      vertex 4.11008 68.3534 10
      vertex 4.11008 69.6466 10
      vertex 3.9 69 10
    endloop
  endfacet
  facet normal -0.587784 0.809018 0
    outer loop
      vertex 4.66008 70.0462 9
      vertex 4.11008 69.6466 10
      vertex 4.66008 70.0462 10
    endloop
  endfacet
  facet normal -0.587784 0.809018 0
    outer loop
      vertex 4.11008 69.6466 10
      vertex 4.66008 70.0462 9
      vertex 4.11008 69.6466 9
    endloop
  endfacet
  facet normal -0.951056 -0.309018 0
    outer loop
      vertex 4.11008 68.3534 9
      vertex 3.9 69 10
      vertex 3.9 69 9
    endloop
  endfacet
  facet normal -0.951056 -0.309018 0
    outer loop
      vertex 3.9 69 10
      vertex 4.11008 68.3534 9
      vertex 4.11008 68.3534 10
    endloop
  endfacet
  facet normal 0.587784 -0.809018 0
    outer loop
      vertex 5.33992 67.9538 9
      vertex 5.88992 68.3534 10
      vertex 5.33992 67.9538 10
    endloop
  endfacet
  facet normal 0.587784 -0.809018 0
    outer loop
      vertex 5.88992 68.3534 10
      vertex 5.33992 67.9538 9
      vertex 5.88992 68.3534 9
    endloop
  endfacet
  facet normal 0.951056 -0.309018 0
    outer loop
      vertex 5.88992 68.3534 10
      vertex 6.1 69 9
      vertex 6.1 69 10
    endloop
  endfacet
  facet normal 0.951056 -0.309018 0
    outer loop
      vertex 6.1 69 9
      vertex 5.88992 68.3534 10
      vertex 5.88992 68.3534 9
    endloop
  endfacet
  facet normal 0 -1 0
    outer loop
      vertex 4.66008 67.9538 9
      vertex 5.33992 67.9538 10
      vertex 4.66008 67.9538 10
    endloop
  endfacet
  facet normal 0 -1 -0
    outer loop
      vertex 5.33992 67.9538 10
      vertex 4.66008 67.9538 9
      vertex 5.33992 67.9538 9
    endloop
  endfacet
  facet normal -0.587784 -0.809018 0
    outer loop
      vertex 4.11008 68.3534 9
      vertex 4.66008 67.9538 10
      vertex 4.11008 68.3534 10
    endloop
  endfacet
  facet normal -0.587784 -0.809018 -0
    outer loop
      vertex 4.66008 67.9538 10
      vertex 4.11008 68.3534 9
      vertex 4.66008 67.9538 9
    endloop
  endfacet
  facet normal 0.945658 0.307266 0.106386
    outer loop
      vertex 85.1 10 9
      vertex 85.8612 10.0808 2
      vertex 84.8899 10.6466 9
    endloop
  endfacet
  facet normal 0.945658 0.307267 0.106386
    outer loop
      vertex 85.8612 10.0808 2
      vertex 85.1 10 9
      vertex 85.8875 10 2
    endloop
  endfacet
  facet normal 0.945659 0.307264 0.106387
    outer loop
      vertex 85.527 11.1094 2
      vertex 84.8899 10.6466 9
      vertex 85.8612 10.0808 2
    endloop
  endfacet
  facet normal -0.945658 -0.307267 0.106386
    outer loop
      vertex 82.1388 9.91918 2
      vertex 82.9 10 9
      vertex 82.1125 10 2
    endloop
  endfacet
  facet normal -0.945658 -0.307266 0.106386
    outer loop
      vertex 82.9 10 9
      vertex 82.1388 9.91918 2
      vertex 83.1101 9.35344 9
    endloop
  endfacet
  facet normal 0.945658 -0.307267 0.106386
    outer loop
      vertex 85.1 10 9
      vertex 85.8612 9.91918 2
      vertex 85.8875 10 2
    endloop
  endfacet
  facet normal 0.945658 -0.307266 0.106386
    outer loop
      vertex 85.8612 9.91918 2
      vertex 85.1 10 9
      vertex 84.8899 9.35344 9
    endloop
  endfacet
  facet normal 0 0.994325 0.106387
    outer loop
      vertex 84.5833 11.7951 2
      vertex 83.6601 11.0462 9
      vertex 84.3399 11.0462 9
    endloop
  endfacet
  facet normal 0 0.994325 0.106387
    outer loop
      vertex 83.6601 11.0462 9
      vertex 84.5833 11.7951 2
      vertex 83.4167 11.7951 2
    endloop
  endfacet
  facet normal 0.58445 0.804426 0.106387
    outer loop
      vertex 85.527 11.1094 2
      vertex 84.652 11.7452 2
      vertex 84.8899 10.6466 9
    endloop
  endfacet
  facet normal 0.584452 0.804424 0.106386
    outer loop
      vertex 84.652 11.7452 2
      vertex 84.3399 11.0462 9
      vertex 84.8899 10.6466 9
    endloop
  endfacet
  facet normal 0.584457 0.80442 0.106386
    outer loop
      vertex 84.3399 11.0462 9
      vertex 84.652 11.7452 2
      vertex 84.5833 11.7951 2
    endloop
  endfacet
  facet normal -0.945659 0.307264 0.106387
    outer loop
      vertex 82.473 11.1094 2
      vertex 82.1388 10.0808 2
      vertex 83.1101 10.6466 9
    endloop
  endfacet
  facet normal -0.58445 -0.804426 0.106387
    outer loop
      vertex 83.1101 9.35344 9
      vertex 82.473 8.89056 2
      vertex 83.348 8.25483 2
    endloop
  endfacet
  facet normal -0.945659 -0.307264 0.106387
    outer loop
      vertex 83.1101 9.35344 9
      vertex 82.1388 9.91918 2
      vertex 82.473 8.89056 2
    endloop
  endfacet
  facet normal 0.58445 -0.804426 0.106387
    outer loop
      vertex 84.8899 9.35344 9
      vertex 84.652 8.25483 2
      vertex 85.527 8.89056 2
    endloop
  endfacet
  facet normal -0.945658 0.307267 0.106386
    outer loop
      vertex 82.9 10 9
      vertex 82.1388 10.0808 2
      vertex 82.1125 10 2
    endloop
  endfacet
  facet normal -0.945658 0.307266 0.106386
    outer loop
      vertex 82.1388 10.0808 2
      vertex 82.9 10 9
      vertex 83.1101 10.6466 9
    endloop
  endfacet
  facet normal -0.58445 0.804426 0.106387
    outer loop
      vertex 83.348 11.7452 2
      vertex 82.473 11.1094 2
      vertex 83.1101 10.6466 9
    endloop
  endfacet
  facet normal -0.584452 -0.804424 0.106386
    outer loop
      vertex 83.348 8.25483 2
      vertex 83.6601 8.95384 9
      vertex 83.1101 9.35344 9
    endloop
  endfacet
  facet normal -0.584457 -0.80442 0.106386
    outer loop
      vertex 83.6601 8.95384 9
      vertex 83.348 8.25483 2
      vertex 83.4167 8.20488 2
    endloop
  endfacet
  facet normal 0.945659 -0.307264 0.106387
    outer loop
      vertex 85.8612 9.91918 2
      vertex 84.8899 9.35344 9
      vertex 85.527 8.89056 2
    endloop
  endfacet
  facet normal 0 -0.994325 0.106387
    outer loop
      vertex 83.4167 8.20488 2
      vertex 84.3399 8.95384 9
      vertex 83.6601 8.95384 9
    endloop
  endfacet
  facet normal 0 -0.994325 0.106387
    outer loop
      vertex 84.3399 8.95384 9
      vertex 83.4167 8.20488 2
      vertex 84.5833 8.20488 2
    endloop
  endfacet
  facet normal 0.584452 -0.804424 0.106386
    outer loop
      vertex 84.5833 8.20488 2
      vertex 84.8899 9.35344 9
      vertex 84.3399 8.95384 9
    endloop
  endfacet
  facet normal 0.584457 -0.80442 0.106386
    outer loop
      vertex 84.8899 9.35344 9
      vertex 84.5833 8.20488 2
      vertex 84.652 8.25483 2
    endloop
  endfacet
  facet normal -0.584452 0.804424 0.106386
    outer loop
      vertex 83.4167 11.7951 2
      vertex 83.1101 10.6466 9
      vertex 83.6601 11.0462 9
    endloop
  endfacet
  facet normal -0.584457 0.80442 0.106386
    outer loop
      vertex 83.1101 10.6466 9
      vertex 83.4167 11.7951 2
      vertex 83.348 11.7452 2
    endloop
  endfacet
  facet normal 0.951056 0.309019 0
    outer loop
      vertex 85.1 10 10
      vertex 84.8899 10.6466 9
      vertex 84.8899 10.6466 10
    endloop
  endfacet
  facet normal 0.951056 0.309019 0
    outer loop
      vertex 84.8899 10.6466 9
      vertex 85.1 10 10
      vertex 85.1 10 9
    endloop
  endfacet
  facet normal -0.951056 0.309019 0
    outer loop
      vertex 82.9 10 9
      vertex 83.1101 10.6466 10
      vertex 83.1101 10.6466 9
    endloop
  endfacet
  facet normal -0.951056 0.309019 0
    outer loop
      vertex 83.1101 10.6466 10
      vertex 82.9 10 9
      vertex 82.9 10 10
    endloop
  endfacet
  facet normal 0 1 -0
    outer loop
      vertex 84.3399 11.0462 9
      vertex 83.6601 11.0462 10
      vertex 84.3399 11.0462 10
    endloop
  endfacet
  facet normal 0 1 0
    outer loop
      vertex 83.6601 11.0462 10
      vertex 84.3399 11.0462 9
      vertex 83.6601 11.0462 9
    endloop
  endfacet
  facet normal 0.587788 0.809015 -0
    outer loop
      vertex 84.8899 10.6466 9
      vertex 84.3399 11.0462 10
      vertex 84.8899 10.6466 10
    endloop
  endfacet
  facet normal 0.587788 0.809015 0
    outer loop
      vertex 84.3399 11.0462 10
      vertex 84.8899 10.6466 9
      vertex 84.3399 11.0462 9
    endloop
  endfacet
  facet normal 0 0 1
    outer loop
      vertex 84.8899 10.6466 10
      vertex 84.8899 9.35344 10
      vertex 85.1 10 10
    endloop
  endfacet
  facet normal 0 0 1
    outer loop
      vertex 84.3399 11.0462 10
      vertex 84.8899 9.35344 10
      vertex 84.8899 10.6466 10
    endloop
  endfacet
  facet normal 0 0 1
    outer loop
      vertex 84.3399 11.0462 10
      vertex 84.3399 8.95384 10
      vertex 84.8899 9.35344 10
    endloop
  endfacet
  facet normal -0 0 1
    outer loop
      vertex 83.6601 11.0462 10
      vertex 84.3399 8.95384 10
      vertex 84.3399 11.0462 10
    endloop
  endfacet
  facet normal 0 0 1
    outer loop
      vertex 83.6601 11.0462 10
      vertex 83.6601 8.95384 10
      vertex 84.3399 8.95384 10
    endloop
  endfacet
  facet normal -0 0 1
    outer loop
      vertex 83.1101 10.6466 10
      vertex 83.6601 8.95384 10
      vertex 83.6601 11.0462 10
    endloop
  endfacet
  facet normal 0 0 1
    outer loop
      vertex 83.1101 10.6466 10
      vertex 83.1101 9.35344 10
      vertex 83.6601 8.95384 10
    endloop
  endfacet
  facet normal 0 -0 1
    outer loop
      vertex 83.1101 9.35344 10
      vertex 83.1101 10.6466 10
      vertex 82.9 10 10
    endloop
  endfacet
  facet normal -0.587788 0.809015 0
    outer loop
      vertex 83.6601 11.0462 9
      vertex 83.1101 10.6466 10
      vertex 83.6601 11.0462 10
    endloop
  endfacet
  facet normal -0.587788 0.809015 0
    outer loop
      vertex 83.1101 10.6466 10
      vertex 83.6601 11.0462 9
      vertex 83.1101 10.6466 9
    endloop
  endfacet
  facet normal -0.951056 -0.309019 0
    outer loop
      vertex 83.1101 9.35344 9
      vertex 82.9 10 10
      vertex 82.9 10 9
    endloop
  endfacet
  facet normal -0.951056 -0.309019 0
    outer loop
      vertex 82.9 10 10
      vertex 83.1101 9.35344 9
      vertex 83.1101 9.35344 10
    endloop
  endfacet
  facet normal 0.587788 -0.809015 0
    outer loop
      vertex 84.3399 8.95384 9
      vertex 84.8899 9.35344 10
      vertex 84.3399 8.95384 10
    endloop
  endfacet
  facet normal 0.587788 -0.809015 0
    outer loop
      vertex 84.8899 9.35344 10
      vertex 84.3399 8.95384 9
      vertex 84.8899 9.35344 9
    endloop
  endfacet
  facet normal 0.951056 -0.309019 0
    outer loop
      vertex 84.8899 9.35344 10
      vertex 85.1 10 9
      vertex 85.1 10 10
    endloop
  endfacet
  facet normal 0.951056 -0.309019 0
    outer loop
      vertex 85.1 10 9
      vertex 84.8899 9.35344 10
      vertex 84.8899 9.35344 9
    endloop
  endfacet
  facet normal 0 -1 0
    outer loop
      vertex 83.6601 8.95384 9
      vertex 84.3399 8.95384 10
      vertex 83.6601 8.95384 10
    endloop
  endfacet
  facet normal 0 -1 -0
    outer loop
      vertex 84.3399 8.95384 10
      vertex 83.6601 8.95384 9
      vertex 84.3399 8.95384 9
    endloop
  endfacet
  facet normal -0.587788 -0.809015 0
    outer loop
      vertex 83.1101 9.35344 9
      vertex 83.6601 8.95384 10
      vertex 83.1101 9.35344 10
    endloop
  endfacet
  facet normal -0.587788 -0.809015 -0
    outer loop
      vertex 83.6601 8.95384 10
      vertex 83.1101 9.35344 9
      vertex 83.6601 8.95384 9
    endloop
  endfacet
  facet normal -1 0 0
    outer loop
      vertex 0 0 0
      vertex 0 75 2
      vertex 0 75 0
    endloop
  endfacet
  facet normal -1 -0 0
    outer loop
      vertex 0 75 2
      vertex 0 0 0
      vertex 0 0 2
    endloop
  endfacet
  facet normal 0 0 1
    outer loop
      vertex 6.52702 67.8906 2
      vertex 27.5 75 2
      vertex 6.86124 68.9192 2
    endloop
  endfacet
  facet normal 0 0 1
    outer loop
      vertex 27.5 75 2
      vertex 6.86124 10.0808 2
      vertex 6.8875 10 2
    endloop
  endfacet
  facet normal 0 0 1
    outer loop
      vertex 6.52702 11.1094 2
      vertex 27.5 75 2
      vertex 6.52702 67.8906 2
    endloop
  endfacet
  facet normal 0 0 1
    outer loop
      vertex 27.5 75 2
      vertex 6.52702 11.1094 2
      vertex 6.86124 10.0808 2
    endloop
  endfacet
  facet normal -0 0 1
    outer loop
      vertex 5.65202 67.2548 2
      vertex 6.52702 11.1094 2
      vertex 6.52702 67.8906 2
    endloop
  endfacet
  facet normal 0 0 1
    outer loop
      vertex 5.65202 67.2548 2
      vertex 5.65202 11.7452 2
      vertex 6.52702 11.1094 2
    endloop
  endfacet
  facet normal -0 0 1
    outer loop
      vertex 5.58327 67.2049 2
      vertex 5.65202 11.7452 2
      vertex 5.65202 67.2548 2
    endloop
  endfacet
  facet normal 0 0 1
    outer loop
      vertex 5.58327 67.2049 2
      vertex 5.58327 11.7951 2
      vertex 5.65202 11.7452 2
    endloop
  endfacet
  facet normal -0 0 1
    outer loop
      vertex 4.41673 67.2049 2
      vertex 5.58327 11.7951 2
      vertex 5.58327 67.2049 2
    endloop
  endfacet
  facet normal 0 0 1
    outer loop
      vertex 4.41673 67.2049 2
      vertex 4.41673 11.7951 2
      vertex 5.58327 11.7951 2
    endloop
  endfacet
  facet normal 0 0 1
    outer loop
      vertex 4.34798 67.2548 2
      vertex 4.41673 11.7951 2
      vertex 4.41673 67.2049 2
    endloop
  endfacet
  facet normal 0 0 1
    outer loop
      vertex 4.34798 67.2548 2
      vertex 4.34798 11.7452 2
      vertex 4.41673 11.7951 2
    endloop
  endfacet
  facet normal 0 0 1
    outer loop
      vertex 3.47298 67.8906 2
      vertex 4.34798 11.7452 2
      vertex 4.34798 67.2548 2
    endloop
  endfacet
  facet normal 0 0 1
    outer loop
      vertex 3.47298 67.8906 2
      vertex 3.47298 11.1094 2
      vertex 4.34798 11.7452 2
    endloop
  endfacet
  facet normal 0 0 1
    outer loop
      vertex 0 75 2
      vertex 3.47298 67.8906 2
      vertex 3.13876 68.9192 2
    endloop
  endfacet
  facet normal 0 0 1
    outer loop
      vertex 3.47298 67.8906 2
      vertex 0 75 2
      vertex 3.47298 11.1094 2
    endloop
  endfacet
  facet normal 0 0 1
    outer loop
      vertex 0 75 2
      vertex 3.13876 68.9192 2
      vertex 3.1125 69 2
    endloop
  endfacet
  facet normal 0 0 1
    outer loop
      vertex 3.47298 11.1094 2
      vertex 0 75 2
      vertex 3.13876 10.0808 2
    endloop
  endfacet
  facet normal 0 0 1
    outer loop
      vertex 6.86124 68.9192 2
      vertex 27.5 75 2
      vertex 6.8875 69 2
    endloop
  endfacet
  facet normal 0 0 1
    outer loop
      vertex 27.5 75 2
      vertex 6.86124 69.0808 2
      vertex 6.8875 69 2
    endloop
  endfacet
  facet normal 0 0 1
    outer loop
      vertex 27.5 75 2
      vertex 6.52702 70.1094 2
      vertex 6.86124 69.0808 2
    endloop
  endfacet
  facet normal 0 0 1
    outer loop
      vertex 27.5 75 2
      vertex 5.65202 70.7452 2
      vertex 6.52702 70.1094 2
    endloop
  endfacet
  facet normal 0 0 1
    outer loop
      vertex 27.5 75 2
      vertex 5.58327 70.7951 2
      vertex 5.65202 70.7452 2
    endloop
  endfacet
  facet normal -0 0 1
    outer loop
      vertex 0 75 2
      vertex 5.58327 70.7951 2
      vertex 27.5 75 2
    endloop
  endfacet
  facet normal 0 0 1
    outer loop
      vertex 0 75 2
      vertex 3.13876 69.0808 2
      vertex 3.47298 70.1094 2
    endloop
  endfacet
  facet normal 0 0 1
    outer loop
      vertex 3.13876 10.0808 2
      vertex 0 75 2
      vertex 3.1125 10 2
    endloop
  endfacet
  facet normal 0 0 1
    outer loop
      vertex 3.13876 69.0808 2
      vertex 0 75 2
      vertex 3.1125 69 2
    endloop
  endfacet
  facet normal 0 0 1
    outer loop
      vertex 4.34798 70.7452 2
      vertex 0 75 2
      vertex 3.47298 70.1094 2
    endloop
  endfacet
  facet normal 0 0 1
    outer loop
      vertex 4.41673 70.7951 2
      vertex 0 75 2
      vertex 4.34798 70.7452 2
    endloop
  endfacet
  facet normal 0 0 1
    outer loop
      vertex 5.58327 70.7951 2
      vertex 0 75 2
      vertex 4.41673 70.7951 2
    endloop
  endfacet
  facet normal 0 0 1
    outer loop
      vertex 27.5 75 2
      vertex 6.8875 10 2
      vertex 27.5 0 2
    endloop
  endfacet
  facet normal -0 0 1
    outer loop
      vertex 6.86124 9.91918 2
      vertex 27.5 0 2
      vertex 6.8875 10 2
    endloop
  endfacet
  facet normal -0 0 1
    outer loop
      vertex 6.52702 8.89056 2
      vertex 27.5 0 2
      vertex 6.86124 9.91918 2
    endloop
  endfacet
  facet normal -0 0 1
    outer loop
      vertex 5.65202 8.25483 2
      vertex 27.5 0 2
      vertex 6.52702 8.89056 2
    endloop
  endfacet
  facet normal -0 0 1
    outer loop
      vertex 5.58327 8.20488 2
      vertex 27.5 0 2
      vertex 5.65202 8.25483 2
    endloop
  endfacet
  facet normal 0 0 1
    outer loop
      vertex 0 0 2
      vertex 5.58327 8.20488 2
      vertex 4.41673 8.20488 2
    endloop
  endfacet
  facet normal 0 0 1
    outer loop
      vertex 5.58327 8.20488 2
      vertex 0 0 2
      vertex 27.5 0 2
    endloop
  endfacet
  facet normal 0 0 1
    outer loop
      vertex 4.34798 8.25483 2
      vertex 0 0 2
      vertex 4.41673 8.20488 2
    endloop
  endfacet
  facet normal 0 0 1
    outer loop
      vertex 3.47298 8.89056 2
      vertex 0 0 2
      vertex 4.34798 8.25483 2
    endloop
  endfacet
  facet normal 0 0 1
    outer loop
      vertex 3.13876 9.91918 2
      vertex 0 0 2
      vertex 3.47298 8.89056 2
    endloop
  endfacet
  facet normal 0 0 1
    outer loop
      vertex 3.1125 10 2
      vertex 0 0 2
      vertex 3.13876 9.91918 2
    endloop
  endfacet
  facet normal 0 0 1
    outer loop
      vertex 0 0 2
      vertex 3.1125 10 2
      vertex 0 75 2
    endloop
  endfacet
  facet normal -0 0 1
    outer loop
      vertex 32.5 75 2
      vertex 57.5 0 2
      vertex 57.5 75 2
    endloop
  endfacet
  facet normal 0 0 1
    outer loop
      vertex 57.5 0 2
      vertex 32.5 75 2
      vertex 32.5 0 2
    endloop
  endfacet
  facet normal -0 0 1
    outer loop
      vertex 57.5 82 2
      vertex 62.5 75 2
      vertex 62.5 85 2
    endloop
  endfacet
  facet normal 0 0 1
    outer loop
      vertex 62.5 75 2
      vertex 57.5 75 2
      vertex 62.5 0 2
    endloop
  endfacet
  facet normal 0 0 1
    outer loop
      vertex 62.5 75 2
      vertex 57.5 82 2
      vertex 57.5 75 2
    endloop
  endfacet
  facet normal 0 0 1
    outer loop
      vertex 62.5 85 2
      vertex 32.5 82 2
      vertex 57.5 82 2
    endloop
  endfacet
  facet normal 0 0 1
    outer loop
      vertex 27.5 75 2
      vertex 32.5 75 2
      vertex 32.5 82 2
    endloop
  endfacet
  facet normal 0 0 1
    outer loop
      vertex 32.5 75 2
      vertex 27.5 75 2
      vertex 32.5 0 2
    endloop
  endfacet
  facet normal 0 0 1
    outer loop
      vertex 27.5 75 2
      vertex 32.5 82 2
      vertex 27.5 85 2
    endloop
  endfacet
  facet normal -0 0 1
    outer loop
      vertex 27.5 85 2
      vertex 32.5 82 2
      vertex 62.5 85 2
    endloop
  endfacet
  facet normal 0 0 1
    outer loop
      vertex 57.5 0 2
      vertex 62.5 0 2
      vertex 57.5 75 2
    endloop
  endfacet
  facet normal 0 0 1
    outer loop
      vertex 57.5 -7 2
      vertex 62.5 0 2
      vertex 57.5 0 2
    endloop
  endfacet
  facet normal 0 0 1
    outer loop
      vertex 62.5 0 2
      vertex 57.5 -7 2
      vertex 62.5 -10 2
    endloop
  endfacet
  facet normal -0 0 1
    outer loop
      vertex 32.5 -7 2
      vertex 62.5 -10 2
      vertex 57.5 -7 2
    endloop
  endfacet
  facet normal 0 0 1
    outer loop
      vertex 27.5 0 2
      vertex 32.5 0 2
      vertex 27.5 75 2
    endloop
  endfacet
  facet normal 0 0 1
    outer loop
      vertex 32.5 0 2
      vertex 27.5 0 2
      vertex 32.5 -7 2
    endloop
  endfacet
  facet normal 0 0 1
    outer loop
      vertex 32.5 -7 2
      vertex 27.5 -10 2
      vertex 62.5 -10 2
    endloop
  endfacet
  facet normal 0 0 1
    outer loop
      vertex 27.5 -10 2
      vertex 32.5 -7 2
      vertex 27.5 0 2
    endloop
  endfacet
  facet normal -0 0 1
    outer loop
      vertex 85.8612 10.0808 2
      vertex 90 0 2
      vertex 90 75 2
    endloop
  endfacet
  facet normal 0 0 1
    outer loop
      vertex 90 0 2
      vertex 85.8612 10.0808 2
      vertex 85.8875 10 2
    endloop
  endfacet
  facet normal 0 0 1
    outer loop
      vertex 90 75 2
      vertex 85.527 11.1094 2
      vertex 85.8612 10.0808 2
    endloop
  endfacet
  facet normal 0 0 1
    outer loop
      vertex 90 75 2
      vertex 84.652 11.7452 2
      vertex 85.527 11.1094 2
    endloop
  endfacet
  facet normal 0 0 1
    outer loop
      vertex 90 75 2
      vertex 84.5833 11.7951 2
      vertex 84.652 11.7452 2
    endloop
  endfacet
  facet normal 0 0 1
    outer loop
      vertex 90 75 2
      vertex 83.4167 11.7951 2
      vertex 84.5833 11.7951 2
    endloop
  endfacet
  facet normal -0 0 1
    outer loop
      vertex 62.5 75 2
      vertex 83.4167 11.7951 2
      vertex 90 75 2
    endloop
  endfacet
  facet normal 0 0 1
    outer loop
      vertex 83.4167 11.7951 2
      vertex 62.5 75 2
      vertex 83.348 11.7452 2
    endloop
  endfacet
  facet normal 0 0 1
    outer loop
      vertex 83.348 11.7452 2
      vertex 62.5 75 2
      vertex 82.473 11.1094 2
    endloop
  endfacet
  facet normal 0 0 1
    outer loop
      vertex 62.5 0 2
      vertex 82.473 11.1094 2
      vertex 62.5 75 2
    endloop
  endfacet
  facet normal 0 0 1
    outer loop
      vertex 82.473 11.1094 2
      vertex 62.5 0 2
      vertex 82.1388 10.0808 2
    endloop
  endfacet
  facet normal -0 0 1
    outer loop
      vertex 85.8612 9.91918 2
      vertex 90 0 2
      vertex 85.8875 10 2
    endloop
  endfacet
  facet normal -0 0 1
    outer loop
      vertex 85.527 8.89056 2
      vertex 90 0 2
      vertex 85.8612 9.91918 2
    endloop
  endfacet
  facet normal -0 0 1
    outer loop
      vertex 84.652 8.25483 2
      vertex 90 0 2
      vertex 85.527 8.89056 2
    endloop
  endfacet
  facet normal -0 0 1
    outer loop
      vertex 84.5833 8.20488 2
      vertex 90 0 2
      vertex 84.652 8.25483 2
    endloop
  endfacet
  facet normal -0 0 1
    outer loop
      vertex 83.4167 8.20488 2
      vertex 90 0 2
      vertex 84.5833 8.20488 2
    endloop
  endfacet
  facet normal 0 0 1
    outer loop
      vertex 62.5 0 2
      vertex 83.4167 8.20488 2
      vertex 83.348 8.25483 2
    endloop
  endfacet
  facet normal 0 0 1
    outer loop
      vertex 62.5 0 2
      vertex 83.348 8.25483 2
      vertex 82.473 8.89056 2
    endloop
  endfacet
  facet normal 0 0 1
    outer loop
      vertex 62.5 0 2
      vertex 82.1388 9.91918 2
      vertex 82.1125 10 2
    endloop
  endfacet
  facet normal 0 0 1
    outer loop
      vertex 83.4167 8.20488 2
      vertex 62.5 0 2
      vertex 90 0 2
    endloop
  endfacet
  facet normal 0 0 1
    outer loop
      vertex 82.1388 9.91918 2
      vertex 62.5 0 2
      vertex 82.473 8.89056 2
    endloop
  endfacet
  facet normal 0 0 1
    outer loop
      vertex 82.1388 10.0808 2
      vertex 62.5 0 2
      vertex 82.1125 10 2
    endloop
  endfacet
  facet normal 1 -0 0
    outer loop
      vertex 90 0 2
      vertex 90 75 0
      vertex 90 75 2
    endloop
  endfacet
  facet normal 1 0 0
    outer loop
      vertex 90 75 0
      vertex 90 0 2
      vertex 90 0 0
    endloop
  endfacet
  facet normal 0 1 -0
    outer loop
      vertex 90 75 0
      vertex 62.5 75 2
      vertex 90 75 2
    endloop
  endfacet
  facet normal 0 1 0
    outer loop
      vertex 62.5 75 2
      vertex 90 75 0
      vertex 62.5 75 0
    endloop
  endfacet
  facet normal 0 1 -0
    outer loop
      vertex 27.5 75 0
      vertex 0 75 2
      vertex 27.5 75 2
    endloop
  endfacet
  facet normal 0 1 0
    outer loop
      vertex 0 75 2
      vertex 27.5 75 0
      vertex 0 75 0
    endloop
  endfacet
  facet normal 0 0 -1
    outer loop
      vertex 0 0 0
      vertex 27.5 75 0
      vertex 27.5 0 0
    endloop
  endfacet
  facet normal -0 0 -1
    outer loop
      vertex 27.5 75 0
      vertex 0 0 0
      vertex 0 75 0
    endloop
  endfacet
  facet normal 0 0 -1
    outer loop
      vertex 32.5 0 0
      vertex 57.5 75 0
      vertex 57.5 0 0
    endloop
  endfacet
  facet normal -0 0 -1
    outer loop
      vertex 57.5 75 0
      vertex 32.5 0 0
      vertex 32.5 75 0
    endloop
  endfacet
  facet normal 0 0 -1
    outer loop
      vertex 57.5 -7 0
      vertex 62.5 0 0
      vertex 62.5 -10 0
    endloop
  endfacet
  facet normal 0 0 -1
    outer loop
      vertex 62.5 0 0
      vertex 57.5 0 0
      vertex 62.5 75 0
    endloop
  endfacet
  facet normal -0 0 -1
    outer loop
      vertex 62.5 0 0
      vertex 57.5 -7 0
      vertex 57.5 0 0
    endloop
  endfacet
  facet normal 0 0 -1
    outer loop
      vertex 62.5 -10 0
      vertex 32.5 -7 0
      vertex 57.5 -7 0
    endloop
  endfacet
  facet normal 0 0 -1
    outer loop
      vertex 27.5 0 0
      vertex 32.5 0 0
      vertex 32.5 -7 0
    endloop
  endfacet
  facet normal 0 0 -1
    outer loop
      vertex 32.5 0 0
      vertex 27.5 0 0
      vertex 32.5 75 0
    endloop
  endfacet
  facet normal 0 0 -1
    outer loop
      vertex 27.5 0 0
      vertex 32.5 -7 0
      vertex 27.5 -10 0
    endloop
  endfacet
  facet normal 0 0 -1
    outer loop
      vertex 27.5 -10 0
      vertex 32.5 -7 0
      vertex 62.5 -10 0
    endloop
  endfacet
  facet normal 0 0 -1
    outer loop
      vertex 62.5 0 0
      vertex 90 75 0
      vertex 90 0 0
    endloop
  endfacet
  facet normal -0 0 -1
    outer loop
      vertex 90 75 0
      vertex 62.5 0 0
      vertex 62.5 75 0
    endloop
  endfacet
  facet normal 0 0 -1
    outer loop
      vertex 57.5 75 0
      vertex 62.5 75 0
      vertex 57.5 0 0
    endloop
  endfacet
  facet normal 0 0 -1
    outer loop
      vertex 57.5 82 0
      vertex 62.5 75 0
      vertex 57.5 75 0
    endloop
  endfacet
  facet normal 0 0 -1
    outer loop
      vertex 62.5 75 0
      vertex 57.5 82 0
      vertex 62.5 85 0
    endloop
  endfacet
  facet normal 0 0 -1
    outer loop
      vertex 32.5 82 0
      vertex 62.5 85 0
      vertex 57.5 82 0
    endloop
  endfacet
  facet normal 0 0 -1
    outer loop
      vertex 27.5 75 0
      vertex 32.5 75 0
      vertex 27.5 0 0
    endloop
  endfacet
  facet normal 0 0 -1
    outer loop
      vertex 32.5 75 0
      vertex 27.5 75 0
      vertex 32.5 82 0
    endloop
  endfacet
  facet normal 0 0 -1
    outer loop
      vertex 32.5 82 0
      vertex 27.5 85 0
      vertex 62.5 85 0
    endloop
  endfacet
  facet normal 0 0 -1
    outer loop
      vertex 27.5 85 0
      vertex 32.5 82 0
      vertex 27.5 75 0
    endloop
  endfacet
  facet normal 0 -1 0
    outer loop
      vertex 0 0 0
      vertex 27.5 0 2
      vertex 0 0 2
    endloop
  endfacet
  facet normal 0 -1 -0
    outer loop
      vertex 27.5 0 2
      vertex 0 0 0
      vertex 27.5 0 0
    endloop
  endfacet
  facet normal 0 -1 0
    outer loop
      vertex 62.5 0 0
      vertex 90 0 2
      vertex 62.5 0 2
    endloop
  endfacet
  facet normal 0 -1 -0
    outer loop
      vertex 90 0 2
      vertex 62.5 0 0
      vertex 90 0 0
    endloop
  endfacet
  facet normal -1 0 0
    outer loop
      vertex 27.5 -10 0
      vertex 27.5 0 2
      vertex 27.5 0 0
    endloop
  endfacet
  facet normal -1 -0 0
    outer loop
      vertex 27.5 0 2
      vertex 27.5 -10 0
      vertex 27.5 -10 2
    endloop
  endfacet
  facet normal -1 0 0
    outer loop
      vertex 27.5 75 0
      vertex 27.5 85 2
      vertex 27.5 85 0
    endloop
  endfacet
  facet normal -1 -0 0
    outer loop
      vertex 27.5 85 2
      vertex 27.5 75 0
      vertex 27.5 75 2
    endloop
  endfacet
  facet normal 1 -0 0
    outer loop
      vertex 62.5 -10 2
      vertex 62.5 0 0
      vertex 62.5 0 2
    endloop
  endfacet
  facet normal 1 0 0
    outer loop
      vertex 62.5 0 0
      vertex 62.5 -10 2
      vertex 62.5 -10 0
    endloop
  endfacet
  facet normal 1 -0 0
    outer loop
      vertex 62.5 75 2
      vertex 62.5 85 0
      vertex 62.5 85 2
    endloop
  endfacet
  facet normal 1 0 0
    outer loop
      vertex 62.5 85 0
      vertex 62.5 75 2
      vertex 62.5 75 0
    endloop
  endfacet
  facet normal 0 1 -0
    outer loop
      vertex 62.5 85 0
      vertex 27.5 85 2
      vertex 62.5 85 2
    endloop
  endfacet
  facet normal 0 1 0
    outer loop
      vertex 27.5 85 2
      vertex 62.5 85 0
      vertex 27.5 85 0
    endloop
  endfacet
  facet normal 0 -1 0
    outer loop
      vertex 27.5 -10 0
      vertex 62.5 -10 2
      vertex 27.5 -10 2
    endloop
  endfacet
  facet normal 0 -1 -0
    outer loop
      vertex 62.5 -10 2
      vertex 27.5 -10 0
      vertex 62.5 -10 0
    endloop
  endfacet
  facet normal 1 -0 0
    outer loop
      vertex 32.5 -7 2
      vertex 32.5 0 0
      vertex 32.5 0 2
    endloop
  endfacet
  facet normal 1 0 0
    outer loop
      vertex 32.5 0 0
      vertex 32.5 -7 2
      vertex 32.5 -7 0
    endloop
  endfacet
  facet normal -1 0 0
    outer loop
      vertex 57.5 -7 0
      vertex 57.5 0 2
      vertex 57.5 0 0
    endloop
  endfacet
  facet normal -1 -0 0
    outer loop
      vertex 57.5 0 2
      vertex 57.5 -7 0
      vertex 57.5 -7 2
    endloop
  endfacet
  facet normal 0 -1 0
    outer loop
      vertex 32.5 0 0
      vertex 57.5 0 2
      vertex 32.5 0 2
    endloop
  endfacet
  facet normal 0 -1 -0
    outer loop
      vertex 57.5 0 2
      vertex 32.5 0 0
      vertex 57.5 0 0
    endloop
  endfacet
  facet normal 0 1 -0
    outer loop
      vertex 57.5 -7 0
      vertex 32.5 -7 2
      vertex 57.5 -7 2
    endloop
  endfacet
  facet normal 0 1 0
    outer loop
      vertex 32.5 -7 2
      vertex 57.5 -7 0
      vertex 32.5 -7 0
    endloop
  endfacet
  facet normal 1 -0 0
    outer loop
      vertex 32.5 75 2
      vertex 32.5 82 0
      vertex 32.5 82 2
    endloop
  endfacet
  facet normal 1 0 0
    outer loop
      vertex 32.5 82 0
      vertex 32.5 75 2
      vertex 32.5 75 0
    endloop
  endfacet
  facet normal -1 0 0
    outer loop
      vertex 57.5 75 0
      vertex 57.5 82 2
      vertex 57.5 82 0
    endloop
  endfacet
  facet normal -1 -0 0
    outer loop
      vertex 57.5 82 2
      vertex 57.5 75 0
      vertex 57.5 75 2
    endloop
  endfacet
  facet normal 0 -1 0
    outer loop
      vertex 32.5 82 0
      vertex 57.5 82 2
      vertex 32.5 82 2
    endloop
  endfacet
  facet normal 0 -1 -0
    outer loop
      vertex 57.5 82 2
      vertex 32.5 82 0
      vertex 57.5 82 0
    endloop
  endfacet
  facet normal 0 1 -0
    outer loop
      vertex 57.5 75 0
      vertex 32.5 75 2
      vertex 57.5 75 2
    endloop
  endfacet
  facet normal 0 1 0
    outer loop
      vertex 32.5 75 2
      vertex 57.5 75 0
      vertex 32.5 75 0
    endloop
  endfacet
endsolid OpenSCAD_Model
