solid OpenSCAD_Model
  facet normal 0.945659 0.307263 0.106387
    outer loop
      vertex 6.1 5 9
      vertex 6.86124 5.08082 2
      vertex 5.88992 5.64656 9
    endloop
  endfacet
  facet normal 0.94566 0.30726 0.106387
    outer loop
      vertex 6.86124 5.08082 2
      vertex 6.1 5 9
      vertex 6.8875 5 2
    endloop
  endfacet
  facet normal 0.945659 0.307264 0.106387
    outer loop
      vertex 6.52702 6.10944 2
      vertex 5.88992 5.64656 9
      vertex 6.86124 5.08082 2
    endloop
  endfacet
  facet normal -0.94566 -0.30726 0.106387
    outer loop
      vertex 3.13876 4.91918 2
      vertex 3.9 5 9
      vertex 3.1125 5 2
    endloop
  endfacet
  facet normal -0.945659 -0.307263 0.106387
    outer loop
      vertex 3.9 5 9
      vertex 3.13876 4.91918 2
      vertex 4.11008 4.35344 9
    endloop
  endfacet
  facet normal 0.94566 -0.30726 0.106387
    outer loop
      vertex 6.1 5 9
      vertex 6.86124 4.91918 2
      vertex 6.8875 5 2
    endloop
  endfacet
  facet normal 0.945659 -0.307263 0.106387
    outer loop
      vertex 6.86124 4.91918 2
      vertex 6.1 5 9
      vertex 5.88992 4.35344 9
    endloop
  endfacet
  facet normal 0 0.994325 0.106387
    outer loop
      vertex 5.58327 6.79512 2
      vertex 4.66008 6.04616 9
      vertex 5.33992 6.04616 9
    endloop
  endfacet
  facet normal 0 0.994325 0.106387
    outer loop
      vertex 4.66008 6.04616 9
      vertex 5.58327 6.79512 2
      vertex 4.41673 6.79512 2
    endloop
  endfacet
  facet normal 0.584449 0.804426 0.106387
    outer loop
      vertex 6.52702 6.10944 2
      vertex 5.65202 6.74517 2
      vertex 5.88992 5.64656 9
    endloop
  endfacet
  facet normal 0.584449 0.804426 0.106387
    outer loop
      vertex 5.65202 6.74517 2
      vertex 5.33992 6.04616 9
      vertex 5.88992 5.64656 9
    endloop
  endfacet
  facet normal 0.584452 0.804424 0.106387
    outer loop
      vertex 5.33992 6.04616 9
      vertex 5.65202 6.74517 2
      vertex 5.58327 6.79512 2
    endloop
  endfacet
  facet normal -0.945659 0.307264 0.106387
    outer loop
      vertex 3.47298 6.10944 2
      vertex 3.13876 5.08082 2
      vertex 4.11008 5.64656 9
    endloop
  endfacet
  facet normal -0.584449 -0.804426 0.106387
    outer loop
      vertex 4.11008 4.35344 9
      vertex 3.47298 3.89056 2
      vertex 4.34798 3.25483 2
    endloop
  endfacet
  facet normal -0.945659 -0.307264 0.106387
    outer loop
      vertex 4.11008 4.35344 9
      vertex 3.13876 4.91918 2
      vertex 3.47298 3.89056 2
    endloop
  endfacet
  facet normal 0.584449 -0.804426 0.106387
    outer loop
      vertex 5.88992 4.35344 9
      vertex 5.65202 3.25483 2
      vertex 6.52702 3.89056 2
    endloop
  endfacet
  facet normal -0.94566 0.30726 0.106387
    outer loop
      vertex 3.9 5 9
      vertex 3.13876 5.08082 2
      vertex 3.1125 5 2
    endloop
  endfacet
  facet normal -0.945659 0.307263 0.106387
    outer loop
      vertex 3.13876 5.08082 2
      vertex 3.9 5 9
      vertex 4.11008 5.64656 9
    endloop
  endfacet
  facet normal -0.584449 0.804426 0.106387
    outer loop
      vertex 4.34798 6.74517 2
      vertex 3.47298 6.10944 2
      vertex 4.11008 5.64656 9
    endloop
  endfacet
  facet normal -0.584449 -0.804426 0.106387
    outer loop
      vertex 4.34798 3.25483 2
      vertex 4.66008 3.95384 9
      vertex 4.11008 4.35344 9
    endloop
  endfacet
  facet normal -0.584451 -0.804425 0.106387
    outer loop
      vertex 4.66008 3.95384 9
      vertex 4.34798 3.25483 2
      vertex 4.41673 3.20488 2
    endloop
  endfacet
  facet normal 0.945659 -0.307264 0.106387
    outer loop
      vertex 6.86124 4.91918 2
      vertex 5.88992 4.35344 9
      vertex 6.52702 3.89056 2
    endloop
  endfacet
  facet normal 0 -0.994325 0.106387
    outer loop
      vertex 4.41673 3.20488 2
      vertex 5.33992 3.95384 9
      vertex 4.66008 3.95384 9
    endloop
  endfacet
  facet normal 0 -0.994325 0.106387
    outer loop
      vertex 5.33992 3.95384 9
      vertex 4.41673 3.20488 2
      vertex 5.58327 3.20488 2
    endloop
  endfacet
  facet normal 0.584449 -0.804426 0.106387
    outer loop
      vertex 5.58327 3.20488 2
      vertex 5.88992 4.35344 9
      vertex 5.33992 3.95384 9
    endloop
  endfacet
  facet normal 0.584451 -0.804425 0.106386
    outer loop
      vertex 5.88992 4.35344 9
      vertex 5.58327 3.20488 2
      vertex 5.65202 3.25483 2
    endloop
  endfacet
  facet normal -0.584449 0.804426 0.106387
    outer loop
      vertex 4.41673 6.79512 2
      vertex 4.11008 5.64656 9
      vertex 4.66008 6.04616 9
    endloop
  endfacet
  facet normal -0.584453 0.804424 0.106386
    outer loop
      vertex 4.11008 5.64656 9
      vertex 4.41673 6.79512 2
      vertex 4.34798 6.74517 2
    endloop
  endfacet
  facet normal 0.951057 0.309017 0
    outer loop
      vertex 6.1 5 10
      vertex 5.88992 5.64656 9
      vertex 5.88992 5.64656 10
    endloop
  endfacet
  facet normal 0.951057 0.309017 0
    outer loop
      vertex 5.88992 5.64656 9
      vertex 6.1 5 10
      vertex 6.1 5 9
    endloop
  endfacet
  facet normal -0.951057 0.309017 0
    outer loop
      vertex 3.9 5 9
      vertex 4.11008 5.64656 10
      vertex 4.11008 5.64656 9
    endloop
  endfacet
  facet normal -0.951057 0.309017 0
    outer loop
      vertex 4.11008 5.64656 10
      vertex 3.9 5 9
      vertex 3.9 5 10
    endloop
  endfacet
  facet normal 0 1 -0
    outer loop
      vertex 5.33992 6.04616 9
      vertex 4.66008 6.04616 10
      vertex 5.33992 6.04616 10
    endloop
  endfacet
  facet normal 0 1 0
    outer loop
      vertex 4.66008 6.04616 10
      vertex 5.33992 6.04616 9
      vertex 4.66008 6.04616 9
    endloop
  endfacet
  facet normal 0.587785 0.809017 -0
    outer loop
      vertex 5.88992 5.64656 9
      vertex 5.33992 6.04616 10
      vertex 5.88992 5.64656 10
    endloop
  endfacet
  facet normal 0.587785 0.809017 0
    outer loop
      vertex 5.33992 6.04616 10
      vertex 5.88992 5.64656 9
      vertex 5.33992 6.04616 9
    endloop
  endfacet
  facet normal 0 0 1
    outer loop
      vertex 5.88992 5.64656 10
      vertex 5.88992 4.35344 10
      vertex 6.1 5 10
    endloop
  endfacet
  facet normal 0 0 1
    outer loop
      vertex 5.33992 6.04616 10
      vertex 5.88992 4.35344 10
      vertex 5.88992 5.64656 10
    endloop
  endfacet
  facet normal 0 0 1
    outer loop
      vertex 5.33992 6.04616 10
      vertex 5.33992 3.95384 10
      vertex 5.88992 4.35344 10
    endloop
  endfacet
  facet normal -0 0 1
    outer loop
      vertex 4.66008 6.04616 10
      vertex 5.33992 3.95384 10
      vertex 5.33992 6.04616 10
    endloop
  endfacet
  facet normal 0 0 1
    outer loop
      vertex 4.66008 6.04616 10
      vertex 4.66008 3.95384 10
      vertex 5.33992 3.95384 10
    endloop
  endfacet
  facet normal -0 0 1
    outer loop
      vertex 4.11008 5.64656 10
      vertex 4.66008 3.95384 10
      vertex 4.66008 6.04616 10
    endloop
  endfacet
  facet normal 0 0 1
    outer loop
      vertex 4.11008 5.64656 10
      vertex 4.11008 4.35344 10
      vertex 4.66008 3.95384 10
    endloop
  endfacet
  facet normal 0 -0 1
    outer loop
      vertex 4.11008 4.35344 10
      vertex 4.11008 5.64656 10
      vertex 3.9 5 10
    endloop
  endfacet
  facet normal -0.587785 0.809017 0
    outer loop
      vertex 4.66008 6.04616 9
      vertex 4.11008 5.64656 10
      vertex 4.66008 6.04616 10
    endloop
  endfacet
  facet normal -0.587785 0.809017 0
    outer loop
      vertex 4.11008 5.64656 10
      vertex 4.66008 6.04616 9
      vertex 4.11008 5.64656 9
    endloop
  endfacet
  facet normal -0.951057 -0.309017 0
    outer loop
      vertex 4.11008 4.35344 9
      vertex 3.9 5 10
      vertex 3.9 5 9
    endloop
  endfacet
  facet normal -0.951057 -0.309017 0
    outer loop
      vertex 3.9 5 10
      vertex 4.11008 4.35344 9
      vertex 4.11008 4.35344 10
    endloop
  endfacet
  facet normal 0.587785 -0.809017 0
    outer loop
      vertex 5.33992 3.95384 9
      vertex 5.88992 4.35344 10
      vertex 5.33992 3.95384 10
    endloop
  endfacet
  facet normal 0.587785 -0.809017 0
    outer loop
      vertex 5.88992 4.35344 10
      vertex 5.33992 3.95384 9
      vertex 5.88992 4.35344 9
    endloop
  endfacet
  facet normal -0.587785 -0.809017 0
    outer loop
      vertex 4.11008 4.35344 9
      vertex 4.66008 3.95384 10
      vertex 4.11008 4.35344 10
    endloop
  endfacet
  facet normal -0.587785 -0.809017 -0
    outer loop
      vertex 4.66008 3.95384 10
      vertex 4.11008 4.35344 9
      vertex 4.66008 3.95384 9
    endloop
  endfacet
  facet normal 0.951057 -0.309017 0
    outer loop
      vertex 5.88992 4.35344 10
      vertex 6.1 5 9
      vertex 6.1 5 10
    endloop
  endfacet
  facet normal 0.951057 -0.309017 0
    outer loop
      vertex 6.1 5 9
      vertex 5.88992 4.35344 10
      vertex 5.88992 4.35344 9
    endloop
  endfacet
  facet normal 0 -1 0
    outer loop
      vertex 4.66008 3.95384 9
      vertex 5.33992 3.95384 10
      vertex 4.66008 3.95384 10
    endloop
  endfacet
  facet normal 0 -1 -0
    outer loop
      vertex 5.33992 3.95384 10
      vertex 4.66008 3.95384 9
      vertex 5.33992 3.95384 9
    endloop
  endfacet
  facet normal 0.945659 0.307264 0.106387
    outer loop
      vertex 6.1 64 9
      vertex 6.86124 64.0808 2
      vertex 5.88992 64.6466 9
    endloop
  endfacet
  facet normal 0.945657 0.307268 0.106387
    outer loop
      vertex 6.86124 64.0808 2
      vertex 6.1 64 9
      vertex 6.8875 64 2
    endloop
  endfacet
  facet normal 0.945659 0.307263 0.106387
    outer loop
      vertex 6.52702 65.1094 2
      vertex 5.88992 64.6466 9
      vertex 6.86124 64.0808 2
    endloop
  endfacet
  facet normal -0.945662 -0.307255 0.106387
    outer loop
      vertex 3.13876 63.9192 2
      vertex 3.9 64 9
      vertex 3.1125 64 2
    endloop
  endfacet
  facet normal -0.945659 -0.307263 0.106387
    outer loop
      vertex 3.9 64 9
      vertex 3.13876 63.9192 2
      vertex 4.11008 63.3534 9
    endloop
  endfacet
  facet normal 0.945662 -0.307255 0.106387
    outer loop
      vertex 6.1 64 9
      vertex 6.86124 63.9192 2
      vertex 6.8875 64 2
    endloop
  endfacet
  facet normal 0.945659 -0.307263 0.106387
    outer loop
      vertex 6.86124 63.9192 2
      vertex 6.1 64 9
      vertex 5.88992 63.3534 9
    endloop
  endfacet
  facet normal 0 0.994325 0.106387
    outer loop
      vertex 5.58327 65.7951 2
      vertex 4.66008 65.0462 9
      vertex 5.33992 65.0462 9
    endloop
  endfacet
  facet normal 0 0.994325 0.106387
    outer loop
      vertex 4.66008 65.0462 9
      vertex 5.58327 65.7951 2
      vertex 4.41673 65.7951 2
    endloop
  endfacet
  facet normal 0.584451 0.804425 0.106387
    outer loop
      vertex 6.52702 65.1094 2
      vertex 5.65202 65.7452 2
      vertex 5.88992 64.6466 9
    endloop
  endfacet
  facet normal 0.584448 0.804427 0.106387
    outer loop
      vertex 5.65202 65.7452 2
      vertex 5.33992 65.0462 9
      vertex 5.88992 64.6466 9
    endloop
  endfacet
  facet normal 0.584449 0.804426 0.106387
    outer loop
      vertex 5.33992 65.0462 9
      vertex 5.65202 65.7452 2
      vertex 5.58327 65.7951 2
    endloop
  endfacet
  facet normal -0.945659 0.307263 0.106387
    outer loop
      vertex 3.47298 65.1094 2
      vertex 3.13876 64.0808 2
      vertex 4.11008 64.6466 9
    endloop
  endfacet
  facet normal -0.584451 -0.804425 0.106386
    outer loop
      vertex 4.11008 63.3534 9
      vertex 3.47298 62.8906 2
      vertex 4.34798 62.2548 2
    endloop
  endfacet
  facet normal -0.945659 -0.307264 0.106387
    outer loop
      vertex 4.11008 63.3534 9
      vertex 3.13876 63.9192 2
      vertex 3.47298 62.8906 2
    endloop
  endfacet
  facet normal 0.584451 -0.804425 0.106386
    outer loop
      vertex 5.88992 63.3534 9
      vertex 5.65202 62.2548 2
      vertex 6.52702 62.8906 2
    endloop
  endfacet
  facet normal -0.945657 0.307268 0.106387
    outer loop
      vertex 3.9 64 9
      vertex 3.13876 64.0808 2
      vertex 3.1125 64 2
    endloop
  endfacet
  facet normal -0.945659 0.307264 0.106387
    outer loop
      vertex 3.13876 64.0808 2
      vertex 3.9 64 9
      vertex 4.11008 64.6466 9
    endloop
  endfacet
  facet normal -0.584451 0.804425 0.106387
    outer loop
      vertex 4.34798 65.7452 2
      vertex 3.47298 65.1094 2
      vertex 4.11008 64.6466 9
    endloop
  endfacet
  facet normal -0.584448 -0.804427 0.106387
    outer loop
      vertex 4.34798 62.2548 2
      vertex 4.66008 62.9538 9
      vertex 4.11008 63.3534 9
    endloop
  endfacet
  facet normal -0.584449 -0.804426 0.106387
    outer loop
      vertex 4.66008 62.9538 9
      vertex 4.34798 62.2548 2
      vertex 4.41673 62.2049 2
    endloop
  endfacet
  facet normal 0.945659 -0.307264 0.106387
    outer loop
      vertex 6.86124 63.9192 2
      vertex 5.88992 63.3534 9
      vertex 6.52702 62.8906 2
    endloop
  endfacet
  facet normal 0 -0.994325 0.106387
    outer loop
      vertex 4.41673 62.2049 2
      vertex 5.33992 62.9538 9
      vertex 4.66008 62.9538 9
    endloop
  endfacet
  facet normal 0 -0.994325 0.106387
    outer loop
      vertex 5.33992 62.9538 9
      vertex 4.41673 62.2049 2
      vertex 5.58327 62.2049 2
    endloop
  endfacet
  facet normal 0.584448 -0.804427 0.106387
    outer loop
      vertex 5.58327 62.2049 2
      vertex 5.88992 63.3534 9
      vertex 5.33992 62.9538 9
    endloop
  endfacet
  facet normal 0.584449 -0.804426 0.106387
    outer loop
      vertex 5.88992 63.3534 9
      vertex 5.58327 62.2049 2
      vertex 5.65202 62.2548 2
    endloop
  endfacet
  facet normal -0.584448 0.804427 0.106387
    outer loop
      vertex 4.41673 65.7951 2
      vertex 4.11008 64.6466 9
      vertex 4.66008 65.0462 9
    endloop
  endfacet
  facet normal -0.584449 0.804426 0.106387
    outer loop
      vertex 4.11008 64.6466 9
      vertex 4.41673 65.7951 2
      vertex 4.34798 65.7452 2
    endloop
  endfacet
  facet normal 0.951056 0.309018 0
    outer loop
      vertex 6.1 64 10
      vertex 5.88992 64.6466 9
      vertex 5.88992 64.6466 10
    endloop
  endfacet
  facet normal 0.951056 0.309018 0
    outer loop
      vertex 5.88992 64.6466 9
      vertex 6.1 64 10
      vertex 6.1 64 9
    endloop
  endfacet
  facet normal -0.951056 0.309018 0
    outer loop
      vertex 3.9 64 9
      vertex 4.11008 64.6466 10
      vertex 4.11008 64.6466 9
    endloop
  endfacet
  facet normal -0.951056 0.309018 0
    outer loop
      vertex 4.11008 64.6466 10
      vertex 3.9 64 9
      vertex 3.9 64 10
    endloop
  endfacet
  facet normal 0 1 -0
    outer loop
      vertex 5.33992 65.0462 9
      vertex 4.66008 65.0462 10
      vertex 5.33992 65.0462 10
    endloop
  endfacet
  facet normal 0 1 0
    outer loop
      vertex 4.66008 65.0462 10
      vertex 5.33992 65.0462 9
      vertex 4.66008 65.0462 9
    endloop
  endfacet
  facet normal 0.587784 0.809018 -0
    outer loop
      vertex 5.88992 64.6466 9
      vertex 5.33992 65.0462 10
      vertex 5.88992 64.6466 10
    endloop
  endfacet
  facet normal 0.587784 0.809018 0
    outer loop
      vertex 5.33992 65.0462 10
      vertex 5.88992 64.6466 9
      vertex 5.33992 65.0462 9
    endloop
  endfacet
  facet normal 0 0 1
    outer loop
      vertex 5.88992 64.6466 10
      vertex 5.88992 63.3534 10
      vertex 6.1 64 10
    endloop
  endfacet
  facet normal 0 0 1
    outer loop
      vertex 5.33992 65.0462 10
      vertex 5.88992 63.3534 10
      vertex 5.88992 64.6466 10
    endloop
  endfacet
  facet normal 0 0 1
    outer loop
      vertex 5.33992 65.0462 10
      vertex 5.33992 62.9538 10
      vertex 5.88992 63.3534 10
    endloop
  endfacet
  facet normal -0 0 1
    outer loop
      vertex 4.66008 65.0462 10
      vertex 5.33992 62.9538 10
      vertex 5.33992 65.0462 10
    endloop
  endfacet
  facet normal 0 0 1
    outer loop
      vertex 4.66008 65.0462 10
      vertex 4.66008 62.9538 10
      vertex 5.33992 62.9538 10
    endloop
  endfacet
  facet normal -0 0 1
    outer loop
      vertex 4.11008 64.6466 10
      vertex 4.66008 62.9538 10
      vertex 4.66008 65.0462 10
    endloop
  endfacet
  facet normal 0 0 1
    outer loop
      vertex 4.11008 64.6466 10
      vertex 4.11008 63.3534 10
      vertex 4.66008 62.9538 10
    endloop
  endfacet
  facet normal 0 -0 1
    outer loop
      vertex 4.11008 63.3534 10
      vertex 4.11008 64.6466 10
      vertex 3.9 64 10
    endloop
  endfacet
  facet normal -0.587784 0.809018 0
    outer loop
      vertex 4.66008 65.0462 9
      vertex 4.11008 64.6466 10
      vertex 4.66008 65.0462 10
    endloop
  endfacet
  facet normal -0.587784 0.809018 0
    outer loop
      vertex 4.11008 64.6466 10
      vertex 4.66008 65.0462 9
      vertex 4.11008 64.6466 9
    endloop
  endfacet
  facet normal -0.951057 -0.309016 0
    outer loop
      vertex 4.11008 63.3534 9
      vertex 3.9 64 10
      vertex 3.9 64 9
    endloop
  endfacet
  facet normal -0.951057 -0.309016 0
    outer loop
      vertex 3.9 64 10
      vertex 4.11008 63.3534 9
      vertex 4.11008 63.3534 10
    endloop
  endfacet
  facet normal 0.587784 -0.809018 0
    outer loop
      vertex 5.33992 62.9538 9
      vertex 5.88992 63.3534 10
      vertex 5.33992 62.9538 10
    endloop
  endfacet
  facet normal 0.587784 -0.809018 0
    outer loop
      vertex 5.88992 63.3534 10
      vertex 5.33992 62.9538 9
      vertex 5.88992 63.3534 9
    endloop
  endfacet
  facet normal -0.587784 -0.809018 0
    outer loop
      vertex 4.11008 63.3534 9
      vertex 4.66008 62.9538 10
      vertex 4.11008 63.3534 10
    endloop
  endfacet
  facet normal -0.587784 -0.809018 -0
    outer loop
      vertex 4.66008 62.9538 10
      vertex 4.11008 63.3534 9
      vertex 4.66008 62.9538 9
    endloop
  endfacet
  facet normal 0.951057 -0.309016 0
    outer loop
      vertex 5.88992 63.3534 10
      vertex 6.1 64 9
      vertex 6.1 64 10
    endloop
  endfacet
  facet normal 0.951057 -0.309016 0
    outer loop
      vertex 6.1 64 9
      vertex 5.88992 63.3534 10
      vertex 5.88992 63.3534 9
    endloop
  endfacet
  facet normal 0 -1 0
    outer loop
      vertex 4.66008 62.9538 9
      vertex 5.33992 62.9538 10
      vertex 4.66008 62.9538 10
    endloop
  endfacet
  facet normal 0 -1 -0
    outer loop
      vertex 5.33992 62.9538 10
      vertex 4.66008 62.9538 9
      vertex 5.33992 62.9538 9
    endloop
  endfacet
  facet normal 0.945658 0.307266 0.106386
    outer loop
      vertex 85.1 5 9
      vertex 85.8612 5.08082 2
      vertex 84.8899 5.64656 9
    endloop
  endfacet
  facet normal 0.945659 0.307265 0.106386
    outer loop
      vertex 85.8612 5.08082 2
      vertex 85.1 5 9
      vertex 85.8875 5 2
    endloop
  endfacet
  facet normal 0.945659 0.307264 0.106387
    outer loop
      vertex 85.527 6.10944 2
      vertex 84.8899 5.64656 9
      vertex 85.8612 5.08082 2
    endloop
  endfacet
  facet normal -0.945659 -0.307265 0.106386
    outer loop
      vertex 82.1388 4.91918 2
      vertex 82.9 5 9
      vertex 82.1125 5 2
    endloop
  endfacet
  facet normal -0.945658 -0.307266 0.106386
    outer loop
      vertex 82.9 5 9
      vertex 82.1388 4.91918 2
      vertex 83.1101 4.35344 9
    endloop
  endfacet
  facet normal 0.945659 -0.307265 0.106386
    outer loop
      vertex 85.1 5 9
      vertex 85.8612 4.91918 2
      vertex 85.8875 5 2
    endloop
  endfacet
  facet normal 0.945658 -0.307266 0.106386
    outer loop
      vertex 85.8612 4.91918 2
      vertex 85.1 5 9
      vertex 84.8899 4.35344 9
    endloop
  endfacet
  facet normal 0 0.994325 0.106387
    outer loop
      vertex 84.5833 6.79512 2
      vertex 83.6601 6.04616 9
      vertex 84.3399 6.04616 9
    endloop
  endfacet
  facet normal 0 0.994325 0.106387
    outer loop
      vertex 83.6601 6.04616 9
      vertex 84.5833 6.79512 2
      vertex 83.4167 6.79512 2
    endloop
  endfacet
  facet normal 0.584449 0.804426 0.106387
    outer loop
      vertex 85.527 6.10944 2
      vertex 84.652 6.74517 2
      vertex 84.8899 5.64656 9
    endloop
  endfacet
  facet normal 0.584452 0.804424 0.106386
    outer loop
      vertex 84.652 6.74517 2
      vertex 84.3399 6.04616 9
      vertex 84.8899 5.64656 9
    endloop
  endfacet
  facet normal 0.58446 0.804418 0.106386
    outer loop
      vertex 84.3399 6.04616 9
      vertex 84.652 6.74517 2
      vertex 84.5833 6.79512 2
    endloop
  endfacet
  facet normal -0.945659 0.307264 0.106387
    outer loop
      vertex 82.473 6.10944 2
      vertex 82.1388 5.08082 2
      vertex 83.1101 5.64656 9
    endloop
  endfacet
  facet normal -0.584449 -0.804426 0.106387
    outer loop
      vertex 83.1101 4.35344 9
      vertex 82.473 3.89056 2
      vertex 83.348 3.25483 2
    endloop
  endfacet
  facet normal -0.945659 -0.307264 0.106387
    outer loop
      vertex 83.1101 4.35344 9
      vertex 82.1388 4.91918 2
      vertex 82.473 3.89056 2
    endloop
  endfacet
  facet normal 0.584449 -0.804426 0.106387
    outer loop
      vertex 84.8899 4.35344 9
      vertex 84.652 3.25483 2
      vertex 85.527 3.89056 2
    endloop
  endfacet
  facet normal -0.945659 0.307265 0.106386
    outer loop
      vertex 82.9 5 9
      vertex 82.1388 5.08082 2
      vertex 82.1125 5 2
    endloop
  endfacet
  facet normal -0.945658 0.307266 0.106386
    outer loop
      vertex 82.1388 5.08082 2
      vertex 82.9 5 9
      vertex 83.1101 5.64656 9
    endloop
  endfacet
  facet normal -0.584449 0.804426 0.106387
    outer loop
      vertex 83.348 6.74517 2
      vertex 82.473 6.10944 2
      vertex 83.1101 5.64656 9
    endloop
  endfacet
  facet normal -0.584452 -0.804424 0.106386
    outer loop
      vertex 83.348 3.25483 2
      vertex 83.6601 3.95384 9
      vertex 83.1101 4.35344 9
    endloop
  endfacet
  facet normal -0.584459 -0.804419 0.106386
    outer loop
      vertex 83.6601 3.95384 9
      vertex 83.348 3.25483 2
      vertex 83.4167 3.20488 2
    endloop
  endfacet
  facet normal 0.945659 -0.307264 0.106387
    outer loop
      vertex 85.8612 4.91918 2
      vertex 84.8899 4.35344 9
      vertex 85.527 3.89056 2
    endloop
  endfacet
  facet normal 0 -0.994325 0.106387
    outer loop
      vertex 83.4167 3.20488 2
      vertex 84.3399 3.95384 9
      vertex 83.6601 3.95384 9
    endloop
  endfacet
  facet normal 0 -0.994325 0.106387
    outer loop
      vertex 84.3399 3.95384 9
      vertex 83.4167 3.20488 2
      vertex 84.5833 3.20488 2
    endloop
  endfacet
  facet normal 0.584452 -0.804424 0.106386
    outer loop
      vertex 84.5833 3.20488 2
      vertex 84.8899 4.35344 9
      vertex 84.3399 3.95384 9
    endloop
  endfacet
  facet normal 0.584459 -0.804419 0.106385
    outer loop
      vertex 84.8899 4.35344 9
      vertex 84.5833 3.20488 2
      vertex 84.652 3.25483 2
    endloop
  endfacet
  facet normal -0.584452 0.804424 0.106386
    outer loop
      vertex 83.4167 6.79512 2
      vertex 83.1101 5.64656 9
      vertex 83.6601 6.04616 9
    endloop
  endfacet
  facet normal -0.584461 0.804418 0.106385
    outer loop
      vertex 83.1101 5.64656 9
      vertex 83.4167 6.79512 2
      vertex 83.348 6.74517 2
    endloop
  endfacet
  facet normal 0.951056 0.309019 0
    outer loop
      vertex 85.1 5 10
      vertex 84.8899 5.64656 9
      vertex 84.8899 5.64656 10
    endloop
  endfacet
  facet normal 0.951056 0.309019 0
    outer loop
      vertex 84.8899 5.64656 9
      vertex 85.1 5 10
      vertex 85.1 5 9
    endloop
  endfacet
  facet normal -0.951056 0.309019 0
    outer loop
      vertex 82.9 5 9
      vertex 83.1101 5.64656 10
      vertex 83.1101 5.64656 9
    endloop
  endfacet
  facet normal -0.951056 0.309019 0
    outer loop
      vertex 83.1101 5.64656 10
      vertex 82.9 5 9
      vertex 82.9 5 10
    endloop
  endfacet
  facet normal 0 1 -0
    outer loop
      vertex 84.3399 6.04616 9
      vertex 83.6601 6.04616 10
      vertex 84.3399 6.04616 10
    endloop
  endfacet
  facet normal 0 1 0
    outer loop
      vertex 83.6601 6.04616 10
      vertex 84.3399 6.04616 9
      vertex 83.6601 6.04616 9
    endloop
  endfacet
  facet normal 0.587788 0.809015 -0
    outer loop
      vertex 84.8899 5.64656 9
      vertex 84.3399 6.04616 10
      vertex 84.8899 5.64656 10
    endloop
  endfacet
  facet normal 0.587788 0.809015 0
    outer loop
      vertex 84.3399 6.04616 10
      vertex 84.8899 5.64656 9
      vertex 84.3399 6.04616 9
    endloop
  endfacet
  facet normal 0 0 1
    outer loop
      vertex 84.8899 5.64656 10
      vertex 84.8899 4.35344 10
      vertex 85.1 5 10
    endloop
  endfacet
  facet normal 0 0 1
    outer loop
      vertex 84.3399 6.04616 10
      vertex 84.8899 4.35344 10
      vertex 84.8899 5.64656 10
    endloop
  endfacet
  facet normal 0 0 1
    outer loop
      vertex 84.3399 6.04616 10
      vertex 84.3399 3.95384 10
      vertex 84.8899 4.35344 10
    endloop
  endfacet
  facet normal -0 0 1
    outer loop
      vertex 83.6601 6.04616 10
      vertex 84.3399 3.95384 10
      vertex 84.3399 6.04616 10
    endloop
  endfacet
  facet normal 0 0 1
    outer loop
      vertex 83.6601 6.04616 10
      vertex 83.6601 3.95384 10
      vertex 84.3399 3.95384 10
    endloop
  endfacet
  facet normal -0 0 1
    outer loop
      vertex 83.1101 5.64656 10
      vertex 83.6601 3.95384 10
      vertex 83.6601 6.04616 10
    endloop
  endfacet
  facet normal 0 0 1
    outer loop
      vertex 83.1101 5.64656 10
      vertex 83.1101 4.35344 10
      vertex 83.6601 3.95384 10
    endloop
  endfacet
  facet normal 0 -0 1
    outer loop
      vertex 83.1101 4.35344 10
      vertex 83.1101 5.64656 10
      vertex 82.9 5 10
    endloop
  endfacet
  facet normal -0.587788 0.809015 0
    outer loop
      vertex 83.6601 6.04616 9
      vertex 83.1101 5.64656 10
      vertex 83.6601 6.04616 10
    endloop
  endfacet
  facet normal -0.587788 0.809015 0
    outer loop
      vertex 83.1101 5.64656 10
      vertex 83.6601 6.04616 9
      vertex 83.1101 5.64656 9
    endloop
  endfacet
  facet normal -0.951056 -0.309019 0
    outer loop
      vertex 83.1101 4.35344 9
      vertex 82.9 5 10
      vertex 82.9 5 9
    endloop
  endfacet
  facet normal -0.951056 -0.309019 0
    outer loop
      vertex 82.9 5 10
      vertex 83.1101 4.35344 9
      vertex 83.1101 4.35344 10
    endloop
  endfacet
  facet normal 0.587788 -0.809015 0
    outer loop
      vertex 84.3399 3.95384 9
      vertex 84.8899 4.35344 10
      vertex 84.3399 3.95384 10
    endloop
  endfacet
  facet normal 0.587788 -0.809015 0
    outer loop
      vertex 84.8899 4.35344 10
      vertex 84.3399 3.95384 9
      vertex 84.8899 4.35344 9
    endloop
  endfacet
  facet normal -0.587788 -0.809015 0
    outer loop
      vertex 83.1101 4.35344 9
      vertex 83.6601 3.95384 10
      vertex 83.1101 4.35344 10
    endloop
  endfacet
  facet normal -0.587788 -0.809015 -0
    outer loop
      vertex 83.6601 3.95384 10
      vertex 83.1101 4.35344 9
      vertex 83.6601 3.95384 9
    endloop
  endfacet
  facet normal 0.951056 -0.309019 0
    outer loop
      vertex 84.8899 4.35344 10
      vertex 85.1 5 9
      vertex 85.1 5 10
    endloop
  endfacet
  facet normal 0.951056 -0.309019 0
    outer loop
      vertex 85.1 5 9
      vertex 84.8899 4.35344 10
      vertex 84.8899 4.35344 9
    endloop
  endfacet
  facet normal 0 -1 0
    outer loop
      vertex 83.6601 3.95384 9
      vertex 84.3399 3.95384 10
      vertex 83.6601 3.95384 10
    endloop
  endfacet
  facet normal 0 -1 -0
    outer loop
      vertex 84.3399 3.95384 10
      vertex 83.6601 3.95384 9
      vertex 84.3399 3.95384 9
    endloop
  endfacet
  facet normal -1 0 0
    outer loop
      vertex 0 0 0
      vertex 0 17.5 2
      vertex 0 17.5 0
    endloop
  endfacet
  facet normal -1 -0 0
    outer loop
      vertex 0 17.5 2
      vertex 0 0 0
      vertex 0 0 2
    endloop
  endfacet
  facet normal -1 0 0
    outer loop
      vertex 0 52.5 0
      vertex 0 70 2
      vertex 0 70 0
    endloop
  endfacet
  facet normal -1 -0 0
    outer loop
      vertex 0 70 2
      vertex 0 52.5 0
      vertex 0 52.5 2
    endloop
  endfacet
  facet normal -0 0 1
    outer loop
      vertex -2 22.5 2
      vertex 15 15 2
      vertex -2 47.5 2
    endloop
  endfacet
  facet normal 0 0 1
    outer loop
      vertex 0 52.5 2
      vertex -9 47.5 2
      vertex -2 47.5 2
    endloop
  endfacet
  facet normal 0 0 1
    outer loop
      vertex -9 47.5 2
      vertex -12 52.5 2
      vertex -9 22.5 2
    endloop
  endfacet
  facet normal -0 0 1
    outer loop
      vertex -12 52.5 2
      vertex -9 47.5 2
      vertex 0 52.5 2
    endloop
  endfacet
  facet normal 0 0 1
    outer loop
      vertex 15 15 2
      vertex -2 22.5 2
      vertex 0 17.5 2
    endloop
  endfacet
  facet normal -0 0 1
    outer loop
      vertex -9 22.5 2
      vertex 0 17.5 2
      vertex -2 22.5 2
    endloop
  endfacet
  facet normal 0 0 1
    outer loop
      vertex -9 22.5 2
      vertex -12 17.5 2
      vertex 0 17.5 2
    endloop
  endfacet
  facet normal 0 0 1
    outer loop
      vertex -12 17.5 2
      vertex -9 22.5 2
      vertex -12 52.5 2
    endloop
  endfacet
  facet normal 0 0 1
    outer loop
      vertex 15 70 2
      vertex 6.52702 62.8906 2
      vertex 15 15 2
    endloop
  endfacet
  facet normal 0 0 1
    outer loop
      vertex 15 15 2
      vertex 6.86124 5.08082 2
      vertex 6.8875 5 2
    endloop
  endfacet
  facet normal -0 0 1
    outer loop
      vertex 0 52.5 2
      vertex 15 15 2
      vertex 6.52702 62.8906 2
    endloop
  endfacet
  facet normal 0 0 1
    outer loop
      vertex 15 15 2
      vertex 6.52702 6.10944 2
      vertex 6.86124 5.08082 2
    endloop
  endfacet
  facet normal 0 0 1
    outer loop
      vertex 0 52.5 2
      vertex 6.52702 62.8906 2
      vertex 5.65202 62.2548 2
    endloop
  endfacet
  facet normal 0 -0 1
    outer loop
      vertex 5.58327 6.79512 2
      vertex 15 15 2
      vertex 0 17.5 2
    endloop
  endfacet
  facet normal 0 0 1
    outer loop
      vertex 0 52.5 2
      vertex 5.65202 62.2548 2
      vertex 5.58327 62.2049 2
    endloop
  endfacet
  facet normal 0 0 1
    outer loop
      vertex 15 15 2
      vertex 5.65202 6.74517 2
      vertex 6.52702 6.10944 2
    endloop
  endfacet
  facet normal 0 0 1
    outer loop
      vertex 0 52.5 2
      vertex 5.58327 62.2049 2
      vertex 4.41673 62.2049 2
    endloop
  endfacet
  facet normal -0 0 1
    outer loop
      vertex -2 47.5 2
      vertex 15 15 2
      vertex 0 52.5 2
    endloop
  endfacet
  facet normal 0 0 1
    outer loop
      vertex 0 52.5 2
      vertex 4.41673 62.2049 2
      vertex 4.34798 62.2548 2
    endloop
  endfacet
  facet normal 0 0 1
    outer loop
      vertex 5.58327 6.79512 2
      vertex 0 17.5 2
      vertex 4.41673 6.79512 2
    endloop
  endfacet
  facet normal 0 0 1
    outer loop
      vertex 0 52.5 2
      vertex 4.34798 62.2548 2
      vertex 3.47298 62.8906 2
    endloop
  endfacet
  facet normal 0 0 1
    outer loop
      vertex 15 15 2
      vertex 5.58327 6.79512 2
      vertex 5.65202 6.74517 2
    endloop
  endfacet
  facet normal 0 0 1
    outer loop
      vertex 0 52.5 2
      vertex 3.47298 62.8906 2
      vertex 3.13876 63.9192 2
    endloop
  endfacet
  facet normal 0 0 1
    outer loop
      vertex 4.41673 6.79512 2
      vertex 0 17.5 2
      vertex 4.34798 6.74517 2
    endloop
  endfacet
  facet normal 0 0 1
    outer loop
      vertex 0 52.5 2
      vertex 3.13876 63.9192 2
      vertex 3.1125 64 2
    endloop
  endfacet
  facet normal 0 0 1
    outer loop
      vertex 3.47298 6.10944 2
      vertex 0 17.5 2
      vertex 3.13876 5.08082 2
    endloop
  endfacet
  facet normal 0 0 1
    outer loop
      vertex 6.86124 63.9192 2
      vertex 15 70 2
      vertex 6.8875 64 2
    endloop
  endfacet
  facet normal 0 0 1
    outer loop
      vertex 15 70 2
      vertex 6.86124 64.0808 2
      vertex 6.8875 64 2
    endloop
  endfacet
  facet normal 0 0 1
    outer loop
      vertex 15 70 2
      vertex 6.52702 65.1094 2
      vertex 6.86124 64.0808 2
    endloop
  endfacet
  facet normal 0 0 1
    outer loop
      vertex 15 70 2
      vertex 5.65202 65.7452 2
      vertex 6.52702 65.1094 2
    endloop
  endfacet
  facet normal 0 0 1
    outer loop
      vertex 15 70 2
      vertex 5.58327 65.7951 2
      vertex 5.65202 65.7452 2
    endloop
  endfacet
  facet normal -0 0 1
    outer loop
      vertex 0 70 2
      vertex 5.58327 65.7951 2
      vertex 15 70 2
    endloop
  endfacet
  facet normal 0 0 1
    outer loop
      vertex 0 70 2
      vertex 3.13876 64.0808 2
      vertex 3.47298 65.1094 2
    endloop
  endfacet
  facet normal 0 0 1
    outer loop
      vertex 0 52.5 2
      vertex 3.1125 64 2
      vertex 0 70 2
    endloop
  endfacet
  facet normal 0 0 1
    outer loop
      vertex 3.13876 64.0808 2
      vertex 0 70 2
      vertex 3.1125 64 2
    endloop
  endfacet
  facet normal 0 0 1
    outer loop
      vertex 4.34798 65.7452 2
      vertex 0 70 2
      vertex 3.47298 65.1094 2
    endloop
  endfacet
  facet normal 0 0 1
    outer loop
      vertex 4.41673 65.7951 2
      vertex 0 70 2
      vertex 4.34798 65.7452 2
    endloop
  endfacet
  facet normal 0 0 1
    outer loop
      vertex 5.58327 65.7951 2
      vertex 0 70 2
      vertex 4.41673 65.7951 2
    endloop
  endfacet
  facet normal 0 0 1
    outer loop
      vertex 90 15 2
      vertex 85.8875 5 2
      vertex 90 0 2
    endloop
  endfacet
  facet normal 0 0 1
    outer loop
      vertex 90 15 2
      vertex 85.8612 5.08082 2
      vertex 85.8875 5 2
    endloop
  endfacet
  facet normal 0 0 1
    outer loop
      vertex 90 15 2
      vertex 85.527 6.10944 2
      vertex 85.8612 5.08082 2
    endloop
  endfacet
  facet normal 0 0 1
    outer loop
      vertex 90 15 2
      vertex 84.652 6.74517 2
      vertex 85.527 6.10944 2
    endloop
  endfacet
  facet normal 0 0 1
    outer loop
      vertex 90 15 2
      vertex 84.5833 6.79512 2
      vertex 84.652 6.74517 2
    endloop
  endfacet
  facet normal 0 0 1
    outer loop
      vertex 90 15 2
      vertex 83.4167 6.79512 2
      vertex 84.5833 6.79512 2
    endloop
  endfacet
  facet normal 0 0 1
    outer loop
      vertex 90 15 2
      vertex 83.348 6.74517 2
      vertex 83.4167 6.79512 2
    endloop
  endfacet
  facet normal 0 0 1
    outer loop
      vertex 90 15 2
      vertex 82.473 6.10944 2
      vertex 83.348 6.74517 2
    endloop
  endfacet
  facet normal 0 0 1
    outer loop
      vertex 15 15 2
      vertex 82.1388 5.08082 2
      vertex 82.473 6.10944 2
    endloop
  endfacet
  facet normal 0 0 1
    outer loop
      vertex 82.1388 5.08082 2
      vertex 15 15 2
      vertex 82.1125 5 2
    endloop
  endfacet
  facet normal -0 0 1
    outer loop
      vertex 15 15 2
      vertex 82.473 6.10944 2
      vertex 90 15 2
    endloop
  endfacet
  facet normal -0 0 1
    outer loop
      vertex 85.8612 4.91918 2
      vertex 90 0 2
      vertex 85.8875 5 2
    endloop
  endfacet
  facet normal -0 0 1
    outer loop
      vertex 85.527 3.89056 2
      vertex 90 0 2
      vertex 85.8612 4.91918 2
    endloop
  endfacet
  facet normal -0 0 1
    outer loop
      vertex 84.652 3.25483 2
      vertex 90 0 2
      vertex 85.527 3.89056 2
    endloop
  endfacet
  facet normal -0 0 1
    outer loop
      vertex 84.5833 3.20488 2
      vertex 90 0 2
      vertex 84.652 3.25483 2
    endloop
  endfacet
  facet normal -0 0 1
    outer loop
      vertex 83.4167 3.20488 2
      vertex 90 0 2
      vertex 84.5833 3.20488 2
    endloop
  endfacet
  facet normal 0 0 1
    outer loop
      vertex 82.473 3.89056 2
      vertex 83.4167 3.20488 2
      vertex 83.348 3.25483 2
    endloop
  endfacet
  facet normal 0 0 1
    outer loop
      vertex 15 15 2
      vertex 82.1388 4.91918 2
      vertex 82.1125 5 2
    endloop
  endfacet
  facet normal 0 0 1
    outer loop
      vertex 82.1388 4.91918 2
      vertex 15 15 2
      vertex 82.473 3.89056 2
    endloop
  endfacet
  facet normal 0 0 1
    outer loop
      vertex 6.52702 3.89056 2
      vertex 82.473 3.89056 2
      vertex 15 15 2
    endloop
  endfacet
  facet normal 0 0 1
    outer loop
      vertex 82.473 3.89056 2
      vertex 6.52702 3.89056 2
      vertex 83.4167 3.20488 2
    endloop
  endfacet
  facet normal 0 0 1
    outer loop
      vertex 6.52702 62.8906 2
      vertex 15 70 2
      vertex 6.86124 63.9192 2
    endloop
  endfacet
  facet normal 0 0 1
    outer loop
      vertex 6.86124 4.91918 2
      vertex 15 15 2
      vertex 6.8875 5 2
    endloop
  endfacet
  facet normal 0 0 1
    outer loop
      vertex 6.52702 3.89056 2
      vertex 15 15 2
      vertex 6.86124 4.91918 2
    endloop
  endfacet
  facet normal -0 0 1
    outer loop
      vertex 5.65202 3.25483 2
      vertex 83.4167 3.20488 2
      vertex 6.52702 3.89056 2
    endloop
  endfacet
  facet normal 0 0 1
    outer loop
      vertex 5.58327 3.20488 2
      vertex 83.4167 3.20488 2
      vertex 5.65202 3.25483 2
    endloop
  endfacet
  facet normal 0 0 1
    outer loop
      vertex 0 0 2
      vertex 83.4167 3.20488 2
      vertex 5.58327 3.20488 2
    endloop
  endfacet
  facet normal 0 0 1
    outer loop
      vertex 0 0 2
      vertex 5.58327 3.20488 2
      vertex 4.41673 3.20488 2
    endloop
  endfacet
  facet normal 0 0 1
    outer loop
      vertex 0 0 2
      vertex 4.34798 3.25483 2
      vertex 3.47298 3.89056 2
    endloop
  endfacet
  facet normal 0 0 1
    outer loop
      vertex 4.34798 6.74517 2
      vertex 0 17.5 2
      vertex 3.47298 6.10944 2
    endloop
  endfacet
  facet normal 0 0 1
    outer loop
      vertex 3.13876 5.08082 2
      vertex 0 17.5 2
      vertex 3.1125 5 2
    endloop
  endfacet
  facet normal 0 0 1
    outer loop
      vertex 83.4167 3.20488 2
      vertex 0 0 2
      vertex 90 0 2
    endloop
  endfacet
  facet normal 0 0 1
    outer loop
      vertex 4.34798 3.25483 2
      vertex 0 0 2
      vertex 4.41673 3.20488 2
    endloop
  endfacet
  facet normal 0 0 1
    outer loop
      vertex 3.13876 4.91918 2
      vertex 0 0 2
      vertex 3.47298 3.89056 2
    endloop
  endfacet
  facet normal 0 0 1
    outer loop
      vertex 3.1125 5 2
      vertex 0 0 2
      vertex 3.13876 4.91918 2
    endloop
  endfacet
  facet normal 0 0 1
    outer loop
      vertex 0 0 2
      vertex 3.1125 5 2
      vertex 0 17.5 2
    endloop
  endfacet
  facet normal 1 -0 0
    outer loop
      vertex 90 0 2
      vertex 90 15 0
      vertex 90 15 2
    endloop
  endfacet
  facet normal 1 0 0
    outer loop
      vertex 90 15 0
      vertex 90 0 2
      vertex 90 0 0
    endloop
  endfacet
  facet normal 0 1 -0
    outer loop
      vertex 15 70 0
      vertex 0 70 2
      vertex 15 70 2
    endloop
  endfacet
  facet normal 0 1 0
    outer loop
      vertex 0 70 2
      vertex 15 70 0
      vertex 0 70 0
    endloop
  endfacet
  facet normal 0 0 -1
    outer loop
      vertex -2 47.5 0
      vertex 15 15 0
      vertex -2 22.5 0
    endloop
  endfacet
  facet normal 0 0 -1
    outer loop
      vertex 0 17.5 0
      vertex -9 22.5 0
      vertex -2 22.5 0
    endloop
  endfacet
  facet normal -0 0 -1
    outer loop
      vertex -9 22.5 0
      vertex -12 17.5 0
      vertex -9 47.5 0
    endloop
  endfacet
  facet normal 0 0 -1
    outer loop
      vertex -12 17.5 0
      vertex -9 22.5 0
      vertex 0 17.5 0
    endloop
  endfacet
  facet normal 0 0 -1
    outer loop
      vertex 90 0 0
      vertex 15 15 0
      vertex 90 15 0
    endloop
  endfacet
  facet normal 0 0 -1
    outer loop
      vertex 0 0 0
      vertex 15 15 0
      vertex 90 0 0
    endloop
  endfacet
  facet normal 0 0 -1
    outer loop
      vertex 0 17.5 0
      vertex 15 15 0
      vertex 0 0 0
    endloop
  endfacet
  facet normal 0 0 -1
    outer loop
      vertex -2 22.5 0
      vertex 15 15 0
      vertex 0 17.5 0
    endloop
  endfacet
  facet normal 0 0 -1
    outer loop
      vertex 15 15 0
      vertex 0 52.5 0
      vertex 15 70 0
    endloop
  endfacet
  facet normal -0 0 -1
    outer loop
      vertex 15 70 0
      vertex 0 52.5 0
      vertex 0 70 0
    endloop
  endfacet
  facet normal 0 0 -1
    outer loop
      vertex 15 15 0
      vertex -2 47.5 0
      vertex 0 52.5 0
    endloop
  endfacet
  facet normal 0 0 -1
    outer loop
      vertex -9 47.5 0
      vertex 0 52.5 0
      vertex -2 47.5 0
    endloop
  endfacet
  facet normal 0 0 -1
    outer loop
      vertex -9 47.5 0
      vertex -12 52.5 0
      vertex 0 52.5 0
    endloop
  endfacet
  facet normal 0 0 -1
    outer loop
      vertex -12 52.5 0
      vertex -9 47.5 0
      vertex -12 17.5 0
    endloop
  endfacet
  facet normal 0 -1 0
    outer loop
      vertex 0 0 0
      vertex 90 0 2
      vertex 0 0 2
    endloop
  endfacet
  facet normal 0 -1 -0
    outer loop
      vertex 90 0 2
      vertex 0 0 0
      vertex 90 0 0
    endloop
  endfacet
  facet normal -1 0 0
    outer loop
      vertex -12 17.5 0
      vertex -12 52.5 2
      vertex -12 52.5 0
    endloop
  endfacet
  facet normal -1 -0 0
    outer loop
      vertex -12 52.5 2
      vertex -12 17.5 0
      vertex -12 17.5 2
    endloop
  endfacet
  facet normal 0 1 -0
    outer loop
      vertex 0 52.5 0
      vertex -12 52.5 2
      vertex 0 52.5 2
    endloop
  endfacet
  facet normal 0 1 0
    outer loop
      vertex -12 52.5 2
      vertex 0 52.5 0
      vertex -12 52.5 0
    endloop
  endfacet
  facet normal 0 -1 0
    outer loop
      vertex -12 17.5 0
      vertex 0 17.5 2
      vertex -12 17.5 2
    endloop
  endfacet
  facet normal 0 -1 -0
    outer loop
      vertex 0 17.5 2
      vertex -12 17.5 0
      vertex 0 17.5 0
    endloop
  endfacet
  facet normal 1 -0 0
    outer loop
      vertex -9 22.5 2
      vertex -9 47.5 0
      vertex -9 47.5 2
    endloop
  endfacet
  facet normal 1 0 0
    outer loop
      vertex -9 47.5 0
      vertex -9 22.5 2
      vertex -9 22.5 0
    endloop
  endfacet
  facet normal -1 0 0
    outer loop
      vertex -2 22.5 0
      vertex -2 47.5 2
      vertex -2 47.5 0
    endloop
  endfacet
  facet normal -1 -0 0
    outer loop
      vertex -2 47.5 2
      vertex -2 22.5 0
      vertex -2 22.5 2
    endloop
  endfacet
  facet normal 0 1 -0
    outer loop
      vertex -2 22.5 0
      vertex -9 22.5 2
      vertex -2 22.5 2
    endloop
  endfacet
  facet normal 0 1 0
    outer loop
      vertex -9 22.5 2
      vertex -2 22.5 0
      vertex -9 22.5 0
    endloop
  endfacet
  facet normal 0 -1 0
    outer loop
      vertex -9 47.5 0
      vertex -2 47.5 2
      vertex -9 47.5 2
    endloop
  endfacet
  facet normal 0 -1 -0
    outer loop
      vertex -2 47.5 2
      vertex -9 47.5 0
      vertex -2 47.5 0
    endloop
  endfacet
  facet normal 1 -0 0
    outer loop
      vertex 15 15 2
      vertex 15 70 0
      vertex 15 70 2
    endloop
  endfacet
  facet normal 1 0 0
    outer loop
      vertex 15 70 0
      vertex 15 15 2
      vertex 15 15 0
    endloop
  endfacet
  facet normal 0 1 -0
    outer loop
      vertex 90 15 0
      vertex 15 15 2
      vertex 90 15 2
    endloop
  endfacet
  facet normal 0 1 0
    outer loop
      vertex 15 15 2
      vertex 90 15 0
      vertex 15 15 0
    endloop
  endfacet
endsolid OpenSCAD_Model
