solid OpenSCAD_Model
  facet normal -1 0 0
    outer loop
      vertex 0 21.4 0
      vertex 0 0 0
      vertex 0 21.4 3.5
    endloop
  endfacet
  facet normal -1 0 0
    outer loop
      vertex 0 56.4 3.5
      vertex 0 78.4 0
      vertex 0 56.4 0
    endloop
  endfacet
  facet normal -1 0 0
    outer loop
      vertex 0 78.4 0
      vertex 0 56.4 3.5
      vertex 0 78.4 26
    endloop
  endfacet
  facet normal -1 0 0
    outer loop
      vertex 0 0 26
      vertex 0 56.4 3.5
      vertex 0 21.4 3.5
    endloop
  endfacet
  facet normal -1 0 0
    outer loop
      vertex 0 0 26
      vertex 0 21.4 3.5
      vertex 0 0 0
    endloop
  endfacet
  facet normal -1 0 0
    outer loop
      vertex 0 56.4 3.5
      vertex 0 0 26
      vertex 0 78.4 26
    endloop
  endfacet
  facet normal 0 0 1
    outer loop
      vertex 93.4 78.4 26
      vertex 92.4 47.4 26
      vertex 93.4 0 26
    endloop
  endfacet
  facet normal 0 0 1
    outer loop
      vertex 93.4 78.4 26
      vertex 1 47.4 26
      vertex 92.4 47.4 26
    endloop
  endfacet
  facet normal 0 0 1
    outer loop
      vertex 0 0 26
      vertex 1 47.4 26
      vertex 0 78.4 26
    endloop
  endfacet
  facet normal -0 0 1
    outer loop
      vertex 0 78.4 26
      vertex 1 47.4 26
      vertex 93.4 78.4 26
    endloop
  endfacet
  facet normal -0 0 1
    outer loop
      vertex 92.4 1 26
      vertex 93.4 0 26
      vertex 92.4 47.4 26
    endloop
  endfacet
  facet normal -0 0 1
    outer loop
      vertex 1 1 26
      vertex 93.4 0 26
      vertex 92.4 1 26
    endloop
  endfacet
  facet normal 0 0 1
    outer loop
      vertex 1 1 26
      vertex 0 0 26
      vertex 93.4 0 26
    endloop
  endfacet
  facet normal 0 0 1
    outer loop
      vertex 1 47.4 26
      vertex 0 0 26
      vertex 1 1 26
    endloop
  endfacet
  facet normal 1 -0 0
    outer loop
      vertex 93.4 67.3511 5.40423
      vertex 93.4 78.4 0
      vertex 93.4 78.4 26
    endloop
  endfacet
  facet normal 1 0 0
    outer loop
      vertex 93.4 78.4 0
      vertex 93.4 67.3511 5.40423
      vertex 93.4 68.8042 2.06423
    endloop
  endfacet
  facet normal 1 0 0
    outer loop
      vertex 93.4 78.4 26
      vertex 93.4 65 6.68
      vertex 93.4 67.3511 5.40423
    endloop
  endfacet
  facet normal 1 0 0
    outer loop
      vertex 93.4 56.4 3.5
      vertex 93.4 65 6.68
      vertex 93.4 78.4 26
    endloop
  endfacet
  facet normal 1 0 0
    outer loop
      vertex 93.4 56.4 0
      vertex 93.4 61.1958 2.06423
      vertex 93.4 56.4 3.5
    endloop
  endfacet
  facet normal 1 0 0
    outer loop
      vertex 93.4 62.6489 5.40423
      vertex 93.4 56.4 3.5
      vertex 93.4 61.1958 2.06423
    endloop
  endfacet
  facet normal 1 0 0
    outer loop
      vertex 93.4 65 6.68
      vertex 93.4 56.4 3.5
      vertex 93.4 62.6489 5.40423
    endloop
  endfacet
  facet normal 1 -0 0
    outer loop
      vertex 93.4 0 26
      vertex 93.4 56.4 3.5
      vertex 93.4 78.4 26
    endloop
  endfacet
  facet normal 1 0 0
    outer loop
      vertex 93.4 56.4 3.5
      vertex 93.4 0 26
      vertex 93.4 21.4 3.5
    endloop
  endfacet
  facet normal 1 0 0
    outer loop
      vertex 93.4 0 0
      vertex 93.4 21.4 3.5
      vertex 93.4 0 26
    endloop
  endfacet
  facet normal 1 0 0
    outer loop
      vertex 93.4 21.4 3.5
      vertex 93.4 0 0
      vertex 93.4 21.4 0
    endloop
  endfacet
  facet normal 1 0 0
    outer loop
      vertex 93.4 78.4 0
      vertex 93.4 68.8042 2.06423
      vertex 93.4 68.8042 0
    endloop
  endfacet
  facet normal 1 0 0
    outer loop
      vertex 93.4 61.1958 2.06423
      vertex 93.4 56.4 0
      vertex 93.4 61.1958 0
    endloop
  endfacet
  facet normal 0 1 -0
    outer loop
      vertex 28.9 78.4 0
      vertex 4 78.4 1
      vertex 28.9 78.4 3.5
    endloop
  endfacet
  facet normal 0 1 0
    outer loop
      vertex 4 78.4 1
      vertex 28.9 78.4 0
      vertex 4 78.4 0
    endloop
  endfacet
  facet normal 0 1 0
    outer loop
      vertex 93.4 78.4 26
      vertex 63.9 78.4 3.5
      vertex 0 78.4 26
    endloop
  endfacet
  facet normal 0 1 0
    outer loop
      vertex 89.4 78.4 1
      vertex 93.4 78.4 26
      vertex 91.4 78.4 1
    endloop
  endfacet
  facet normal 0 1 -0
    outer loop
      vertex 93.4 78.4 0
      vertex 91.4 78.4 1
      vertex 93.4 78.4 26
    endloop
  endfacet
  facet normal 0 1 0
    outer loop
      vertex 91.4 78.4 1
      vertex 93.4 78.4 0
      vertex 91.4 78.4 0
    endloop
  endfacet
  facet normal 0 1 -0
    outer loop
      vertex 28.9 78.4 3.5
      vertex 0 78.4 26
      vertex 63.9 78.4 3.5
    endloop
  endfacet
  facet normal 0 1 -0
    outer loop
      vertex 4 78.4 1
      vertex 0 78.4 26
      vertex 28.9 78.4 3.5
    endloop
  endfacet
  facet normal 0 1 -0
    outer loop
      vertex 2 78.4 1
      vertex 0 78.4 26
      vertex 4 78.4 1
    endloop
  endfacet
  facet normal 0 1 0
    outer loop
      vertex 0 78.4 0
      vertex 2 78.4 1
      vertex 2 78.4 0
    endloop
  endfacet
  facet normal 0 1 0
    outer loop
      vertex 2 78.4 1
      vertex 0 78.4 0
      vertex 0 78.4 26
    endloop
  endfacet
  facet normal 0 1 0
    outer loop
      vertex 93.4 78.4 26
      vertex 89.4 78.4 1
      vertex 63.9 78.4 3.5
    endloop
  endfacet
  facet normal 0 1 0
    outer loop
      vertex 63.9 78.4 0
      vertex 89.4 78.4 1
      vertex 89.4 78.4 0
    endloop
  endfacet
  facet normal 0 1 0
    outer loop
      vertex 89.4 78.4 1
      vertex 63.9 78.4 0
      vertex 63.9 78.4 3.5
    endloop
  endfacet
  facet normal 0 0 -1
    outer loop
      vertex 0 56.4 0
      vertex 2 78.4 0
      vertex 2 56.4 0
    endloop
  endfacet
  facet normal -0 0 -1
    outer loop
      vertex 2 78.4 0
      vertex 0 56.4 0
      vertex 0 78.4 0
    endloop
  endfacet
  facet normal 0 0 -1
    outer loop
      vertex 0 0 0
      vertex 2 21.4 0
      vertex 2 0 0
    endloop
  endfacet
  facet normal -0 0 -1
    outer loop
      vertex 2 21.4 0
      vertex 0 0 0
      vertex 0 21.4 0
    endloop
  endfacet
  facet normal 0 0 -1
    outer loop
      vertex 91.4 0 0
      vertex 93.4 21.4 0
      vertex 93.4 0 0
    endloop
  endfacet
  facet normal -0 0 -1
    outer loop
      vertex 93.4 21.4 0
      vertex 91.4 0 0
      vertex 91.4 21.4 0
    endloop
  endfacet
  facet normal 0 0 -1
    outer loop
      vertex 91.4 68.8042 0
      vertex 93.4 78.4 0
      vertex 93.4 68.8042 0
    endloop
  endfacet
  facet normal -0 0 -1
    outer loop
      vertex 93.4 78.4 0
      vertex 91.4 68.8042 0
      vertex 91.4 78.4 0
    endloop
  endfacet
  facet normal 0 0 -1
    outer loop
      vertex 91.4 56.4 0
      vertex 93.4 61.1958 0
      vertex 93.4 56.4 0
    endloop
  endfacet
  facet normal -0 0 -1
    outer loop
      vertex 93.4 61.1958 0
      vertex 91.4 56.4 0
      vertex 91.4 61.1958 0
    endloop
  endfacet
  facet normal 0 0 -1
    outer loop
      vertex 4 76.4 0
      vertex 28.9 78.4 0
      vertex 28.9 76.4 0
    endloop
  endfacet
  facet normal -0 0 -1
    outer loop
      vertex 28.9 78.4 0
      vertex 4 76.4 0
      vertex 4 78.4 0
    endloop
  endfacet
  facet normal 0 0 -1
    outer loop
      vertex 63.9 76.4 0
      vertex 89.4 78.4 0
      vertex 89.4 76.4 0
    endloop
  endfacet
  facet normal -0 0 -1
    outer loop
      vertex 89.4 78.4 0
      vertex 63.9 76.4 0
      vertex 63.9 78.4 0
    endloop
  endfacet
  facet normal 0 0 -1
    outer loop
      vertex 4 0 0
      vertex 28.9 2 0
      vertex 28.9 0 0
    endloop
  endfacet
  facet normal -0 0 -1
    outer loop
      vertex 28.9 2 0
      vertex 4 0 0
      vertex 4 2 0
    endloop
  endfacet
  facet normal 0 0 -1
    outer loop
      vertex 63.9 0 0
      vertex 89.4 2 0
      vertex 89.4 0 0
    endloop
  endfacet
  facet normal -0 0 -1
    outer loop
      vertex 89.4 2 0
      vertex 63.9 0 0
      vertex 63.9 2 0
    endloop
  endfacet
  facet normal 0 -1 0
    outer loop
      vertex 63.9 0 0
      vertex 89.4 0 1
      vertex 63.9 0 3.5
    endloop
  endfacet
  facet normal 0 -1 -0
    outer loop
      vertex 89.4 0 1
      vertex 63.9 0 0
      vertex 89.4 0 0
    endloop
  endfacet
  facet normal 0 -1 0
    outer loop
      vertex 0 0 26
      vertex 28.9 0 3.5
      vertex 93.4 0 26
    endloop
  endfacet
  facet normal 0 -1 0
    outer loop
      vertex 4 0 1
      vertex 0 0 26
      vertex 2 0 1
    endloop
  endfacet
  facet normal 0 -1 0
    outer loop
      vertex 0 0 0
      vertex 2 0 1
      vertex 0 0 26
    endloop
  endfacet
  facet normal 0 -1 -0
    outer loop
      vertex 2 0 1
      vertex 0 0 0
      vertex 2 0 0
    endloop
  endfacet
  facet normal 0 -1 0
    outer loop
      vertex 63.9 0 3.5
      vertex 93.4 0 26
      vertex 28.9 0 3.5
    endloop
  endfacet
  facet normal 0 -1 0
    outer loop
      vertex 89.4 0 1
      vertex 93.4 0 26
      vertex 63.9 0 3.5
    endloop
  endfacet
  facet normal 0 -1 0
    outer loop
      vertex 91.4 0 1
      vertex 93.4 0 26
      vertex 89.4 0 1
    endloop
  endfacet
  facet normal 0 -1 0
    outer loop
      vertex 93.4 0 0
      vertex 91.4 0 1
      vertex 91.4 0 0
    endloop
  endfacet
  facet normal 0 -1 0
    outer loop
      vertex 91.4 0 1
      vertex 93.4 0 0
      vertex 93.4 0 26
    endloop
  endfacet
  facet normal 0 -1 0
    outer loop
      vertex 0 0 26
      vertex 4 0 1
      vertex 28.9 0 3.5
    endloop
  endfacet
  facet normal 0 -1 0
    outer loop
      vertex 28.9 0 0
      vertex 4 0 1
      vertex 4 0 0
    endloop
  endfacet
  facet normal 0 -1 0
    outer loop
      vertex 4 0 1
      vertex 28.9 0 0
      vertex 28.9 0 3.5
    endloop
  endfacet
  facet normal 1 0 0
    outer loop
      vertex 1 47.4 26
      vertex 1 21.4 3.5
      vertex 1 47.4 25
    endloop
  endfacet
  facet normal 1 -0 0
    outer loop
      vertex 1 1 26
      vertex 1 21.4 3.5
      vertex 1 47.4 26
    endloop
  endfacet
  facet normal 1 0 0
    outer loop
      vertex 1 1 1
      vertex 1 21.4 3.5
      vertex 1 1 26
    endloop
  endfacet
  facet normal 1 0 0
    outer loop
      vertex 1 21.4 3.5
      vertex 1 1 1
      vertex 1 21.4 1
    endloop
  endfacet
  facet normal 1 0 0
    outer loop
      vertex 1 77.4 25
      vertex 1 56.4 3.5
      vertex 1 77.4 1
    endloop
  endfacet
  facet normal 1 -0 0
    outer loop
      vertex 1 47.4 25
      vertex 1 56.4 3.5
      vertex 1 77.4 25
    endloop
  endfacet
  facet normal 1 0 0
    outer loop
      vertex 1 56.4 3.5
      vertex 1 47.4 25
      vertex 1 21.4 3.5
    endloop
  endfacet
  facet normal 1 0 0
    outer loop
      vertex 1 77.4 1
      vertex 1 56.4 3.5
      vertex 1 56.4 1
    endloop
  endfacet
  facet normal 0 0 -1
    outer loop
      vertex 1 47.4 25
      vertex 92.4 77.4 25
      vertex 92.4 47.4 25
    endloop
  endfacet
  facet normal -0 0 -1
    outer loop
      vertex 92.4 77.4 25
      vertex 1 47.4 25
      vertex 1 77.4 25
    endloop
  endfacet
  facet normal -1 0 0
    outer loop
      vertex 92.4 21.4 1
      vertex 92.4 1 1
      vertex 92.4 21.4 3.5
    endloop
  endfacet
  facet normal -1 0 0
    outer loop
      vertex 92.4 61.1958 1
      vertex 92.4 56.4 1
      vertex 92.4 61.1958 2.06423
    endloop
  endfacet
  facet normal -1 0 0
    outer loop
      vertex 92.4 68.8042 2.06423
      vertex 92.4 77.4 1
      vertex 92.4 68.8042 1
    endloop
  endfacet
  facet normal -1 0 0
    outer loop
      vertex 92.4 67.3511 5.40423
      vertex 92.4 77.4 1
      vertex 92.4 68.8042 2.06423
    endloop
  endfacet
  facet normal -1 0 0
    outer loop
      vertex 92.4 77.4 1
      vertex 92.4 67.3511 5.40423
      vertex 92.4 77.4 25
    endloop
  endfacet
  facet normal -1 0 0
    outer loop
      vertex 92.4 65 6.68
      vertex 92.4 77.4 25
      vertex 92.4 67.3511 5.40423
    endloop
  endfacet
  facet normal -1 0 0
    outer loop
      vertex 92.4 47.4 25
      vertex 92.4 65 6.68
      vertex 92.4 62.6489 5.40423
    endloop
  endfacet
  facet normal -1 0 0
    outer loop
      vertex 92.4 56.4 3.5
      vertex 92.4 61.1958 2.06423
      vertex 92.4 56.4 1
    endloop
  endfacet
  facet normal -1 0 0
    outer loop
      vertex 92.4 61.1958 2.06423
      vertex 92.4 56.4 3.5
      vertex 92.4 62.6489 5.40423
    endloop
  endfacet
  facet normal -1 0 0
    outer loop
      vertex 92.4 47.4 25
      vertex 92.4 62.6489 5.40423
      vertex 92.4 56.4 3.5
    endloop
  endfacet
  facet normal -1 0 0
    outer loop
      vertex 92.4 65 6.68
      vertex 92.4 47.4 25
      vertex 92.4 77.4 25
    endloop
  endfacet
  facet normal -1 0 0
    outer loop
      vertex 92.4 21.4 3.5
      vertex 92.4 47.4 25
      vertex 92.4 56.4 3.5
    endloop
  endfacet
  facet normal -1 0 0
    outer loop
      vertex 92.4 21.4 3.5
      vertex 92.4 47.4 26
      vertex 92.4 47.4 25
    endloop
  endfacet
  facet normal -1 0 0
    outer loop
      vertex 92.4 1 26
      vertex 92.4 21.4 3.5
      vertex 92.4 1 1
    endloop
  endfacet
  facet normal -1 0 0
    outer loop
      vertex 92.4 21.4 3.5
      vertex 92.4 1 26
      vertex 92.4 47.4 26
    endloop
  endfacet
  facet normal -0 0 1
    outer loop
      vertex 1 77.4 1
      vertex 2 56.4 1
      vertex 2 77.4 1
    endloop
  endfacet
  facet normal 0 0 1
    outer loop
      vertex 2 56.4 1
      vertex 1 77.4 1
      vertex 1 56.4 1
    endloop
  endfacet
  facet normal -0 0 1
    outer loop
      vertex 1 21.4 1
      vertex 2 1 1
      vertex 2 21.4 1
    endloop
  endfacet
  facet normal 0 0 1
    outer loop
      vertex 2 1 1
      vertex 1 21.4 1
      vertex 1 1 1
    endloop
  endfacet
  facet normal -0 0 1
    outer loop
      vertex 91.4 21.4 1
      vertex 92.4 1 1
      vertex 92.4 21.4 1
    endloop
  endfacet
  facet normal 0 0 1
    outer loop
      vertex 92.4 1 1
      vertex 91.4 21.4 1
      vertex 91.4 1 1
    endloop
  endfacet
  facet normal -0 0 1
    outer loop
      vertex 91.4 77.4 1
      vertex 92.4 68.8042 1
      vertex 92.4 77.4 1
    endloop
  endfacet
  facet normal 0 0 1
    outer loop
      vertex 92.4 68.8042 1
      vertex 91.4 77.4 1
      vertex 91.4 68.8042 1
    endloop
  endfacet
  facet normal -0 0 1
    outer loop
      vertex 91.4 61.1958 1
      vertex 92.4 56.4 1
      vertex 92.4 61.1958 1
    endloop
  endfacet
  facet normal 0 0 1
    outer loop
      vertex 92.4 56.4 1
      vertex 91.4 61.1958 1
      vertex 91.4 56.4 1
    endloop
  endfacet
  facet normal -0 0 1
    outer loop
      vertex 4 2 1
      vertex 28.9 1 1
      vertex 28.9 2 1
    endloop
  endfacet
  facet normal 0 0 1
    outer loop
      vertex 28.9 1 1
      vertex 4 2 1
      vertex 4 1 1
    endloop
  endfacet
  facet normal -0 0 1
    outer loop
      vertex 63.9 2 1
      vertex 89.4 1 1
      vertex 89.4 2 1
    endloop
  endfacet
  facet normal 0 0 1
    outer loop
      vertex 89.4 1 1
      vertex 63.9 2 1
      vertex 63.9 1 1
    endloop
  endfacet
  facet normal -0 0 1
    outer loop
      vertex 4 77.4 1
      vertex 28.9 76.4 1
      vertex 28.9 77.4 1
    endloop
  endfacet
  facet normal 0 0 1
    outer loop
      vertex 28.9 76.4 1
      vertex 4 77.4 1
      vertex 4 76.4 1
    endloop
  endfacet
  facet normal -0 0 1
    outer loop
      vertex 63.9 77.4 1
      vertex 89.4 76.4 1
      vertex 89.4 77.4 1
    endloop
  endfacet
  facet normal 0 0 1
    outer loop
      vertex 89.4 76.4 1
      vertex 63.9 77.4 1
      vertex 63.9 76.4 1
    endloop
  endfacet
  facet normal 0 0 -1
    outer loop
      vertex 2 0 1
      vertex 4 1 1
      vertex 4 0 1
    endloop
  endfacet
  facet normal -0 0 -1
    outer loop
      vertex 4 1 1
      vertex 2 0 1
      vertex 2 1 1
    endloop
  endfacet
  facet normal 0 0 -1
    outer loop
      vertex 2 77.4 1
      vertex 4 78.4 1
      vertex 4 77.4 1
    endloop
  endfacet
  facet normal -0 0 -1
    outer loop
      vertex 4 78.4 1
      vertex 2 77.4 1
      vertex 2 78.4 1
    endloop
  endfacet
  facet normal 0 0 -1
    outer loop
      vertex 89.4 0 1
      vertex 91.4 1 1
      vertex 91.4 0 1
    endloop
  endfacet
  facet normal -0 0 -1
    outer loop
      vertex 91.4 1 1
      vertex 89.4 0 1
      vertex 89.4 1 1
    endloop
  endfacet
  facet normal 0 0 -1
    outer loop
      vertex 89.4 77.4 1
      vertex 91.4 78.4 1
      vertex 91.4 77.4 1
    endloop
  endfacet
  facet normal -0 0 -1
    outer loop
      vertex 91.4 78.4 1
      vertex 89.4 77.4 1
      vertex 89.4 78.4 1
    endloop
  endfacet
  facet normal 0 1 0
    outer loop
      vertex 92.4 1 26
      vertex 63.9 1 3.5
      vertex 1 1 26
    endloop
  endfacet
  facet normal 0 1 0
    outer loop
      vertex 91.4 1 1
      vertex 92.4 1 26
      vertex 92.4 1 1
    endloop
  endfacet
  facet normal 0 1 0
    outer loop
      vertex 89.4 1 1
      vertex 92.4 1 26
      vertex 91.4 1 1
    endloop
  endfacet
  facet normal 0 1 0
    outer loop
      vertex 92.4 1 26
      vertex 89.4 1 1
      vertex 63.9 1 3.5
    endloop
  endfacet
  facet normal 0 1 0
    outer loop
      vertex 63.9 1 3.5
      vertex 89.4 1 1
      vertex 63.9 1 1
    endloop
  endfacet
  facet normal 0 1 -0
    outer loop
      vertex 28.9 1 3.5
      vertex 1 1 26
      vertex 63.9 1 3.5
    endloop
  endfacet
  facet normal 0 1 0
    outer loop
      vertex 4 1 1
      vertex 28.9 1 3.5
      vertex 28.9 1 1
    endloop
  endfacet
  facet normal 0 1 0
    outer loop
      vertex 28.9 1 3.5
      vertex 4 1 1
      vertex 1 1 26
    endloop
  endfacet
  facet normal 0 1 -0
    outer loop
      vertex 2 1 1
      vertex 1 1 26
      vertex 4 1 1
    endloop
  endfacet
  facet normal 0 1 0
    outer loop
      vertex 1 1 26
      vertex 2 1 1
      vertex 1 1 1
    endloop
  endfacet
  facet normal 0 -1 0
    outer loop
      vertex 63.9 77.4 3.5
      vertex 1 77.4 25
      vertex 28.9 77.4 3.5
    endloop
  endfacet
  facet normal 0 -1 0
    outer loop
      vertex 2 77.4 1
      vertex 1 77.4 25
      vertex 1 77.4 1
    endloop
  endfacet
  facet normal 0 -1 0
    outer loop
      vertex 4 77.4 1
      vertex 1 77.4 25
      vertex 2 77.4 1
    endloop
  endfacet
  facet normal 0 -1 0
    outer loop
      vertex 1 77.4 25
      vertex 4 77.4 1
      vertex 28.9 77.4 3.5
    endloop
  endfacet
  facet normal 0 -1 -0
    outer loop
      vertex 28.9 77.4 3.5
      vertex 4 77.4 1
      vertex 28.9 77.4 1
    endloop
  endfacet
  facet normal 0 -1 0
    outer loop
      vertex 1 77.4 25
      vertex 63.9 77.4 3.5
      vertex 92.4 77.4 25
    endloop
  endfacet
  facet normal 0 -1 0
    outer loop
      vertex 89.4 77.4 1
      vertex 63.9 77.4 3.5
      vertex 63.9 77.4 1
    endloop
  endfacet
  facet normal 0 -1 0
    outer loop
      vertex 63.9 77.4 3.5
      vertex 89.4 77.4 1
      vertex 92.4 77.4 25
    endloop
  endfacet
  facet normal 0 -1 0
    outer loop
      vertex 91.4 77.4 1
      vertex 92.4 77.4 25
      vertex 89.4 77.4 1
    endloop
  endfacet
  facet normal 0 -1 -0
    outer loop
      vertex 92.4 77.4 25
      vertex 91.4 77.4 1
      vertex 92.4 77.4 1
    endloop
  endfacet
  facet normal 1 -0 0
    outer loop
      vertex 2 77.4 1
      vertex 2 78.4 0
      vertex 2 78.4 1
    endloop
  endfacet
  facet normal 1 0 0
    outer loop
      vertex 2 56.4 0
      vertex 2 77.4 1
      vertex 2 56.4 1
    endloop
  endfacet
  facet normal 1 0 0
    outer loop
      vertex 2 77.4 1
      vertex 2 56.4 0
      vertex 2 78.4 0
    endloop
  endfacet
  facet normal 1 -0 0
    outer loop
      vertex 2 1 1
      vertex 2 21.4 0
      vertex 2 21.4 1
    endloop
  endfacet
  facet normal 1 0 0
    outer loop
      vertex 2 0 0
      vertex 2 1 1
      vertex 2 0 1
    endloop
  endfacet
  facet normal 1 0 0
    outer loop
      vertex 2 1 1
      vertex 2 0 0
      vertex 2 21.4 0
    endloop
  endfacet
  facet normal -1 0 0
    outer loop
      vertex 91.4 78.4 0
      vertex 91.4 77.4 1
      vertex 91.4 78.4 1
    endloop
  endfacet
  facet normal -1 0 0
    outer loop
      vertex 91.4 68.8042 0
      vertex 91.4 77.4 1
      vertex 91.4 78.4 0
    endloop
  endfacet
  facet normal -1 -0 0
    outer loop
      vertex 91.4 77.4 1
      vertex 91.4 68.8042 0
      vertex 91.4 68.8042 1
    endloop
  endfacet
  facet normal -1 0 0
    outer loop
      vertex 91.4 56.4 0
      vertex 91.4 61.1958 1
      vertex 91.4 61.1958 0
    endloop
  endfacet
  facet normal -1 -0 0
    outer loop
      vertex 91.4 61.1958 1
      vertex 91.4 56.4 0
      vertex 91.4 56.4 1
    endloop
  endfacet
  facet normal -1 0 0
    outer loop
      vertex 91.4 21.4 0
      vertex 91.4 1 1
      vertex 91.4 21.4 1
    endloop
  endfacet
  facet normal -1 0 0
    outer loop
      vertex 91.4 0 0
      vertex 91.4 1 1
      vertex 91.4 21.4 0
    endloop
  endfacet
  facet normal -1 -0 0
    outer loop
      vertex 91.4 1 1
      vertex 91.4 0 0
      vertex 91.4 0 1
    endloop
  endfacet
  facet normal 0 1 -0
    outer loop
      vertex 28.9 2 0
      vertex 4 2 1
      vertex 28.9 2 1
    endloop
  endfacet
  facet normal 0 1 0
    outer loop
      vertex 4 2 1
      vertex 28.9 2 0
      vertex 4 2 0
    endloop
  endfacet
  facet normal 0 1 -0
    outer loop
      vertex 89.4 2 0
      vertex 63.9 2 1
      vertex 89.4 2 1
    endloop
  endfacet
  facet normal 0 1 0
    outer loop
      vertex 63.9 2 1
      vertex 89.4 2 0
      vertex 63.9 2 0
    endloop
  endfacet
  facet normal 0 -1 0
    outer loop
      vertex 4 76.4 0
      vertex 28.9 76.4 1
      vertex 4 76.4 1
    endloop
  endfacet
  facet normal 0 -1 -0
    outer loop
      vertex 28.9 76.4 1
      vertex 4 76.4 0
      vertex 28.9 76.4 0
    endloop
  endfacet
  facet normal 0 -1 0
    outer loop
      vertex 63.9 76.4 0
      vertex 89.4 76.4 1
      vertex 63.9 76.4 1
    endloop
  endfacet
  facet normal 0 -1 -0
    outer loop
      vertex 89.4 76.4 1
      vertex 63.9 76.4 0
      vertex 89.4 76.4 0
    endloop
  endfacet
  facet normal 0 -1 0
    outer loop
      vertex 1 47.4 25
      vertex 92.4 47.4 26
      vertex 1 47.4 26
    endloop
  endfacet
  facet normal 0 -1 -0
    outer loop
      vertex 92.4 47.4 26
      vertex 1 47.4 25
      vertex 92.4 47.4 25
    endloop
  endfacet
  facet normal 0 0.476928 -0.878943
    outer loop
      vertex 92.4 62.6489 5.40423
      vertex 93.4 65 6.68
      vertex 93.4 62.6489 5.40423
    endloop
  endfacet
  facet normal 0 0.476928 -0.878943
    outer loop
      vertex 93.4 65 6.68
      vertex 92.4 62.6489 5.40423
      vertex 92.4 65 6.68
    endloop
  endfacet
  facet normal 0 -0.916978 -0.398937
    outer loop
      vertex 92.4 68.8042 2.06423
      vertex 93.4 67.3511 5.40423
      vertex 92.4 67.3511 5.40423
    endloop
  endfacet
  facet normal 0 -0.916978 -0.398937
    outer loop
      vertex 93.4 67.3511 5.40423
      vertex 92.4 68.8042 2.06423
      vertex 93.4 68.8042 2.06423
    endloop
  endfacet
  facet normal 0 -0.476928 -0.878943
    outer loop
      vertex 92.4 65 6.68
      vertex 93.4 67.3511 5.40423
      vertex 93.4 65 6.68
    endloop
  endfacet
  facet normal -0 -0.476928 -0.878943
    outer loop
      vertex 93.4 67.3511 5.40423
      vertex 92.4 65 6.68
      vertex 92.4 67.3511 5.40423
    endloop
  endfacet
  facet normal 0 -1 0
    outer loop
      vertex 91.4 68.8042 1
      vertex 91.4 68.8042 0
      vertex 92.4 68.8042 1
    endloop
  endfacet
  facet normal 0 -1 0
    outer loop
      vertex 92.4 68.8042 1
      vertex 93.4 68.8042 2.06423
      vertex 92.4 68.8042 2.06423
    endloop
  endfacet
  facet normal 0 -1 0
    outer loop
      vertex 92.4 68.8042 1
      vertex 93.4 68.8042 0
      vertex 93.4 68.8042 2.06423
    endloop
  endfacet
  facet normal 0 -1 0
    outer loop
      vertex 93.4 68.8042 0
      vertex 92.4 68.8042 1
      vertex 91.4 68.8042 0
    endloop
  endfacet
  facet normal 0 1 0
    outer loop
      vertex 93.4 61.1958 2.06423
      vertex 92.4 61.1958 1
      vertex 92.4 61.1958 2.06423
    endloop
  endfacet
  facet normal 0 1 -0
    outer loop
      vertex 93.4 61.1958 0
      vertex 92.4 61.1958 1
      vertex 93.4 61.1958 2.06423
    endloop
  endfacet
  facet normal 0 1 0
    outer loop
      vertex 91.4 61.1958 0
      vertex 92.4 61.1958 1
      vertex 93.4 61.1958 0
    endloop
  endfacet
  facet normal 0 1 0
    outer loop
      vertex 92.4 61.1958 1
      vertex 91.4 61.1958 0
      vertex 91.4 61.1958 1
    endloop
  endfacet
  facet normal 0 0.916979 -0.398936
    outer loop
      vertex 93.4 61.1958 2.06423
      vertex 92.4 62.6489 5.40423
      vertex 93.4 62.6489 5.40423
    endloop
  endfacet
  facet normal 0 0.916979 -0.398936
    outer loop
      vertex 92.4 62.6489 5.40423
      vertex 93.4 61.1958 2.06423
      vertex 92.4 61.1958 2.06423
    endloop
  endfacet
  facet normal 1 0 0
    outer loop
      vertex 28.9 77.4 1
      vertex 28.9 78.4 3.5
      vertex 28.9 77.4 3.5
    endloop
  endfacet
  facet normal 1 0 0
    outer loop
      vertex 28.9 78.4 3.5
      vertex 28.9 77.4 1
      vertex 28.9 78.4 0
    endloop
  endfacet
  facet normal 1 0 0
    outer loop
      vertex 28.9 76.4 0
      vertex 28.9 77.4 1
      vertex 28.9 76.4 1
    endloop
  endfacet
  facet normal 1 0 0
    outer loop
      vertex 28.9 77.4 1
      vertex 28.9 76.4 0
      vertex 28.9 78.4 0
    endloop
  endfacet
  facet normal 1 0 0
    outer loop
      vertex 28.9 1 3.5
      vertex 28.9 0 3.5
      vertex 28.9 1 1
    endloop
  endfacet
  facet normal 1 -0 0
    outer loop
      vertex 28.9 1 1
      vertex 28.9 2 0
      vertex 28.9 2 1
    endloop
  endfacet
  facet normal 1 0 0
    outer loop
      vertex 28.9 1 1
      vertex 28.9 0 0
      vertex 28.9 2 0
    endloop
  endfacet
  facet normal 1 0 0
    outer loop
      vertex 28.9 0 0
      vertex 28.9 1 1
      vertex 28.9 0 3.5
    endloop
  endfacet
  facet normal 0 0 -1
    outer loop
      vertex 28.9 77.4 3.5
      vertex 63.9 78.4 3.5
      vertex 63.9 77.4 3.5
    endloop
  endfacet
  facet normal -0 0 -1
    outer loop
      vertex 63.9 78.4 3.5
      vertex 28.9 77.4 3.5
      vertex 28.9 78.4 3.5
    endloop
  endfacet
  facet normal 0 0 -1
    outer loop
      vertex 28.9 0 3.5
      vertex 63.9 1 3.5
      vertex 63.9 0 3.5
    endloop
  endfacet
  facet normal -0 0 -1
    outer loop
      vertex 63.9 1 3.5
      vertex 28.9 0 3.5
      vertex 28.9 1 3.5
    endloop
  endfacet
  facet normal -1 0 0
    outer loop
      vertex 63.9 78.4 0
      vertex 63.9 77.4 1
      vertex 63.9 78.4 3.5
    endloop
  endfacet
  facet normal -1 0 0
    outer loop
      vertex 63.9 76.4 0
      vertex 63.9 77.4 1
      vertex 63.9 78.4 0
    endloop
  endfacet
  facet normal -1 -0 0
    outer loop
      vertex 63.9 77.4 1
      vertex 63.9 76.4 0
      vertex 63.9 76.4 1
    endloop
  endfacet
  facet normal -1 -0 0
    outer loop
      vertex 63.9 78.4 3.5
      vertex 63.9 77.4 1
      vertex 63.9 77.4 3.5
    endloop
  endfacet
  facet normal -1 0 0
    outer loop
      vertex 63.9 2 0
      vertex 63.9 1 1
      vertex 63.9 2 1
    endloop
  endfacet
  facet normal -1 0 0
    outer loop
      vertex 63.9 0 0
      vertex 63.9 1 1
      vertex 63.9 2 0
    endloop
  endfacet
  facet normal -1 0 0
    outer loop
      vertex 63.9 0 3.5
      vertex 63.9 1 1
      vertex 63.9 0 0
    endloop
  endfacet
  facet normal -1 0 0
    outer loop
      vertex 63.9 1 1
      vertex 63.9 0 3.5
      vertex 63.9 1 3.5
    endloop
  endfacet
  facet normal 0 0 -1
    outer loop
      vertex 0 21.4 3.5
      vertex 1 56.4 3.5
      vertex 1 21.4 3.5
    endloop
  endfacet
  facet normal -0 0 -1
    outer loop
      vertex 1 56.4 3.5
      vertex 0 21.4 3.5
      vertex 0 56.4 3.5
    endloop
  endfacet
  facet normal 0 0 -1
    outer loop
      vertex 92.4 21.4 3.5
      vertex 93.4 56.4 3.5
      vertex 93.4 21.4 3.5
    endloop
  endfacet
  facet normal -0 0 -1
    outer loop
      vertex 93.4 56.4 3.5
      vertex 92.4 21.4 3.5
      vertex 92.4 56.4 3.5
    endloop
  endfacet
  facet normal 0 -1 0
    outer loop
      vertex 0 56.4 3.5
      vertex 1 56.4 1
      vertex 1 56.4 3.5
    endloop
  endfacet
  facet normal 0 -1 0
    outer loop
      vertex 0 56.4 0
      vertex 1 56.4 1
      vertex 0 56.4 3.5
    endloop
  endfacet
  facet normal 0 -1 0
    outer loop
      vertex 2 56.4 0
      vertex 1 56.4 1
      vertex 0 56.4 0
    endloop
  endfacet
  facet normal 0 -1 0
    outer loop
      vertex 1 56.4 1
      vertex 2 56.4 0
      vertex 2 56.4 1
    endloop
  endfacet
  facet normal 0 -1 0
    outer loop
      vertex 91.4 56.4 1
      vertex 91.4 56.4 0
      vertex 92.4 56.4 1
    endloop
  endfacet
  facet normal 0 -1 0
    outer loop
      vertex 92.4 56.4 1
      vertex 93.4 56.4 3.5
      vertex 92.4 56.4 3.5
    endloop
  endfacet
  facet normal 0 -1 0
    outer loop
      vertex 92.4 56.4 1
      vertex 93.4 56.4 0
      vertex 93.4 56.4 3.5
    endloop
  endfacet
  facet normal 0 -1 0
    outer loop
      vertex 93.4 56.4 0
      vertex 92.4 56.4 1
      vertex 91.4 56.4 0
    endloop
  endfacet
  facet normal 0 1 0
    outer loop
      vertex 2 21.4 1
      vertex 2 21.4 0
      vertex 1 21.4 1
    endloop
  endfacet
  facet normal 0 1 -0
    outer loop
      vertex 1 21.4 1
      vertex 0 21.4 3.5
      vertex 1 21.4 3.5
    endloop
  endfacet
  facet normal 0 1 0
    outer loop
      vertex 1 21.4 1
      vertex 0 21.4 0
      vertex 0 21.4 3.5
    endloop
  endfacet
  facet normal 0 1 0
    outer loop
      vertex 0 21.4 0
      vertex 1 21.4 1
      vertex 2 21.4 0
    endloop
  endfacet
  facet normal 0 1 0
    outer loop
      vertex 93.4 21.4 3.5
      vertex 92.4 21.4 1
      vertex 92.4 21.4 3.5
    endloop
  endfacet
  facet normal 0 1 -0
    outer loop
      vertex 93.4 21.4 0
      vertex 92.4 21.4 1
      vertex 93.4 21.4 3.5
    endloop
  endfacet
  facet normal 0 1 0
    outer loop
      vertex 91.4 21.4 0
      vertex 92.4 21.4 1
      vertex 93.4 21.4 0
    endloop
  endfacet
  facet normal 0 1 0
    outer loop
      vertex 92.4 21.4 1
      vertex 91.4 21.4 0
      vertex 91.4 21.4 1
    endloop
  endfacet
  facet normal -1 0 0
    outer loop
      vertex 4 2 0
      vertex 4 1 1
      vertex 4 2 1
    endloop
  endfacet
  facet normal -1 0 0
    outer loop
      vertex 4 0 0
      vertex 4 1 1
      vertex 4 2 0
    endloop
  endfacet
  facet normal -1 -0 0
    outer loop
      vertex 4 1 1
      vertex 4 0 0
      vertex 4 0 1
    endloop
  endfacet
  facet normal -1 0 0
    outer loop
      vertex 4 78.4 0
      vertex 4 77.4 1
      vertex 4 78.4 1
    endloop
  endfacet
  facet normal -1 0 0
    outer loop
      vertex 4 76.4 0
      vertex 4 77.4 1
      vertex 4 78.4 0
    endloop
  endfacet
  facet normal -1 -0 0
    outer loop
      vertex 4 77.4 1
      vertex 4 76.4 0
      vertex 4 76.4 1
    endloop
  endfacet
  facet normal 1 -0 0
    outer loop
      vertex 89.4 1 1
      vertex 89.4 2 0
      vertex 89.4 2 1
    endloop
  endfacet
  facet normal 1 0 0
    outer loop
      vertex 89.4 0 0
      vertex 89.4 1 1
      vertex 89.4 0 1
    endloop
  endfacet
  facet normal 1 0 0
    outer loop
      vertex 89.4 1 1
      vertex 89.4 0 0
      vertex 89.4 2 0
    endloop
  endfacet
  facet normal 1 -0 0
    outer loop
      vertex 89.4 77.4 1
      vertex 89.4 78.4 0
      vertex 89.4 78.4 1
    endloop
  endfacet
  facet normal 1 0 0
    outer loop
      vertex 89.4 76.4 0
      vertex 89.4 77.4 1
      vertex 89.4 76.4 1
    endloop
  endfacet
  facet normal 1 0 0
    outer loop
      vertex 89.4 77.4 1
      vertex 89.4 76.4 0
      vertex 89.4 78.4 0
    endloop
  endfacet
endsolid OpenSCAD_Model
